<svg width="94" height="86" viewBox="0 0 94 86" fill="none" xmlns="http://www.w3.org/2000/svg">
<rect x="3.5" y="3.5" width="87" height="79" rx="11.5" fill="#5F1C61" stroke="#D0A642" stroke-width="7"/>
<path d="M88 24L6 24" stroke="#D0A642" stroke-width="7" stroke-linecap="round"/>
<path d="M31.012 54.148H31.908V60.028L19.7 60L19.952 55.996C22.7893 55.0067 24.964 53.84 26.476 52.496C27.988 51.152 28.744 49.78 28.744 48.38C28.744 47.5773 28.4547 46.952 27.876 46.504C27.2973 46.0373 26.5413 45.804 25.608 45.804C24.8613 45.804 24.096 45.9067 23.312 46.112C22.5467 46.3173 21.8373 46.6067 21.184 46.98L21.268 48.156L20.372 48.296L19.616 42.808C20.456 42.2293 21.548 41.7533 22.892 41.38C24.2547 41.0067 25.5427 40.82 26.756 40.82C28.5293 40.82 29.9573 41.2493 31.04 42.108C32.1227 42.948 32.664 44.1427 32.664 45.692C32.664 47.2227 32.1507 48.716 31.124 50.172C30.0973 51.6093 28.7907 52.8693 27.204 53.952C25.636 55.0347 24.0307 55.8373 22.388 56.36L30.928 55.24L31.012 54.148ZM42.2927 40.82C43.5994 40.82 44.7941 41.1747 45.8767 41.884C46.9594 42.5933 47.8087 43.6107 48.4247 44.936C49.0594 46.2613 49.3767 47.8107 49.3767 49.584C49.3767 51.096 49.1901 52.5333 48.8167 53.896C48.4621 55.24 47.9114 56.4067 47.1647 57.396C46.4554 58.348 45.5687 59.0947 44.5047 59.636C43.4407 60.1587 42.2181 60.42 40.8367 60.42C39.5301 60.42 38.3354 60.0653 37.2527 59.356C36.1701 58.6467 35.3114 57.6293 34.6767 56.304C34.0607 54.9787 33.7527 53.4293 33.7527 51.656C33.7527 50.144 33.9301 48.716 34.2847 47.372C34.6581 46.0093 35.2181 44.8333 35.9647 43.844C36.6741 42.892 37.5607 42.1547 38.6247 41.632C39.6887 41.0907 40.9114 40.82 42.2927 40.82ZM37.3087 48.268C37.3087 51.2173 38.0274 53.392 39.4647 54.792C40.9021 56.1733 42.8714 56.9293 45.3727 57.06C45.6714 55.3613 45.8207 53.9987 45.8207 52.972C45.8207 50.0227 45.1021 47.8573 43.6647 46.476C42.2274 45.076 40.2581 44.3107 37.7567 44.18C37.4581 45.8787 37.3087 47.2413 37.3087 48.268ZM50.9045 59.02L52.5005 58.936L52.3605 43.564L50.7365 43.928L50.4565 42.948L56.8965 41.24L57.2885 41.912L57.1485 58.936L58.7445 59.02V60H50.9045V59.02ZM70.2247 49.836C71.494 50.508 72.474 51.1987 73.1647 51.908C73.8554 52.6173 74.2007 53.504 74.2007 54.568C74.2007 55.6693 73.874 56.668 73.2207 57.564C72.5674 58.4413 71.6807 59.1413 70.5607 59.664C69.4407 60.168 68.19 60.42 66.8087 60.42C65.502 60.42 64.3447 60.224 63.3367 59.832C62.3287 59.44 61.5354 58.8893 60.9567 58.18C60.3967 57.452 60.1167 56.6213 60.1167 55.688C60.1167 54.7173 60.3874 53.8027 60.9287 52.944C61.4887 52.0853 62.2354 51.3573 63.1687 50.76C62.422 50.2 61.8434 49.5933 61.4327 48.94C61.022 48.268 60.8167 47.4933 60.8167 46.616C60.8167 45.4773 61.1434 44.4693 61.7967 43.592C62.45 42.7147 63.3087 42.0333 64.3727 41.548C65.4367 41.0627 66.566 40.82 67.7607 40.82C68.8434 40.82 69.7954 41.0347 70.6167 41.464C71.438 41.8747 72.0634 42.4253 72.4927 43.116C72.9407 43.788 73.1647 44.5067 73.1647 45.272C73.1647 46.1307 72.8847 46.9707 72.3247 47.792C71.7834 48.6133 71.0834 49.2947 70.2247 49.836ZM69.1047 47.12C69.1047 45.9253 68.6474 44.9453 67.7327 44.18C66.818 43.396 65.7074 42.9573 64.4007 42.864C64.2327 43.312 64.1487 43.7787 64.1487 44.264C64.1487 45.0107 64.354 45.6733 64.7647 46.252C65.1754 46.8307 65.6887 47.3253 66.3047 47.736C66.9394 48.1467 67.7514 48.5947 68.7407 49.08C68.9834 48.4267 69.1047 47.7733 69.1047 47.12ZM64.3447 53.7C64.3447 54.5213 64.5874 55.268 65.0727 55.94C65.5767 56.612 66.2207 57.144 67.0047 57.536C67.7887 57.9093 68.582 58.096 69.3847 58.096C69.7767 58.096 70.178 58.068 70.5887 58.012C70.6447 57.7507 70.6727 57.4987 70.6727 57.256C70.6727 56.528 70.4674 55.884 70.0567 55.324C69.6647 54.764 69.1607 54.288 68.5447 53.896C67.9474 53.504 67.1354 53.0373 66.1087 52.496C65.642 52.272 65.1474 52.0013 64.6247 51.684C64.438 52.356 64.3447 53.028 64.3447 53.7Z" fill="white"/>
<path d="M31.012 54.148V53.0504H29.9956L29.9177 54.0638L31.012 54.148ZM31.908 54.148H33.0056V53.0504H31.908V54.148ZM31.908 60.028L31.9055 61.1256L33.0056 61.1281V60.028H31.908ZM19.7 60L18.6046 59.9311L18.5314 61.0949L19.6975 61.0976L19.7 60ZM19.952 55.996L19.5906 54.9596L18.9024 55.1996L18.8566 55.9271L19.952 55.996ZM26.476 52.496L27.2052 53.3163L26.476 52.496ZM27.876 46.504L27.187 47.3584L27.1955 47.3652L27.2041 47.3719L27.876 46.504ZM23.312 46.112L23.0339 45.0502L23.0276 45.0519L23.312 46.112ZM21.184 46.98L20.6395 46.027L20.04 46.3696L20.0892 47.0582L21.184 46.98ZM21.268 48.156L21.4374 49.2404L22.4347 49.0846L22.3628 48.0778L21.268 48.156ZM20.372 48.296L19.2847 48.4458L19.4372 49.5529L20.5414 49.3804L20.372 48.296ZM19.616 42.808L18.9933 41.9042L18.4364 42.2878L18.5287 42.9578L19.616 42.808ZM22.892 41.38L22.602 40.3214L22.5982 40.3225L22.892 41.38ZM31.04 42.108L30.3579 42.968L30.3672 42.9752L31.04 42.108ZM31.124 50.172L32.0171 50.81L32.021 50.8045L31.124 50.172ZM27.204 53.952L26.5854 53.0454L26.5804 53.0488L27.204 53.952ZM22.388 56.36L22.0552 55.3141L22.5307 57.4482L22.388 56.36ZM30.928 55.24L31.0707 56.3282L31.954 56.2124L32.0223 55.3242L30.928 55.24ZM31.012 55.2456H31.908V53.0504H31.012V55.2456ZM30.8104 54.148V60.028H33.0056V54.148H30.8104ZM31.9105 58.9304L19.7025 58.9024L19.6975 61.0976L31.9055 61.1256L31.9105 58.9304ZM20.7954 60.0689L21.0474 56.0649L18.8566 55.9271L18.6046 59.9311L20.7954 60.0689ZM20.3134 57.0324C23.2265 56.0166 25.547 54.7903 27.2052 53.3163L25.7468 51.6757C24.381 52.8897 22.3522 53.9967 19.5906 54.9596L20.3134 57.0324ZM27.2052 53.3163C28.845 51.8587 29.8416 50.2123 29.8416 48.38H27.6464C27.6464 49.3477 27.131 50.4452 25.7468 51.6757L27.2052 53.3163ZM29.8416 48.38C29.8416 47.2755 29.4236 46.3141 28.5479 45.6361L27.2041 47.3719C27.4858 47.5899 27.6464 47.8791 27.6464 48.38H29.8416ZM28.565 45.6496C27.7456 44.9889 26.7265 44.7064 25.608 44.7064V46.9016C26.3561 46.9016 26.849 47.0858 27.187 47.3584L28.565 45.6496ZM25.608 44.7064C24.7599 44.7064 23.901 44.8232 23.0339 45.0502L23.5901 47.1737C24.291 46.9902 24.9628 46.9016 25.608 46.9016V44.7064ZM23.0276 45.0519C22.1761 45.2804 21.3788 45.6046 20.6395 46.027L21.7285 47.9329C22.2959 47.6087 22.9172 47.3543 23.5964 47.1721L23.0276 45.0519ZM20.0892 47.0582L20.1732 48.2342L22.3628 48.0778L22.2788 46.9018L20.0892 47.0582ZM21.0986 47.0716L20.2026 47.2116L20.5414 49.3804L21.4374 49.2404L21.0986 47.0716ZM21.4593 48.1462L20.7033 42.6582L18.5287 42.9578L19.2847 48.4458L21.4593 48.1462ZM20.2387 43.7118C20.949 43.2225 21.9191 42.7894 23.1858 42.4375L22.5982 40.3225C21.1769 40.7173 19.963 41.2362 18.9933 41.9042L20.2387 43.7118ZM23.182 42.4386C24.4653 42.087 25.6552 41.9176 26.756 41.9176V39.7224C25.4302 39.7224 24.044 39.9264 22.602 40.3214L23.182 42.4386ZM26.756 41.9176C28.3528 41.9176 29.5185 42.3022 30.358 42.9679L31.722 41.2481C30.3961 40.1965 28.7059 39.7224 26.756 39.7224V41.9176ZM30.3672 42.9752C31.1444 43.5782 31.5664 44.4314 31.5664 45.692H33.7616C33.7616 43.8539 33.1009 42.3178 31.7128 41.2408L30.3672 42.9752ZM31.5664 45.692C31.5664 46.9607 31.1452 48.2373 30.227 49.5395L32.021 50.8045C33.1561 49.1947 33.7616 47.4846 33.7616 45.692H31.5664ZM30.2309 49.5341C29.2855 50.8576 28.0748 52.0291 26.5854 53.0454L27.8226 54.8586C29.5065 53.7096 30.9092 52.3611 32.0171 50.8099L30.2309 49.5341ZM26.5804 53.0488C25.0924 54.0762 23.5841 54.8276 22.0552 55.3141L22.7208 57.4059C24.4772 56.847 26.1796 55.9931 27.8276 54.8552L26.5804 53.0488ZM22.5307 57.4482L31.0707 56.3282L30.7853 54.1518L22.2453 55.2718L22.5307 57.4482ZM32.0223 55.3242L32.1063 54.2322L29.9177 54.0638L29.8337 55.1558L32.0223 55.3242ZM45.8767 41.884L45.2752 42.8021L45.8767 41.884ZM48.4247 44.936L47.4293 45.3986L47.4348 45.41L48.4247 44.936ZM48.8167 53.896L47.7581 53.606L47.7555 53.616L48.8167 53.896ZM47.1647 57.396L46.2886 56.7348L46.2846 56.7402L47.1647 57.396ZM44.5047 59.636L44.9886 60.6211L44.9956 60.6177L45.0024 60.6142L44.5047 59.636ZM37.2527 59.356L36.6512 60.2741L37.2527 59.356ZM34.6767 56.304L33.6813 56.7666L33.6868 56.778L34.6767 56.304ZM34.2847 47.372L33.2261 47.082L33.2235 47.092L34.2847 47.372ZM35.9647 43.844L36.8408 44.5052L36.8448 44.4998L35.9647 43.844ZM38.6247 41.632L39.1086 42.6171L39.1156 42.6137L39.1224 42.6102L38.6247 41.632ZM39.4647 54.792L38.6989 55.5783L38.7042 55.5834L39.4647 54.792ZM45.3727 57.06L45.3155 58.1561L46.2855 58.2067L46.4537 57.2501L45.3727 57.06ZM43.6647 46.476L42.8989 47.2623L42.9042 47.2674L43.6647 46.476ZM37.7567 44.18L37.814 43.0839L36.8439 43.0333L36.6757 43.9899L37.7567 44.18ZM42.2927 41.9176C43.3879 41.9176 44.3731 42.211 45.2752 42.8021L46.4782 40.9659C45.215 40.1383 43.8109 39.7224 42.2927 39.7224V41.9176ZM45.2752 42.8021C46.1654 43.3853 46.8882 44.2342 47.4294 45.3986L49.42 44.4734C48.7292 42.9871 47.7534 41.8014 46.4782 40.9659L45.2752 42.8021ZM47.4348 45.41C47.9855 46.5599 48.2792 47.9413 48.2792 49.584H50.4743C50.4743 47.68 50.1333 45.9627 49.4146 44.462L47.4348 45.41ZM48.2792 49.584C48.2792 51.0049 48.1039 52.3442 47.7582 53.606L49.8753 54.186C50.2762 52.7225 50.4743 51.1871 50.4743 49.584H48.2792ZM47.7555 53.616C47.4328 54.8388 46.9396 55.8723 46.2887 56.7348L48.0408 58.0572C48.8832 56.941 49.4913 55.6412 49.878 54.176L47.7555 53.616ZM46.2846 56.7402C45.6768 57.556 44.9213 58.1926 44.007 58.6578L45.0024 60.6142C46.2161 59.9967 47.234 59.14 48.0448 58.0518L46.2846 56.7402ZM44.0208 58.6509C43.1304 59.0883 42.0779 59.3224 40.8367 59.3224V61.5176C42.3582 61.5176 43.751 61.2291 44.9886 60.6211L44.0208 58.6509ZM40.8367 59.3224C39.7416 59.3224 38.7563 59.029 37.8542 58.4379L36.6512 60.2741C37.9144 61.1017 39.3185 61.5176 40.8367 61.5176V59.3224ZM37.8542 58.4379C36.9609 57.8526 36.2267 56.9996 35.6666 55.83L33.6868 56.778C34.396 58.2591 35.3792 59.4407 36.6512 60.2741L37.8542 58.4379ZM35.672 55.8414C35.1362 54.6885 34.8503 53.303 34.8503 51.656H32.6552C32.6552 53.5557 32.9852 55.2688 33.6814 56.7666L35.672 55.8414ZM34.8503 51.656C34.8503 50.2303 35.0174 48.897 35.346 47.652L33.2235 47.092C32.8427 48.535 32.6552 50.0577 32.6552 51.656H34.8503ZM35.3433 47.662C35.6849 46.4149 36.1888 45.369 36.8408 44.5052L35.0887 43.1828C34.2473 44.2976 33.6312 45.6038 33.2262 47.082L35.3433 47.662ZM36.8448 44.4998C37.4503 43.6872 38.2012 43.0629 39.1086 42.6171L38.1408 40.6469C36.9202 41.2465 35.8978 42.0968 35.0846 43.1882L36.8448 44.4998ZM39.1224 42.6102C40.0097 42.1588 41.0571 41.9176 42.2927 41.9176V39.7224C40.7656 39.7224 39.3678 40.0225 38.127 40.6538L39.1224 42.6102ZM36.2112 48.268C36.2112 51.3743 36.9671 53.8914 38.6989 55.5782L40.2305 54.0058C39.0877 52.8926 38.4063 51.0604 38.4063 48.268H36.2112ZM38.7042 55.5834C40.3767 57.1907 42.6204 58.0153 45.3155 58.1561L45.43 55.9639C43.1223 55.8434 41.4275 55.156 40.2252 54.0006L38.7042 55.5834ZM46.4537 57.2501C46.7571 55.5247 46.9183 54.0908 46.9183 52.972H44.7232C44.7232 53.9066 44.5857 55.1979 44.2917 56.8699L46.4537 57.2501ZM46.9183 52.972C46.9183 49.8672 46.163 47.3547 44.4252 45.6846L42.9042 47.2674C44.0411 48.36 44.7232 50.1782 44.7232 52.972H46.9183ZM44.4305 45.6898C42.7585 44.0611 40.5128 43.2249 37.814 43.0839L37.6995 45.2761C40.0033 45.3964 41.6963 46.0909 42.8989 47.2622L44.4305 45.6898ZM36.6757 43.9899C36.3724 45.7153 36.2112 47.1492 36.2112 48.268H38.4063C38.4063 47.3334 38.5437 46.0421 38.8377 44.3701L36.6757 43.9899ZM50.9045 59.02L50.8468 57.924L49.8069 57.9787V59.02H50.9045ZM52.5005 58.936L52.5582 60.032L53.6076 59.9768L53.598 58.926L52.5005 58.936ZM52.3605 43.564L53.458 43.554L53.4456 42.196L52.1204 42.493L52.3605 43.564ZM50.7365 43.928L49.6811 44.2295L49.9657 45.2255L50.9765 44.999L50.7365 43.928ZM50.4565 42.948L50.1751 41.8871L49.0938 42.1739L49.4011 43.2495L50.4565 42.948ZM56.8965 41.24L57.8445 40.687L57.4232 39.9648L56.6151 40.1791L56.8965 41.24ZM57.2885 41.912L58.386 41.921L58.3885 41.6195L58.2365 41.359L57.2885 41.912ZM57.1485 58.936L56.0509 58.927L56.0423 59.9769L57.0908 60.032L57.1485 58.936ZM58.7445 59.02H59.842V57.9787L58.8022 57.924L58.7445 59.02ZM58.7445 60V61.0976H59.842V60H58.7445ZM50.9045 60H49.8069V61.0976H50.9045V60ZM50.9622 60.116L52.5582 60.032L52.4428 57.84L50.8468 57.924L50.9622 60.116ZM53.598 58.926L53.458 43.554L51.263 43.574L51.403 58.946L53.598 58.926ZM52.1204 42.493L50.4964 42.857L50.9765 44.999L52.6005 44.635L52.1204 42.493ZM51.7918 43.6265L51.5118 42.6465L49.4011 43.2495L49.6811 44.2295L51.7918 43.6265ZM50.7378 44.0089L57.1778 42.3009L56.6151 40.1791L50.1751 41.8871L50.7378 44.0089ZM55.9484 41.793L56.3404 42.465L58.2365 41.359L57.8445 40.687L55.9484 41.793ZM56.1909 41.903L56.0509 58.927L58.246 58.945L58.386 41.921L56.1909 41.903ZM57.0908 60.032L58.6868 60.116L58.8022 57.924L57.2062 57.84L57.0908 60.032ZM57.6469 59.02V60H59.842V59.02H57.6469ZM58.7445 58.9024H50.9045V61.0976H58.7445V58.9024ZM52.002 60V59.02H49.8069V60H52.002ZM70.2247 49.836L69.6394 48.9075L68.0353 49.9188L69.7112 50.806L70.2247 49.836ZM73.1647 51.908L73.9511 51.1423L73.1647 51.908ZM73.2207 57.564L74.101 58.2196L74.1075 58.2107L73.2207 57.564ZM70.5607 59.664L71.0111 60.6649L71.018 60.6618L71.0248 60.6586L70.5607 59.664ZM63.3367 59.832L62.9389 60.8549L63.3367 59.832ZM60.9567 58.18L60.0867 58.8492L60.0963 58.8616L60.1062 58.8738L60.9567 58.18ZM60.9287 52.944L60.0094 52.3444L60.0047 52.3515L60.0002 52.3587L60.9287 52.944ZM63.1687 50.76L63.7603 51.6844L65.0932 50.8314L63.8272 49.882L63.1687 50.76ZM61.4327 48.94L60.4961 49.5124L60.5035 49.5241L61.4327 48.94ZM61.7967 43.592L60.9164 42.9365L61.7967 43.592ZM64.3727 41.548L64.8282 42.5466L64.3727 41.548ZM70.6167 41.464L70.1082 42.4367L70.117 42.4413L70.1258 42.4457L70.6167 41.464ZM72.4927 43.116L71.5605 43.6954L71.5698 43.7103L71.5795 43.7248L72.4927 43.116ZM72.3247 47.792L71.4179 47.1737L71.413 47.1808L71.4083 47.188L72.3247 47.792ZM67.7327 44.18L67.0184 45.0134L67.0284 45.0218L67.7327 44.18ZM64.4007 42.864L64.4789 41.7692L63.6609 41.7108L63.373 42.4786L64.4007 42.864ZM64.7647 46.252L65.6598 45.6168V45.6168L64.7647 46.252ZM66.3047 47.736L65.6959 48.6492L65.7021 48.6534L65.7084 48.6575L66.3047 47.736ZM68.7407 49.08L68.2573 50.0654L69.347 50.5999L69.7696 49.4622L68.7407 49.08ZM65.0727 55.94L64.1829 56.5826L64.1887 56.5906L64.1946 56.5985L65.0727 55.94ZM67.0047 57.536L66.5138 58.5177L66.5233 58.5224L66.5328 58.5269L67.0047 57.536ZM70.5887 58.012L70.737 59.0995L71.5004 58.9954L71.6619 58.242L70.5887 58.012ZM70.0567 55.324L69.1575 55.9534L69.1645 55.9633L69.1716 55.9731L70.0567 55.324ZM68.5447 53.896L67.9425 54.8136L67.9489 54.8178L67.9554 54.822L68.5447 53.896ZM66.1087 52.496L66.6206 51.5251L66.6023 51.5155L66.5836 51.5065L66.1087 52.496ZM64.6247 51.684L65.1943 50.7458L63.9552 49.9935L63.5672 51.3902L64.6247 51.684ZM69.7112 50.806C70.9208 51.4464 71.7945 52.0741 72.3783 52.6737L73.9511 51.1423C73.1535 50.3232 72.0673 49.5696 70.7382 48.866L69.7112 50.806ZM72.3783 52.6737C72.8536 53.1618 73.1031 53.7665 73.1031 54.568H75.2982C75.2982 53.2415 74.8571 52.0728 73.9511 51.1423L72.3783 52.6737ZM73.1031 54.568C73.1031 55.4352 72.8513 56.2078 72.3339 56.9173L74.1075 58.2107C74.8968 57.1282 75.2982 55.9035 75.2982 54.568H73.1031ZM72.3404 56.9085C71.809 57.622 71.0736 58.2135 70.0965 58.6694L71.0248 60.6586C72.2878 60.0692 73.3257 59.2606 74.101 58.2195L72.3404 56.9085ZM70.1103 58.6631C69.1486 59.0959 68.0541 59.3224 66.8087 59.3224V61.5176C68.3259 61.5176 69.7328 61.2401 71.0111 60.6649L70.1103 58.6631ZM66.8087 59.3224C65.6105 59.3224 64.5923 59.1427 63.7345 58.8091L62.9389 60.8549C64.0971 61.3053 65.3935 61.5176 66.8087 61.5176V59.3224ZM63.7345 58.8091C62.8711 58.4733 62.2458 58.0239 61.8071 57.4862L60.1062 58.8738C60.8249 59.7548 61.7863 60.4067 62.9389 60.8549L63.7345 58.8091ZM61.8266 57.5108C61.4168 56.978 61.2142 56.3835 61.2142 55.688H59.0191C59.0191 56.8592 59.3766 57.926 60.0867 58.8492L61.8266 57.5108ZM61.2142 55.688C61.2142 54.9342 61.421 54.2212 61.8571 53.5293L60.0002 52.3587C59.3537 53.3842 59.0191 54.5004 59.0191 55.688H61.2142ZM61.848 53.5436C62.3163 52.8255 62.9473 52.2048 63.7603 51.6844L62.577 49.8356C61.5234 50.5099 60.661 51.3452 60.0094 52.3444L61.848 53.5436ZM63.8272 49.882C63.1661 49.3861 62.6879 48.8745 62.3619 48.3559L60.5035 49.5241C60.9988 50.3122 61.6779 51.0139 62.5102 51.638L63.8272 49.882ZM62.3692 48.3677C62.0756 47.8872 61.9142 47.3151 61.9142 46.616H59.7191C59.7191 47.6716 59.9685 48.6488 60.4962 49.5123L62.3692 48.3677ZM61.9142 46.616C61.9142 45.7032 62.1708 44.9273 62.677 44.2475L60.9164 42.9365C60.1159 44.0114 59.7191 45.2515 59.7191 46.616H61.9142ZM62.677 44.2475C63.2123 43.5287 63.9204 42.9606 64.8282 42.5466L63.9172 40.5494C62.6969 41.106 61.6878 41.9006 60.9164 42.9365L62.677 44.2475ZM64.8282 42.5466C65.746 42.1279 66.7197 41.9176 67.7607 41.9176V39.7224C66.4123 39.7224 65.1273 39.9974 63.9172 40.5494L64.8282 42.5466ZM67.7607 41.9176C68.6961 41.9176 69.4683 42.1022 70.1082 42.4367L71.1251 40.4913C70.1224 39.9672 68.9906 39.7224 67.7607 39.7224V41.9176ZM70.1258 42.4457C70.7898 42.7776 71.2517 43.1985 71.5605 43.6954L73.4248 42.5366C72.875 41.6521 72.0863 40.9717 71.1075 40.4823L70.1258 42.4457ZM71.5795 43.7248C71.9143 44.227 72.0671 44.7356 72.0671 45.272H74.2622C74.2622 44.2777 73.9671 43.349 73.4059 42.5072L71.5795 43.7248ZM72.0671 45.272C72.0671 45.8768 71.8737 46.5051 71.4179 47.1737L73.2315 48.4103C73.8956 47.4363 74.2622 46.3845 74.2622 45.272H72.0671ZM71.4083 47.188C70.9557 47.8746 70.3702 48.4468 69.6394 48.9075L70.81 50.7645C71.7966 50.1425 72.611 49.352 73.2411 48.396L71.4083 47.188ZM70.2022 47.12C70.2022 45.601 69.6014 44.3125 68.437 43.3382L67.0284 45.0218C67.6933 45.5781 68.0071 46.2497 68.0071 47.12H70.2022ZM68.447 43.3467C67.3379 42.3961 65.9984 41.8778 64.4789 41.7692L64.3225 43.9588C65.4163 44.0369 66.2981 44.3959 67.0184 45.0133L68.447 43.3467ZM63.373 42.4786C63.1581 43.0516 63.0511 43.649 63.0511 44.264H65.2463C65.2463 43.9083 65.3073 43.5724 65.4284 43.2494L63.373 42.4786ZM63.0511 44.264C63.0511 45.2256 63.3201 46.1129 63.8696 46.8872L65.6598 45.6168C65.3879 45.2338 65.2463 44.7957 65.2463 44.264H63.0511ZM63.8696 46.8872C64.3613 47.58 64.9732 48.1674 65.6959 48.6492L66.9135 46.8228C66.4042 46.4832 65.9895 46.0814 65.6598 45.6168L63.8696 46.8872ZM65.7084 48.6575C66.3917 49.0996 67.245 49.5688 68.2573 50.0654L69.2241 48.0946C68.2577 47.6206 67.487 47.1937 66.9009 46.8145L65.7084 48.6575ZM69.7696 49.4622C70.0546 48.6948 70.2022 47.9123 70.2022 47.12H68.0071C68.0071 47.6344 67.9121 48.1586 67.7118 48.6978L69.7696 49.4622ZM63.2471 53.7C63.2471 54.7543 63.5638 55.7254 64.1829 56.5826L65.9625 55.2974C65.6109 54.8106 65.4422 54.2883 65.4422 53.7H63.2471ZM64.1946 56.5985C64.8054 57.4128 65.5843 58.0529 66.5138 58.5177L67.4955 56.5543C66.8571 56.2351 66.348 55.8112 65.9507 55.2815L64.1946 56.5985ZM66.5328 58.5269C67.452 58.9646 68.4057 59.1936 69.3847 59.1936V56.9984C68.7583 56.9984 68.1254 56.854 67.4766 56.5451L66.5328 58.5269ZM69.3847 59.1936C69.829 59.1936 70.28 59.1618 70.737 59.0995L70.4404 56.9245C70.0761 56.9742 69.7243 56.9984 69.3847 56.9984V59.1936ZM71.6619 58.242C71.7325 57.9126 71.7702 57.5833 71.7702 57.256H69.5751C69.5751 57.414 69.5569 57.5888 69.5155 57.782L71.6619 58.242ZM71.7702 57.256C71.7702 56.3066 71.4974 55.4327 70.9418 54.6749L69.1716 55.9731C69.4373 56.3353 69.5751 56.7494 69.5751 57.256H71.7702ZM70.9558 54.6946C70.4755 54.0084 69.8633 53.4342 69.1339 52.97L67.9554 54.822C68.458 55.1418 68.8538 55.5196 69.1575 55.9534L70.9558 54.6946ZM69.1469 52.9784C68.508 52.5592 67.6617 52.0741 66.6206 51.5251L65.5968 53.4669C66.609 54.0006 67.3867 54.4488 67.9425 54.8136L69.1469 52.9784ZM66.5836 51.5065C66.1545 51.3005 65.6916 51.0477 65.1943 50.7458L64.0551 52.6222C64.6031 52.9549 65.1295 53.2435 65.6337 53.4855L66.5836 51.5065ZM63.5672 51.3902C63.3549 52.1543 63.2471 52.925 63.2471 53.7H65.4422C65.4422 53.131 65.5211 52.5577 65.6822 51.9778L63.5672 51.3902Z" fill="#D0A642"/>
</svg>
