<svg width="94" height="86" viewBox="0 0 94 86" fill="none" xmlns="http://www.w3.org/2000/svg">
<rect x="3.5" y="3.5" width="87" height="79" rx="11.5" fill="#5F1C61" stroke="#D0A642" stroke-width="7"/>
<path d="M88 24L6 24" stroke="#D0A642" stroke-width="7" stroke-linecap="round"/>
<path d="M31.012 54.148H31.908V60.028L19.7 60L19.952 55.996C22.7893 55.0067 24.964 53.84 26.476 52.496C27.988 51.152 28.744 49.78 28.744 48.38C28.744 47.5773 28.4547 46.952 27.876 46.504C27.2973 46.0373 26.5413 45.804 25.608 45.804C24.8613 45.804 24.096 45.9067 23.312 46.112C22.5467 46.3173 21.8373 46.6067 21.184 46.98L21.268 48.156L20.372 48.296L19.616 42.808C20.456 42.2293 21.548 41.7533 22.892 41.38C24.2547 41.0067 25.5427 40.82 26.756 40.82C28.5293 40.82 29.9573 41.2493 31.04 42.108C32.1227 42.948 32.664 44.1427 32.664 45.692C32.664 47.2227 32.1507 48.716 31.124 50.172C30.0973 51.6093 28.7907 52.8693 27.204 53.952C25.636 55.0347 24.0307 55.8373 22.388 56.36L30.928 55.24L31.012 54.148ZM42.2927 40.82C43.5994 40.82 44.7941 41.1747 45.8767 41.884C46.9594 42.5933 47.8087 43.6107 48.4247 44.936C49.0594 46.2613 49.3767 47.8107 49.3767 49.584C49.3767 51.096 49.1901 52.5333 48.8167 53.896C48.4621 55.24 47.9114 56.4067 47.1647 57.396C46.4554 58.348 45.5687 59.0947 44.5047 59.636C43.4407 60.1587 42.2181 60.42 40.8367 60.42C39.5301 60.42 38.3354 60.0653 37.2527 59.356C36.1701 58.6467 35.3114 57.6293 34.6767 56.304C34.0607 54.9787 33.7527 53.4293 33.7527 51.656C33.7527 50.144 33.9301 48.716 34.2847 47.372C34.6581 46.0093 35.2181 44.8333 35.9647 43.844C36.6741 42.892 37.5607 42.1547 38.6247 41.632C39.6887 41.0907 40.9114 40.82 42.2927 40.82ZM37.3087 48.268C37.3087 51.2173 38.0274 53.392 39.4647 54.792C40.9021 56.1733 42.8714 56.9293 45.3727 57.06C45.6714 55.3613 45.8207 53.9987 45.8207 52.972C45.8207 50.0227 45.1021 47.8573 43.6647 46.476C42.2274 45.076 40.2581 44.3107 37.7567 44.18C37.4581 45.8787 37.3087 47.2413 37.3087 48.268ZM50.9045 59.02L52.5005 58.936L52.3605 43.564L50.7365 43.928L50.4565 42.948L56.8965 41.24L57.2885 41.912L57.1485 58.936L58.7445 59.02V60H50.9045V59.02ZM67.3127 40.4C68.6007 40.4 69.758 40.7173 70.7847 41.352C71.83 41.9867 72.642 42.8827 73.2207 44.04C73.818 45.1973 74.1167 46.5507 74.1167 48.1C74.1167 50.1347 73.6127 52.0293 72.6047 53.784C71.5967 55.5387 70.2154 56.976 68.4607 58.096C66.7247 59.1973 64.8114 59.832 62.7207 60L62.5247 58.992C64.6154 58.376 66.258 57.452 67.4527 56.22C68.666 54.988 69.4034 53.4667 69.6647 51.656C68.302 52.4773 66.874 52.888 65.3807 52.888C64.3354 52.888 63.3927 52.6547 62.5527 52.188C61.7127 51.7027 61.05 51.0493 60.5647 50.228C60.098 49.388 59.8647 48.436 59.8647 47.372C59.8647 46.1773 60.182 45.048 60.8167 43.984C61.47 42.9013 62.366 42.0333 63.5047 41.38C64.6434 40.7267 65.9127 40.4 67.3127 40.4ZM63.8967 44.824C63.8967 46.336 64.4194 47.54 65.4647 48.436C66.51 49.332 67.9474 49.8453 69.7767 49.976C69.758 48.6133 69.5154 47.3813 69.0487 46.28C68.582 45.16 67.938 44.264 67.1167 43.592C66.314 42.9013 65.39 42.5 64.3447 42.388C64.046 43.2093 63.8967 44.0213 63.8967 44.824Z" fill="white"/>
<path d="M31.012 54.148V53.0504H29.9956L29.9177 54.0638L31.012 54.148ZM31.908 54.148H33.0056V53.0504H31.908V54.148ZM31.908 60.028L31.9055 61.1256L33.0056 61.1281V60.028H31.908ZM19.7 60L18.6046 59.9311L18.5314 61.0949L19.6975 61.0976L19.7 60ZM19.952 55.996L19.5906 54.9596L18.9024 55.1996L18.8566 55.9271L19.952 55.996ZM26.476 52.496L27.2052 53.3163L27.2052 53.3163L26.476 52.496ZM27.876 46.504L27.187 47.3584L27.1955 47.3652L27.2041 47.3719L27.876 46.504ZM23.312 46.112L23.0339 45.0502L23.0276 45.0519L23.312 46.112ZM21.184 46.98L20.6395 46.027L20.04 46.3696L20.0892 47.0582L21.184 46.98ZM21.268 48.156L21.4374 49.2404L22.4347 49.0846L22.3628 48.0778L21.268 48.156ZM20.372 48.296L19.2847 48.4458L19.4372 49.5529L20.5414 49.3804L20.372 48.296ZM19.616 42.808L18.9933 41.9041L18.4364 42.2878L18.5287 42.9578L19.616 42.808ZM22.892 41.38L22.602 40.3214L22.5982 40.3225L22.892 41.38ZM31.04 42.108L30.3579 42.968L30.3672 42.9752L31.04 42.108ZM31.124 50.172L32.0171 50.81L32.021 50.8045L31.124 50.172ZM27.204 53.952L26.5854 53.0454L26.5804 53.0488L27.204 53.952ZM22.388 56.36L22.0552 55.3141L22.5307 57.4482L22.388 56.36ZM30.928 55.24L31.0707 56.3282L31.954 56.2124L32.0223 55.3242L30.928 55.24ZM31.012 55.2456H31.908V53.0504H31.012V55.2456ZM30.8104 54.148V60.028H33.0056V54.148H30.8104ZM31.9105 58.9304L19.7025 58.9024L19.6975 61.0976L31.9055 61.1256L31.9105 58.9304ZM20.7954 60.0689L21.0474 56.0649L18.8566 55.9271L18.6046 59.9311L20.7954 60.0689ZM20.3134 57.0324C23.2265 56.0166 25.547 54.7903 27.2052 53.3163L25.7468 51.6757C24.381 52.8897 22.3522 53.9967 19.5906 54.9596L20.3134 57.0324ZM27.2052 53.3163C28.845 51.8587 29.8416 50.2123 29.8416 48.38H27.6464C27.6464 49.3477 27.131 50.4453 25.7468 51.6757L27.2052 53.3163ZM29.8416 48.38C29.8416 47.2755 29.4236 46.3141 28.5479 45.6361L27.2041 47.3719C27.4858 47.5899 27.6464 47.8791 27.6464 48.38H29.8416ZM28.565 45.6496C27.7456 44.9889 26.7265 44.7064 25.608 44.7064V46.9016C26.3561 46.9016 26.849 47.0858 27.187 47.3584L28.565 45.6496ZM25.608 44.7064C24.7599 44.7064 23.901 44.8232 23.0339 45.0502L23.5901 47.1737C24.291 46.9902 24.9628 46.9016 25.608 46.9016V44.7064ZM23.0276 45.0519C22.1761 45.2804 21.3788 45.6046 20.6395 46.027L21.7285 47.9329C22.2959 47.6087 22.9172 47.3543 23.5964 47.1721L23.0276 45.0519ZM20.0892 47.0582L20.1732 48.2342L22.3628 48.0778L22.2788 46.9018L20.0892 47.0582ZM21.0986 47.0716L20.2026 47.2116L20.5414 49.3804L21.4374 49.2404L21.0986 47.0716ZM21.4593 48.1462L20.7033 42.6582L18.5287 42.9578L19.2847 48.4458L21.4593 48.1462ZM20.2387 43.7118C20.949 43.2225 21.9191 42.7894 23.1858 42.4375L22.5982 40.3225C21.1769 40.7173 19.963 41.2362 18.9933 41.9041L20.2387 43.7118ZM23.182 42.4386C24.4653 42.087 25.6552 41.9176 26.756 41.9176V39.7224C25.4302 39.7224 24.044 39.9264 22.602 40.3214L23.182 42.4386ZM26.756 41.9176C28.3528 41.9176 29.5185 42.3022 30.358 42.9679L31.722 41.2481C30.3961 40.1965 28.7059 39.7224 26.756 39.7224V41.9176ZM30.3672 42.9752C31.1444 43.5782 31.5664 44.4314 31.5664 45.692H33.7616C33.7616 43.8539 33.1009 42.3178 31.7128 41.2408L30.3672 42.9752ZM31.5664 45.692C31.5664 46.9607 31.1452 48.2373 30.227 49.5395L32.021 50.8045C33.1561 49.1947 33.7616 47.4846 33.7616 45.692H31.5664ZM30.2309 49.5341C29.2855 50.8576 28.0748 52.0291 26.5854 53.0454L27.8226 54.8586C29.5065 53.7096 30.9092 52.3611 32.0171 50.8099L30.2309 49.5341ZM26.5804 53.0488C25.0924 54.0762 23.5841 54.8276 22.0552 55.3141L22.7208 57.4059C24.4772 56.847 26.1796 55.9931 27.8276 54.8552L26.5804 53.0488ZM22.5307 57.4482L31.0707 56.3282L30.7853 54.1518L22.2453 55.2718L22.5307 57.4482ZM32.0223 55.3242L32.1063 54.2322L29.9177 54.0638L29.8337 55.1558L32.0223 55.3242ZM45.8767 41.884L45.2752 42.8021L45.2752 42.8021L45.8767 41.884ZM48.4247 44.936L47.4293 45.3986L47.4348 45.41L48.4247 44.936ZM48.8167 53.896L47.7581 53.606L47.7555 53.616L48.8167 53.896ZM47.1647 57.396L46.2886 56.7348L46.2846 56.7402L47.1647 57.396ZM44.5047 59.636L44.9886 60.6211L44.9956 60.6177L45.0024 60.6142L44.5047 59.636ZM37.2527 59.356L36.6512 60.2741L36.6512 60.2741L37.2527 59.356ZM34.6767 56.304L33.6813 56.7666L33.6868 56.778L34.6767 56.304ZM34.2847 47.372L33.2261 47.082L33.2235 47.092L34.2847 47.372ZM35.9647 43.844L36.8408 44.5052L36.8448 44.4998L35.9647 43.844ZM38.6247 41.632L39.1086 42.6171L39.1156 42.6137L39.1224 42.6102L38.6247 41.632ZM39.4647 54.792L38.6989 55.5783L38.7042 55.5834L39.4647 54.792ZM45.3727 57.06L45.3155 58.1561L46.2855 58.2067L46.4537 57.2501L45.3727 57.06ZM43.6647 46.476L42.8989 47.2623L42.9042 47.2674L43.6647 46.476ZM37.7567 44.18L37.814 43.0839L36.8439 43.0333L36.6757 43.9899L37.7567 44.18ZM42.2927 41.9176C43.3879 41.9176 44.3731 42.211 45.2752 42.8021L46.4782 40.9659C45.215 40.1383 43.8109 39.7224 42.2927 39.7224V41.9176ZM45.2752 42.8021C46.1654 43.3853 46.8882 44.2342 47.4294 45.3986L49.42 44.4734C48.7292 42.9871 47.7534 41.8014 46.4782 40.9659L45.2752 42.8021ZM47.4348 45.41C47.9855 46.5599 48.2792 47.9413 48.2792 49.584H50.4743C50.4743 47.68 50.1333 45.9627 49.4146 44.462L47.4348 45.41ZM48.2792 49.584C48.2792 51.0049 48.1039 52.3442 47.7582 53.606L49.8753 54.186C50.2762 52.7225 50.4743 51.1871 50.4743 49.584H48.2792ZM47.7555 53.616C47.4328 54.8388 46.9396 55.8723 46.2887 56.7348L48.0408 58.0572C48.8832 56.941 49.4913 55.6412 49.878 54.176L47.7555 53.616ZM46.2846 56.7402C45.6768 57.556 44.9213 58.1926 44.007 58.6578L45.0024 60.6142C46.2161 59.9967 47.234 59.14 48.0448 58.0518L46.2846 56.7402ZM44.0208 58.6509C43.1304 59.0883 42.0779 59.3224 40.8367 59.3224V61.5176C42.3582 61.5176 43.751 61.2291 44.9886 60.6211L44.0208 58.6509ZM40.8367 59.3224C39.7416 59.3224 38.7563 59.029 37.8542 58.4379L36.6512 60.2741C37.9144 61.1017 39.3185 61.5176 40.8367 61.5176V59.3224ZM37.8542 58.4379C36.9609 57.8526 36.2267 56.9996 35.6666 55.83L33.6868 56.778C34.396 58.2591 35.3792 59.4407 36.6512 60.2741L37.8542 58.4379ZM35.672 55.8414C35.1362 54.6885 34.8503 53.303 34.8503 51.656H32.6552C32.6552 53.5557 32.9852 55.2688 33.6814 56.7666L35.672 55.8414ZM34.8503 51.656C34.8503 50.2303 35.0174 48.897 35.346 47.652L33.2235 47.092C32.8427 48.535 32.6552 50.0577 32.6552 51.656H34.8503ZM35.3433 47.662C35.6849 46.4149 36.1888 45.369 36.8408 44.5052L35.0887 43.1828C34.2473 44.2976 33.6312 45.6038 33.2262 47.082L35.3433 47.662ZM36.8448 44.4998C37.4503 43.6872 38.2012 43.0629 39.1086 42.6171L38.1408 40.6469C36.9202 41.2465 35.8978 42.0968 35.0846 43.1882L36.8448 44.4998ZM39.1224 42.6102C40.0097 42.1588 41.0571 41.9176 42.2927 41.9176V39.7224C40.7656 39.7224 39.3678 40.0225 38.127 40.6538L39.1224 42.6102ZM36.2112 48.268C36.2112 51.3743 36.9671 53.8914 38.6989 55.5782L40.2305 54.0058C39.0877 52.8926 38.4063 51.0604 38.4063 48.268H36.2112ZM38.7042 55.5834C40.3767 57.1907 42.6204 58.0153 45.3155 58.1561L45.43 55.9639C43.1223 55.8434 41.4274 55.156 40.2252 54.0006L38.7042 55.5834ZM46.4537 57.2501C46.7571 55.5247 46.9183 54.0908 46.9183 52.972H44.7232C44.7232 53.9066 44.5857 55.1979 44.2917 56.8699L46.4537 57.2501ZM46.9183 52.972C46.9183 49.8672 46.163 47.3547 44.4252 45.6846L42.9042 47.2674C44.0411 48.36 44.7232 50.1782 44.7232 52.972H46.9183ZM44.4305 45.6898C42.7585 44.0611 40.5128 43.2249 37.814 43.0839L37.6995 45.2761C40.0033 45.3964 41.6963 46.0909 42.8989 47.2622L44.4305 45.6898ZM36.6757 43.9899C36.3724 45.7153 36.2112 47.1492 36.2112 48.268H38.4063C38.4063 47.3334 38.5437 46.0421 38.8377 44.3701L36.6757 43.9899ZM50.9045 59.02L50.8468 57.924L49.8069 57.9787V59.02H50.9045ZM52.5005 58.936L52.5582 60.032L53.6076 59.9768L53.598 58.926L52.5005 58.936ZM52.3605 43.564L53.458 43.554L53.4456 42.196L52.1204 42.493L52.3605 43.564ZM50.7365 43.928L49.6811 44.2295L49.9657 45.2255L50.9765 44.999L50.7365 43.928ZM50.4565 42.948L50.1751 41.8871L49.0938 42.1739L49.4011 43.2495L50.4565 42.948ZM56.8965 41.24L57.8445 40.687L57.4232 39.9648L56.6151 40.1791L56.8965 41.24ZM57.2885 41.912L58.386 41.921L58.3885 41.6195L58.2365 41.359L57.2885 41.912ZM57.1485 58.936L56.0509 58.927L56.0423 59.9769L57.0908 60.032L57.1485 58.936ZM58.7445 59.02H59.842V57.9787L58.8022 57.924L58.7445 59.02ZM58.7445 60V61.0976H59.842V60H58.7445ZM50.9045 60H49.8069V61.0976H50.9045V60ZM50.9622 60.116L52.5582 60.032L52.4428 57.84L50.8468 57.924L50.9622 60.116ZM53.598 58.926L53.458 43.554L51.263 43.574L51.403 58.946L53.598 58.926ZM52.1204 42.493L50.4964 42.857L50.9765 44.999L52.6005 44.635L52.1204 42.493ZM51.7918 43.6265L51.5118 42.6465L49.4011 43.2495L49.6811 44.2295L51.7918 43.6265ZM50.7378 44.0089L57.1778 42.3009L56.6151 40.1791L50.1751 41.8871L50.7378 44.0089ZM55.9484 41.793L56.3404 42.465L58.2365 41.359L57.8445 40.687L55.9484 41.793ZM56.1909 41.903L56.0509 58.927L58.246 58.945L58.386 41.921L56.1909 41.903ZM57.0908 60.032L58.6868 60.116L58.8022 57.924L57.2062 57.84L57.0908 60.032ZM57.6469 59.02V60H59.842V59.02H57.6469ZM58.7445 58.9024H50.9045V61.0976H58.7445V58.9024ZM52.002 60V59.02H49.8069V60H52.002ZM70.7847 41.352L70.2075 42.2856L70.2151 42.2902L70.7847 41.352ZM73.2207 44.04L72.2389 44.5309L72.2454 44.5434L73.2207 44.04ZM72.6047 53.784L71.653 53.2373L71.653 53.2373L72.6047 53.784ZM68.4607 58.096L69.0487 59.0228L69.0512 59.0212L68.4607 58.096ZM62.7207 60L61.6433 60.2095L61.8306 61.1726L62.8086 61.094L62.7207 60ZM62.5247 58.992L62.2145 57.9392L61.2567 58.2214L61.4473 59.2015L62.5247 58.992ZM67.4527 56.22L66.6707 55.4498L66.6647 55.4559L67.4527 56.22ZM69.6647 51.656L70.751 51.8128L71.0819 49.5203L69.0981 50.716L69.6647 51.656ZM62.5527 52.188L62.0036 53.1383L62.0116 53.143L62.0197 53.1474L62.5527 52.188ZM60.5647 50.228L59.6052 50.761L59.6123 50.7738L59.6198 50.7864L60.5647 50.228ZM60.8167 43.984L59.877 43.4169L59.8741 43.4217L60.8167 43.984ZM63.5047 41.38L64.0509 42.332L64.0509 42.332L63.5047 41.38ZM69.7767 49.976L69.6985 51.0708L70.8905 51.1559L70.8741 49.961L69.7767 49.976ZM69.0487 46.28L68.0355 46.7021L68.0381 46.7082L69.0487 46.28ZM67.1167 43.592L66.4008 44.424L66.4111 44.4328L66.4217 44.4415L67.1167 43.592ZM64.3447 42.388L64.4616 41.2967L63.607 41.2051L63.3132 42.0129L64.3447 42.388ZM67.3127 41.4976C68.4111 41.4976 69.3661 41.7654 70.2076 42.2856L71.3618 40.4184C70.15 39.6693 68.7903 39.3024 67.3127 39.3024V41.4976ZM70.2151 42.2902C71.0732 42.8112 71.7472 43.5472 72.239 44.5308L74.2024 43.5492C73.5369 42.2181 72.5868 41.1621 71.3543 40.4138L70.2151 42.2902ZM72.2454 44.5434C72.7485 45.5182 73.0191 46.6928 73.0191 48.1H75.2142C75.2142 46.4086 74.8876 44.8765 74.196 43.5366L72.2454 44.5434ZM73.0191 48.1C73.0191 49.9439 72.5649 51.6499 71.653 53.2373L73.5564 54.3307C74.6605 52.4087 75.2142 50.3254 75.2142 48.1H73.0191ZM71.653 53.2373C70.7357 54.834 69.4801 56.1432 67.8702 57.1708L69.0512 59.0212C70.9506 57.8088 72.4577 56.2433 73.5564 54.3307L71.653 53.2373ZM67.8727 57.1692C66.2905 58.173 64.5494 58.752 62.6328 58.906L62.8086 61.094C65.0733 60.912 67.1589 60.2217 69.0487 59.0228L67.8727 57.1692ZM63.7981 59.7905L63.6021 58.7825L61.4473 59.2015L61.6433 60.2095L63.7981 59.7905ZM62.8349 60.0448C65.059 59.3895 66.8833 58.3838 68.2406 56.9841L66.6647 55.4559C65.6328 56.5202 64.1718 57.3625 62.2145 57.9392L62.8349 60.0448ZM68.2347 56.9901C69.6221 55.5814 70.4583 53.8408 70.751 51.8128L68.5784 51.4992C68.3484 53.0925 67.7099 54.3946 66.6707 55.4499L68.2347 56.9901ZM69.0981 50.716C67.8948 51.4413 66.6612 51.7904 65.3807 51.7904V53.9856C67.0869 53.9856 68.7092 53.5134 70.2313 52.596L69.0981 50.716ZM65.3807 51.7904C64.5051 51.7904 63.7486 51.5968 63.0857 51.2286L62.0197 53.1474C63.0368 53.7125 64.1657 53.9856 65.3807 53.9856V51.7904ZM63.1018 51.2377C62.4223 50.8451 61.8972 50.3256 61.5096 49.6696L59.6198 50.7864C60.2028 51.7731 61.003 52.5602 62.0036 53.1383L63.1018 51.2377ZM61.5241 49.695C61.1575 49.035 60.9622 48.2699 60.9622 47.372H58.7671C58.7671 48.6021 59.0386 49.741 59.6052 50.761L61.5241 49.695ZM60.9622 47.372C60.9622 46.3828 61.2221 45.4468 61.7593 44.5463L59.8741 43.4217C59.1419 44.6492 58.7671 45.9718 58.7671 47.372H60.9622ZM61.7564 44.5511C62.3096 43.6343 63.0676 42.8962 64.0509 42.332L62.9585 40.428C61.6645 41.1705 60.6304 42.1684 59.877 43.4169L61.7564 44.5511ZM64.0509 42.332C65.0123 41.7804 66.0912 41.4976 67.3127 41.4976V39.3024C65.7342 39.3024 64.2744 39.6729 62.9585 40.428L64.0509 42.332ZM62.7991 44.824C62.7991 46.6209 63.4361 48.1428 64.7504 49.2693L66.179 47.6027C65.4026 46.9372 64.9942 46.0511 64.9942 44.824H62.7991ZM64.7504 49.2693C66.0253 50.3621 67.7119 50.9289 69.6985 51.0708L69.8549 48.8812C68.1829 48.7618 66.9948 48.3019 66.179 47.6027L64.7504 49.2693ZM70.8741 49.961C70.8538 48.4759 70.5885 47.1009 70.0593 45.8518L68.0381 46.7082C68.4422 47.6618 68.6622 48.7508 68.6792 49.991L70.8741 49.961ZM70.0618 45.8579C69.5358 44.5955 68.7914 43.5441 67.8117 42.7425L66.4217 44.4415C67.0846 44.9839 67.6282 45.7245 68.0356 46.7021L70.0618 45.8579ZM67.8326 42.76C66.8625 41.9253 65.73 41.4326 64.4616 41.2967L64.2278 43.4793C65.0501 43.5674 65.7656 43.8774 66.4008 44.424L67.8326 42.76ZM63.3132 42.0129C62.9747 42.9438 62.7991 43.8825 62.7991 44.824H64.9942C64.9942 44.1601 65.1173 43.4749 65.3762 42.7631L63.3132 42.0129Z" fill="#D0A642"/>
</svg>
