<svg width="131" height="100" viewBox="0 0 131 100" fill="none" xmlns="http://www.w3.org/2000/svg">
<g filter="url(#filter0_d_148_1442)">
<path fill-rule="evenodd" clip-rule="evenodd" d="M51.1705 58.4469C51.0046 53.9395 50.8278 49.1351 52.9596 47.0052C60.3377 39.6337 54.3018 36.6243 47.0767 33.2117C46.1747 32.7857 45.3813 32.4015 44.6812 32.0625C43.49 31.4857 42.5688 31.0397 41.8421 30.7406C41.3621 30.5115 40.8331 30.2626 40.2521 29.9892C39.9042 29.8255 39.5376 29.6531 39.1518 29.4708C31.9195 26.0549 25.9108 23.2168 24.7719 33.5351C24.4429 36.5165 20.5591 39.4029 16.9154 42.1108L16.9154 42.1109C15.6567 43.0463 14.4267 43.9605 13.3817 44.8499C11.3301 46.545 9.60585 48.6949 8.38017 51.2395C3.97468 60.3857 7.62472 71.2789 16.5177 76.0542C16.8992 76.343 17.7566 76.8151 18.6483 77.3061C19.1869 77.6027 19.7381 77.9062 20.2045 78.1803C20.7193 78.3733 21.2769 78.5958 21.8149 78.8105C22.729 79.1753 23.5866 79.5175 24.0814 79.6541C33.577 83.9939 44.8589 79.977 49.3744 70.6024C50.2646 68.7543 50.8259 66.8349 51.0815 64.909C51.3429 63.131 51.2582 60.8304 51.1705 58.4469Z" fill="url(#paint0_radial_148_1442)"/>
<rect opacity="0.67" width="8.09552" height="4.18303" rx="1.37107" transform="matrix(0.904214 0.427079 -0.433958 0.900933 33.4644 42.4434)" fill="#D9D9D9"/>
<path d="M34.0259 46.3542C34.0987 46.3885 34.1761 46.4069 34.2581 46.4092C34.3402 46.4116 34.4236 46.3984 34.5084 46.3698L34.5384 46.4719C34.2113 46.6328 33.9164 46.6511 33.6536 46.527C33.5031 46.456 33.388 46.3601 33.3081 46.2395C33.2299 46.1197 33.1899 45.9836 33.1883 45.8311C33.1866 45.6787 33.2258 45.5194 33.306 45.353C33.375 45.2097 33.4689 45.0843 33.5877 44.9766C33.709 44.8681 33.832 44.7938 33.9568 44.7537C34.0673 44.7392 34.1772 44.7405 34.2866 44.7578C34.3984 44.7742 34.5014 44.8047 34.5956 44.8492C34.7213 44.9085 34.823 44.99 34.901 45.0935C34.9814 45.1962 35.0292 45.3097 35.0443 45.4341L34.6168 45.5446C34.6038 45.3524 34.5794 45.1398 34.5437 44.9065C34.4567 44.9018 34.3659 44.9217 34.2715 44.966C34.1771 45.0104 34.0884 45.0746 34.0052 45.1587C33.9238 45.2435 33.8569 45.3403 33.8045 45.449C33.7046 45.6565 33.6735 45.839 33.7113 45.9963C33.7508 46.1545 33.8557 46.2737 34.0259 46.3542ZM35.5571 45.9705C35.7224 46.0486 35.8321 46.16 35.8861 46.3048C35.9401 46.4496 35.9239 46.6117 35.8374 46.7913C35.8001 46.8687 35.7476 46.9419 35.6798 47.011C35.6137 47.0808 35.5391 47.1346 35.4561 47.1722C35.3786 47.1983 35.2968 47.2102 35.2106 47.2079C35.1269 47.2047 35.0462 47.1848 34.9685 47.1481C34.8032 47.07 34.6936 46.9586 34.6396 46.8138C34.5855 46.669 34.6018 46.5068 34.6882 46.3273C34.7247 46.2516 34.7768 46.1791 34.8446 46.1101C34.9124 46.041 34.9878 45.9877 35.0708 45.95C35.1483 45.924 35.2293 45.9117 35.3138 45.9132C35.4 45.9155 35.4811 45.9346 35.5571 45.9705ZM35.1024 46.3774C35.027 46.5338 35.0013 46.6652 35.0252 46.7715C35.0507 46.8786 35.1202 46.968 35.2337 47.0399C35.2691 46.9959 35.3048 46.945 35.3407 46.8872C35.3767 46.8294 35.4042 46.7807 35.4232 46.7412C35.4994 46.5831 35.5243 46.4513 35.498 46.3459C35.4741 46.2396 35.4063 46.1509 35.2944 46.0799C35.2582 46.1255 35.2213 46.1768 35.1837 46.2338C35.1477 46.2917 35.1206 46.3395 35.1024 46.3774ZM36.4587 46.8573L36.1144 47.5468L36.3315 47.6584L36.297 47.7301L35.635 47.4174L35.6695 47.3458L35.7648 47.3817L36.1834 46.4937L36.0785 46.4715L36.0894 46.3856L36.5394 46.4496L36.4964 46.7538C36.6041 46.6692 36.7049 46.6117 36.7987 46.5812C36.8414 46.5852 36.8884 46.5993 36.9396 46.6235C37.009 46.6563 37.0684 46.6995 37.1176 46.753L36.8836 47.0367C36.8404 47.0042 36.7836 46.9663 36.7132 46.9229C36.6428 46.8795 36.5844 46.8449 36.5381 46.8189L36.4587 46.8573ZM37.4637 48.0415L37.0564 48.1161C36.9341 48.0583 36.8591 47.9865 36.8315 47.9007C36.8063 47.814 36.8258 47.7039 36.8901 47.5705L37.2066 46.9133L37.0405 46.8349L37.0786 46.7558C37.1662 46.7507 37.2672 46.7327 37.3816 46.7018C37.4983 46.67 37.6092 46.6314 37.7143 46.586L37.7842 46.6494L37.6076 46.9845L37.8977 47.1215L37.8477 47.2252L37.555 47.0809L37.2813 47.6491C37.2433 47.7282 37.2304 47.7929 37.2427 47.8432C37.2566 47.8942 37.2892 47.9319 37.3405 47.9561L37.4572 47.9475L37.4637 48.0415Z" fill="black"/>
<path fill-rule="evenodd" clip-rule="evenodd" d="M43.6708 42.9775C43.9018 43.4645 44.0866 43.9819 44.2185 44.5257C45.2642 48.8387 42.581 53.1746 38.2254 54.2101C37.1953 54.455 36.1638 54.4933 35.1755 54.3521C34.6739 59.0241 38.8609 60.5819 42.9743 59.604C47.3299 58.5686 48.6719 52.767 47.6262 48.4539C46.9813 45.7941 45.632 43.8411 43.6708 42.9775Z" fill="url(#paint1_linear_148_1442)"/>
</g>
<ellipse rx="6.80059" ry="6.75875" transform="matrix(0.904214 0.427079 -0.433958 0.900933 36.0004 46.1332)" fill="black" fill-opacity="0.5"/>
<path fill-rule="evenodd" clip-rule="evenodd" d="M32.0832 53.8929C36.5305 55.9934 41.8241 54.1911 43.9068 49.8673C45.9894 45.5435 44.0725 40.3356 39.6253 38.235C35.178 36.1345 29.8844 37.9368 27.8017 42.2606C25.7191 46.5844 27.636 51.7924 32.0832 53.8929ZM32.2252 53.5975C36.5047 55.6188 41.5985 53.8845 43.6026 49.7238C45.6067 45.5632 43.7621 40.5517 39.4826 38.5305C35.2032 36.5092 30.1094 38.2435 28.1053 42.4041C26.1012 46.5648 27.9458 51.5762 32.2252 53.5975Z" fill="#723F29"/>
<path fill-rule="evenodd" clip-rule="evenodd" d="M32.7882 52.8024C36.5077 54.5592 40.9612 52.9975 42.7353 49.3143C44.5095 45.6311 42.9324 41.221 39.2129 39.4642C35.4933 37.7074 31.0398 39.2691 29.2657 42.9523C27.4916 46.6355 29.0686 51.0456 32.7882 52.8024ZM32.9095 52.5501C36.4887 54.2407 40.7741 52.7379 42.4813 49.1937C44.1885 45.6494 42.6709 41.4058 39.0917 39.7153C35.5126 38.0247 31.2271 39.5275 29.5199 43.0717C27.8128 46.616 29.3303 50.8596 32.9095 52.5501Z" fill="#723F29"/>
<path fill-rule="evenodd" clip-rule="evenodd" d="M32.5085 53.3824C36.5515 55.292 41.3922 53.5945 43.3206 49.591C45.249 45.5875 43.5348 40.794 39.4918 38.8844C35.4489 36.9748 30.6081 38.6723 28.6797 42.6758C26.7513 46.6793 28.4655 51.4728 32.5085 53.3824ZM32.64 53.1091C36.5304 54.9467 41.1885 53.3132 43.0441 49.4608C44.8998 45.6083 43.2502 40.9957 39.3598 39.1582C35.4694 37.3207 30.8113 38.9541 28.9557 42.8065C27.1001 46.659 28.7496 51.2716 32.64 53.1091Z" fill="#723F29"/>
<rect width="4.53373" height="35.0811" transform="matrix(0.904214 0.427079 -0.433958 0.900933 51.8281 8.05029)" fill="#723F29"/>
<path d="M55.9272 9.98517L51.8275 8.04934C51.8275 8.04934 52.3164 7.03455 51.8197 6.57349C51.3229 6.11243 55.0002 -0.773896 54.874 0.23422C54.7477 1.24234 59.2866 3.38553 60.145 2.72312C61.0033 2.06072 57.7652 9.15438 57.0907 9.06235C56.4161 8.97032 55.9272 9.98517 55.9272 9.98517Z" fill="url(#paint2_linear_148_1442)"/>
<path d="M55.9272 9.98517L51.8275 8.04934C51.8275 8.04934 52.3164 7.03455 51.8197 6.57349C51.3229 6.11243 55.0002 -0.773896 54.874 0.23422C54.7477 1.24234 59.2866 3.38553 60.145 2.72312C61.0033 2.06072 57.7652 9.15438 57.0907 9.06235C56.4161 8.97032 55.9272 9.98517 55.9272 9.98517Z" stroke="#A8A7A7"/>
<path d="M25.8414 57.5888L29.6101 59.3688L33.7153 61.3078M22.0615 53.4312L38.7513 61.3141L37.6207 62.9152L33.7153 61.3078L31.5658 61.1398L30.5571 60.8328L29.1447 60.3351L27.8652 59.5614L26.8549 58.9147L25.8414 57.5888L21.5165 55.3088L22.0615 53.4312Z" fill="url(#paint3_radial_148_1442)"/>
<path d="M25.8414 57.5888L29.6101 59.3688L33.7153 61.3078M22.0615 53.4312L38.7513 61.3141L37.6207 62.9152L33.7153 61.3078L31.5658 61.1398L30.5571 60.8328L29.1447 60.3351L27.8652 59.5614L26.8549 58.9147L25.8414 57.5888L21.5165 55.3088L22.0615 53.4312Z" stroke="black"/>
<rect width="5.82877" height="0.321771" transform="matrix(0.904214 0.427079 -0.433958 0.900933 27.7778 56.4868)" fill="#D9D9D9"/>
<rect width="4.53349" height="0.321771" transform="matrix(0.904261 0.426981 -0.434057 0.900885 51.9673 7.75977)" fill="#D9D9D9"/>
<ellipse rx="0.323347" ry="0.321663" transform="matrix(0.904214 0.427079 -0.433958 0.900933 50.1064 16.8463)" fill="#D9D9D9"/>
<ellipse rx="0.323347" ry="0.321663" transform="matrix(0.904214 0.427079 -0.433958 0.900933 48.4306 20.3268)" fill="#D9D9D9"/>
<ellipse rx="0.323347" ry="0.321663" transform="matrix(0.904214 0.427079 -0.433958 0.900933 46.7543 23.8058)" fill="#D9D9D9"/>
<ellipse rx="0.323347" ry="0.321663" transform="matrix(0.904214 0.427079 -0.433958 0.900933 45.1191 29.4401)" fill="#D9D9D9"/>
<ellipse rx="0.323347" ry="0.321663" transform="matrix(0.904214 0.427079 -0.433958 0.900933 42.1455 33.3747)" fill="#D9D9D9"/>
<ellipse rx="0.323347" ry="0.321663" transform="matrix(0.904214 0.427079 -0.433958 0.900933 41.0283 35.694)" fill="#D9D9D9"/>
<ellipse rx="0.323347" ry="0.321663" transform="matrix(0.904214 0.427079 -0.433958 0.900933 43.3618 28.61)" fill="#D9D9D9"/>
<path d="M56.391 3.79825L56.1208 5.00458L55.6143 4.7654L56.391 3.79825Z" fill="#D9D9D9"/>
<path d="M55.1342 6.40811L55.9108 5.44097L55.4044 5.20178L55.1342 6.40811Z" fill="#D9D9D9"/>
<path d="M55.4701 4.96533L55.7498 4.94342L55.6289 5.19439L55.4701 4.96533Z" fill="#D9D9D9"/>
<path d="M56.0557 5.24158L55.776 5.26349L55.8969 5.01252L56.0557 5.24158Z" fill="#D9D9D9"/>
<path d="M56.0342 2.74639C56.0705 2.76357 56.1092 2.77275 56.1502 2.77393C56.1913 2.77511 56.233 2.76853 56.2754 2.7542L56.2904 2.80524C56.1268 2.88569 55.9794 2.89488 55.848 2.83281C55.7727 2.79729 55.7152 2.74937 55.6752 2.68907C55.6361 2.62915 55.6161 2.56109 55.6153 2.48488C55.6145 2.40867 55.6341 2.32899 55.6742 2.24581C55.7087 2.17417 55.7556 2.11144 55.815 2.05761C55.8757 2.00336 55.9372 1.96621 55.9996 1.94616C56.0548 1.93889 56.1098 1.93958 56.1645 1.94822C56.2204 1.95643 56.2719 1.97166 56.319 1.99391C56.3818 2.02358 56.4327 2.0643 56.4717 2.11606C56.5119 2.1674 56.5358 2.22417 56.5433 2.28638L56.3296 2.34158C56.3231 2.24552 56.3109 2.13919 56.293 2.02258C56.2495 2.02022 56.2041 2.03014 56.1569 2.05232C56.1097 2.0745 56.0654 2.10661 56.0238 2.14864C55.9831 2.19107 55.9496 2.23945 55.9234 2.29381C55.8735 2.39757 55.8579 2.48879 55.8768 2.56747C55.8966 2.64654 55.949 2.70618 56.0342 2.74639ZM56.7997 2.55455C56.8824 2.59358 56.9372 2.6493 56.9642 2.7217C56.9912 2.7941 56.9831 2.87518 56.9399 2.96494C56.9212 3.00365 56.895 3.04027 56.8611 3.0748C56.828 3.10973 56.7907 3.1366 56.7492 3.1554C56.7105 3.16844 56.6696 3.17438 56.6265 3.17324C56.5846 3.17167 56.5443 3.16171 56.5055 3.14336C56.4228 3.10433 56.368 3.04861 56.341 2.97621C56.3139 2.90381 56.3221 2.82273 56.3653 2.73297C56.3835 2.69509 56.4096 2.65888 56.4435 2.62434C56.4774 2.5898 56.5151 2.56313 56.5566 2.54433C56.5953 2.5313 56.6358 2.52515 56.6781 2.5259C56.7212 2.52704 56.7617 2.53659 56.7997 2.55455ZM56.5724 2.758C56.5347 2.83623 56.5218 2.90192 56.5338 2.95507C56.5465 3.00861 56.5813 3.05333 56.638 3.08924C56.6557 3.06727 56.6736 3.04183 56.6915 3.01292C56.7095 2.98401 56.7233 2.95968 56.7328 2.93991C56.7709 2.86086 56.7833 2.79497 56.7702 2.74226C56.7582 2.68911 56.7243 2.64478 56.6684 2.60926C56.6503 2.63205 56.6318 2.65771 56.613 2.68623C56.595 2.71514 56.5815 2.73906 56.5724 2.758ZM57.2505 2.99795L57.0784 3.34271L57.1869 3.39853L57.1697 3.43435L56.8387 3.27801L56.8559 3.24219L56.9036 3.26015L57.1129 2.81617L57.0604 2.80504L57.0659 2.76213L57.2909 2.79412L57.2694 2.9462C57.3232 2.90391 57.3736 2.87514 57.4205 2.85989C57.4419 2.86189 57.4654 2.86894 57.491 2.88105C57.5257 2.89744 57.5554 2.91904 57.58 2.94583L57.463 3.08768C57.4414 3.07141 57.413 3.05244 57.3778 3.03076C57.3426 3.00907 57.3134 2.99175 57.2902 2.97878L57.2505 2.99795ZM57.753 3.59008L57.5494 3.62734C57.4882 3.59846 57.4507 3.56255 57.4369 3.51964C57.4243 3.47628 57.4341 3.42126 57.4662 3.35455L57.6245 3.02598L57.5414 2.98675L57.5605 2.94722C57.6043 2.94467 57.6548 2.93567 57.712 2.92021C57.7703 2.90432 57.8258 2.88503 57.8783 2.86233L57.9133 2.894L57.825 3.06154L57.97 3.13005L57.945 3.18193L57.7987 3.10978L57.6618 3.39388C57.6428 3.43341 57.6364 3.46575 57.6425 3.49089C57.6495 3.51642 57.6658 3.53524 57.6914 3.54734L57.7498 3.54307L57.753 3.59008Z" fill="white"/>
<rect width="0.646694" height="1.28665" rx="0.323347" transform="matrix(0.904261 0.426981 -0.434057 0.900885 53.144 0.840332)" fill="url(#paint4_linear_148_1442)"/>
<rect width="0.646694" height="1.28665" rx="0.323347" transform="matrix(0.904213 0.427079 -0.433957 0.900932 52.4458 2.29004)" fill="url(#paint5_linear_148_1442)"/>
<rect width="0.646694" height="1.28665" rx="0.323347" transform="matrix(0.904213 0.427079 -0.433957 0.900932 51.748 3.74023)" fill="url(#paint6_linear_148_1442)"/>
<rect width="0.646694" height="1.28665" rx="0.323347" transform="matrix(0.904213 0.427079 -0.433957 0.900932 60.1714 4.15967)" fill="url(#paint7_linear_148_1442)"/>
<rect width="0.646694" height="1.28665" rx="0.323347" transform="matrix(0.904213 0.427079 -0.433957 0.900932 59.4736 5.60938)" fill="url(#paint8_linear_148_1442)"/>
<rect width="0.646694" height="1.28665" rx="0.323347" transform="matrix(0.904213 0.427079 -0.433957 0.900932 58.7749 7.05957)" fill="url(#paint9_linear_148_1442)"/>
<path d="M59.5991 4.60156L60.1839 4.87775" stroke="black" stroke-width="0.274214"/>
<path d="M58.9014 6.05127L59.4861 6.32746" stroke="black" stroke-width="0.274214"/>
<path d="M58.2031 7.50049L58.7879 7.77668" stroke="black" stroke-width="0.274214"/>
<path d="M53.1577 1.55859L53.7425 1.83478" stroke="black" stroke-width="0.274214"/>
<path d="M52.459 3.00879L53.0437 3.28498" stroke="black" stroke-width="0.274214"/>
<path d="M51.7612 4.4585L52.346 4.73469" stroke="black" stroke-width="0.274214"/>
<ellipse rx="0.323347" ry="0.321663" transform="matrix(0.904213 0.427079 -0.433957 0.900932 54.6215 2.24967)" fill="#D9D9D9"/>
<ellipse rx="0.323347" ry="0.321663" transform="matrix(0.904213 0.427079 -0.433957 0.900932 58.7211 4.18619)" fill="#D9D9D9"/>
<ellipse rx="0.323347" ry="0.321663" transform="matrix(0.904213 0.427079 -0.433957 0.900932 58.0224 5.63639)" fill="#D9D9D9"/>
<path d="M57.6161 7.2237C57.539 7.38375 57.3456 7.45167 57.1841 7.3754C57.0226 7.29914 56.9542 7.10756 57.0313 6.94751C57.1084 6.78746 57.3018 6.71954 57.4633 6.79581C57.6247 6.87208 57.6932 7.06365 57.6161 7.2237Z" fill="#D9D9D9"/>
<ellipse rx="0.323347" ry="0.321663" transform="matrix(0.904213 0.427079 -0.433957 0.900932 53.9228 3.69938)" fill="#D9D9D9"/>
<ellipse rx="0.323347" ry="0.321663" transform="matrix(0.904213 0.427079 -0.433957 0.900932 53.2246 5.15006)" fill="#D9D9D9"/>
<path d="M50.9897 9.78955C54.1667 11.2901 55.0463 11.7055 55.089 11.7257" stroke="#C9C9C9" stroke-width="0.274214"/>
<path d="M50.1519 11.5298C53.3288 13.0303 54.2084 13.4458 54.2511 13.4659" stroke="#C9C9C9" stroke-width="0.274214"/>
<path d="M49.314 13.2695C52.4909 14.7701 53.3705 15.1855 53.4132 15.2057" stroke="#C9C9C9" stroke-width="0.274214"/>
<path d="M48.4761 15.0088C51.653 16.5093 52.5326 16.9248 52.5753 16.9449" stroke="#C9C9C9" stroke-width="0.274214"/>
<path d="M47.6382 16.7485C50.8151 18.2491 51.6947 18.6645 51.7374 18.6847" stroke="#C9C9C9" stroke-width="0.274214"/>
<path d="M46.7993 18.4888C50.4301 20.2037 50.8498 20.4019 50.8986 20.4249" stroke="#C9C9C9" stroke-width="0.274214"/>
<path d="M45.9614 20.2285C49.1383 21.729 50.018 22.1445 50.0607 22.1647" stroke="#C9C9C9" stroke-width="0.274214"/>
<path d="M45.1235 21.9678C48.3005 23.4683 49.1801 23.8838 49.2228 23.9039" stroke="#C9C9C9" stroke-width="0.274214"/>
<path d="M44.2856 23.708C47.4626 25.2085 48.3422 25.624 48.3849 25.6442" stroke="#C9C9C9" stroke-width="0.274214"/>
<path d="M43.4478 25.4478C46.6247 26.9483 47.5043 27.3637 47.547 27.3839" stroke="#C9C9C9" stroke-width="0.274214"/>
<path d="M42.6099 27.1875C45.7868 28.688 46.6664 29.1035 46.7091 29.1237" stroke="#C9C9C9" stroke-width="0.274214"/>
<path d="M41.772 28.9272C44.9489 30.4278 45.8285 30.8432 45.8712 30.8634" stroke="#C9C9C9" stroke-width="0.274214"/>
<path d="M41.0728 30.377C44.2497 31.8775 45.1293 32.2929 45.172 32.3131" stroke="#C9C9C9" stroke-width="0.274214"/>
<path d="M40.375 31.8271C43.5519 33.3277 44.4315 33.7431 44.4742 33.7633" stroke="#C9C9C9" stroke-width="0.274214"/>
<path d="M39.8164 32.9863C42.9933 34.4869 43.873 34.9023 43.9157 34.9225" stroke="#C9C9C9" stroke-width="0.274214"/>
<path d="M39.2578 34.147C42.4347 35.6475 43.3144 36.063 43.3571 36.0831" stroke="#C9C9C9" stroke-width="0.274214"/>
<path d="M38.6987 35.3066C41.8756 36.8072 42.7553 37.2226 42.798 37.2428" stroke="#C9C9C9" stroke-width="0.274214"/>
<path d="M38.2798 36.1758C41.4567 37.6763 42.3363 38.0918 42.379 38.1119" stroke="#C9C9C9" stroke-width="0.274214"/>
<path d="M37.8613 37.0459C41.0382 38.5464 41.9179 38.9619 41.9606 38.9821" stroke="#C9C9C9" stroke-width="0.274214"/>
<path d="M37.3027 38.2056C40.4797 39.7061 41.3593 40.1216 41.402 40.1417" stroke="#C9C9C9" stroke-width="0.274214"/>
<path d="M53.2198 5.16047C53.4389 5.20299 53.7767 5.49669 53.3747 6.33133C52.9726 7.16597 36.5989 41.1593 28.3908 58.1999" stroke="#BA5900" stroke-width="0.274214"/>
<path d="M57.3239 7.08667C57.1287 6.99446 56.6824 6.92604 56.4589 7.38998C56.2355 7.85392 39.4195 42.7652 31.3188 59.583" stroke="#8D8D8D" stroke-width="0.274214"/>
<path d="M58.0219 5.63671C57.6314 5.45231 56.7947 5.19948 56.5713 5.66342C55.0628 8.795 38.7171 42.7301 30.7328 59.3062" stroke="#656464" stroke-width="0.274214"/>
<path d="M53.9232 3.7004C54.3601 3.78815 55.1503 4.13763 54.8151 4.83354C54.4799 5.52944 37.4498 40.8854 28.9767 58.4763" stroke="#BA5900" stroke-width="0.274214"/>
<path d="M54.6208 2.25047C55.2042 2.40738 56.2592 2.95315 55.8123 3.88103C55.3654 4.8089 38.1256 40.8488 29.5616 58.7528" stroke="#BA5900" stroke-width="0.274214"/>
<path d="M58.7207 4.18699C58.2515 3.66875 57.1873 2.89323 56.6845 3.93709C56.1817 4.98095 38.7838 41.1004 30.1477 59.0297" stroke="#BA5900" stroke-width="0.274214"/>
<ellipse rx="0.323347" ry="0.321663" transform="matrix(0.904261 0.426981 -0.434057 0.900885 28.3911 58.1998)" fill="black"/>
<ellipse rx="0.323347" ry="0.321663" transform="matrix(0.904214 0.427079 -0.433958 0.900933 31.3193 59.5832)" fill="black"/>
<ellipse rx="0.323347" ry="0.321663" transform="matrix(0.904214 0.427079 -0.433958 0.900933 30.7334 59.3068)" fill="black"/>
<ellipse rx="0.323347" ry="0.321663" transform="matrix(0.904261 0.426981 -0.434057 0.900885 28.977 58.4762)" fill="black"/>
<ellipse rx="0.323347" ry="0.321663" transform="matrix(0.904214 0.427079 -0.433958 0.900933 29.562 58.7536)" fill="black"/>
<ellipse rx="0.323347" ry="0.321663" transform="matrix(0.904214 0.427079 -0.433958 0.900933 30.1474 59.0299)" fill="black"/>
<ellipse cx="28.387" cy="58.0634" rx="0.161921" ry="0.160583" fill="#D9D9D9"/>
<ellipse cx="29.0359" cy="58.3847" rx="0.161921" ry="0.160583" fill="#D9D9D9"/>
<ellipse cx="29.4324" cy="58.6904" rx="0.161921" ry="0.160583" fill="#D9D9D9"/>
<ellipse cx="30.0814" cy="59.0117" rx="0.161921" ry="0.160583" fill="#D9D9D9"/>
<ellipse cx="30.6575" cy="59.3481" rx="0.161921" ry="0.160583" fill="#D9D9D9"/>
<ellipse cx="31.3069" cy="59.6694" rx="0.161921" ry="0.160583" fill="#D9D9D9"/>
<g filter="url(#filter1_d_148_1442)">
<path d="M72.2122 31.2419V31.9014H66.9932V31.2419L68.0106 31.2231L67.1251 21.5575L63.4887 29.7911H62.9046L59.0045 21.501L58.6465 31.2231L59.6639 31.2419V31.9014H55.5377V31.2419L56.2725 31.2231L58.0813 19.956L57.045 19.9372V19.2777H61.3785L64.4119 25.4388L67.0309 19.2777H70.931V19.9372L69.9324 19.956L71.4774 31.2231L72.2122 31.2419ZM81.4759 23.4228V24.0257L80.9295 24.0446L78.5367 29.6027C77.8835 31.1477 77.2052 32.5608 76.5018 33.842C75.811 35.1232 75.1829 36.1407 74.6177 36.8943L72.3944 34.7841C73.952 33.8923 75.3462 32.9125 76.5772 31.8448L75.5409 31.9014L72.6394 24.0446L72.093 24.0257V23.4228H76.5584V24.0257L75.767 24.0446L77.4816 29.81L79.0266 24.0446L78.2352 24.0257V23.4228H81.4759Z" fill="black"/>
<path d="M55.5 33.7855H81.1933V34.7276H55.5V33.7855Z" fill="black"/>
</g>
<g filter="url(#filter2_d_148_1442)">
<path d="M73.4433 37.9686V41.718L72.7085 41.6992L72.6708 40.7571C71.1761 39.8151 69.7379 39.0614 68.3562 38.4962V44.1863H71.8795V44.8834H68.3562V49.914L70.3722 49.9328V50.5923H64.2676V49.9328L65.1909 49.914V38.6469L64.2676 38.6281V37.9686H73.4433ZM74.0748 38.1382L76.4865 37.5918V39.7397L74.0748 40.0977V38.1382ZM76.6749 49.9894L77.372 50.0459V50.5923H73.3212V50.0459L74.0183 49.9894L73.9618 43.2819L73.2458 43.4326L73.0574 42.8862L76.4677 41.8311L76.7314 42.2833L76.6749 49.9894ZM81.7147 44.695L81.6393 49.9894L83.3162 50.0459V50.5923H78.2855V50.0459L78.9827 49.9894L78.9261 43.2442L78.2102 43.4138L78.0218 42.8485L80.9987 41.9253L81.6393 43.9413C82.0538 43.0997 82.506 42.4466 82.9959 41.9818C83.2722 41.8813 83.6051 41.8311 83.9944 41.8311C84.522 41.8311 85.0182 41.9253 85.4829 42.1137L84.88 44.5631C84.5157 44.4877 84.051 44.4186 83.4857 44.3558C82.9205 44.293 82.4557 44.2491 82.0915 44.2239L81.7147 44.695ZM88.3016 43.5268C88.3016 43.866 88.4335 44.1737 88.6973 44.45C88.9736 44.7264 89.3881 45.053 89.9408 45.4298C90.6191 45.8945 91.1341 46.3153 91.4858 46.6921C91.8375 47.069 92.0133 47.5337 92.0133 48.0864C92.0133 48.5763 91.8689 49.0347 91.58 49.4618C91.2911 49.8889 90.8828 50.2343 90.3553 50.4981C89.8277 50.7493 89.2248 50.8749 88.5465 50.8749C87.8934 50.8749 87.2716 50.7179 86.6812 50.4039C86.1034 50.0899 85.6764 49.6879 85.4 49.198L87.0204 47.898C87.5228 48.84 88.0378 49.6125 88.5654 50.2155C88.7789 50.0522 88.9548 49.8638 89.0929 49.6502C89.2437 49.4241 89.319 49.2043 89.319 48.9908C89.319 48.6391 89.1871 48.3376 88.9234 48.0864C88.6721 47.8226 88.2765 47.5086 87.7364 47.1443C87.2967 46.8554 86.945 46.6042 86.6812 46.3907C86.4175 46.1771 86.1914 45.9197 86.003 45.6182C85.8271 45.3167 85.7392 44.9776 85.7392 44.6008C85.7392 44.136 85.8899 43.6901 86.1914 43.263C86.5054 42.836 86.9387 42.4905 87.4914 42.2268C88.0441 41.963 88.6721 41.8311 89.3755 41.8311C89.9157 41.8311 90.4244 41.9504 90.9017 42.1891C91.3916 42.4152 91.7872 42.7041 92.0887 43.0558L90.6191 44.5066C90.0161 43.7403 89.3504 43.0558 88.6219 42.4529C88.4084 42.7292 88.3016 43.0872 88.3016 43.5268ZM87.6798 50.5923H87.6987H87.6798ZM98.7164 49.1038L96.4178 50.7619C95.4883 50.7619 94.81 50.5358 94.3829 50.0836C93.9684 49.6188 93.7611 48.8777 93.7611 47.8603V42.8485H92.4988V42.2456C93.0263 41.9567 93.5979 41.5485 94.2133 41.0209C94.8414 40.4808 95.4129 39.9156 95.9279 39.3252L96.5496 39.5136L96.4554 42.1137H98.6599V42.905L96.4178 42.8674V47.2009C96.4178 47.8038 96.5308 48.2434 96.7569 48.5197C96.9956 48.7961 97.3096 48.9343 97.699 48.9343L98.3961 48.5386L98.7164 49.1038Z" fill="black"/>
<path d="M63.5894 52.4764H98.7164V53.4185H63.5894V52.4764Z" fill="black"/>
</g>
<g filter="url(#filter3_d_148_1442)">
<path d="M81.1727 62.7453V63.4047L80.3249 63.4236V69.2832H79.7219L78.3465 68.3411C77.8567 68.7305 77.3228 69.032 76.745 69.2455C76.1798 69.4591 75.602 69.5658 75.0116 69.5658C73.9063 69.5658 72.9328 69.3146 72.0912 68.8122C71.2497 68.2972 70.5965 67.5812 70.1317 66.6643C69.667 65.7348 69.4346 64.6608 69.4346 63.4424C69.4346 62.2868 69.6419 61.194 70.0564 60.164C70.4834 59.134 71.0236 58.3113 71.6767 57.6958C72.3173 57.2813 73.0019 56.9673 73.7304 56.7538C74.4715 56.5277 75.2 56.4146 75.916 56.4146C76.8706 56.4146 77.7436 56.6219 78.5349 57.0364C79.3388 57.4383 79.9732 58.0036 80.4379 58.7321L78.1204 60.6727C77.4296 59.5046 76.6445 58.2611 75.7653 56.9422C74.8986 57.319 74.1889 58.0161 73.6362 59.0336C73.0835 60.051 72.8072 61.2066 72.8072 62.5003C72.8072 64.0956 73.1652 65.3517 73.8812 66.2686C74.6097 67.173 75.602 67.6252 76.8581 67.6252C77.059 67.6252 77.2098 67.6189 77.3103 67.6063V63.4236L76.387 63.4047V62.7453H81.1727ZM91.3872 68.0208L88.7683 69.5093C88.3663 69.2958 88.0711 69.0069 87.8827 68.6426C87.6943 68.2658 87.6001 67.7885 87.6001 67.2107L85.9797 69.5658C84.799 69.5658 83.926 69.2832 83.3608 68.718C82.7956 68.1402 82.513 67.2546 82.513 66.0613V61.4076L81.8158 61.351V60.8046H85.1696V65.3077C85.1696 65.8729 85.314 66.3126 85.6029 66.6266C85.9044 66.928 86.3 67.0851 86.7899 67.0976L87.6001 66.344V61.4076L86.9218 61.351V60.8046H90.2567V66.1179C90.2567 66.5826 90.2818 66.928 90.3321 67.1541C90.3949 67.3802 90.4891 67.5749 90.6147 67.7382L91.1799 67.4556L91.3872 68.0208ZM92.7524 56.8291L95.1641 56.2827V58.4306L92.7524 58.7886V56.8291ZM95.3525 68.6803L96.0497 68.7368V69.2832H91.9988V68.7368L92.6959 68.6803L92.6394 61.9728L91.9234 62.1235L91.735 61.5771L95.1453 60.522L95.4091 60.9742L95.3525 68.6803ZM102.766 67.7947L100.468 69.4528C99.5381 69.4528 98.8599 69.2267 98.4328 68.7745C98.0183 68.3097 97.811 67.5686 97.811 66.5512V61.5394H96.5487V60.9365C97.0762 60.6476 97.6477 60.2394 98.2632 59.7118C98.8913 59.1717 99.4628 58.6065 99.9778 58.0161L100.6 58.2045L100.505 60.8046H102.71V61.596L100.468 61.5583V65.8918C100.468 66.4947 100.581 66.9343 100.807 67.2107C101.045 67.487 101.359 67.6252 101.749 67.6252L102.446 67.2295L102.766 67.7947ZM110.828 68.3035L108.059 69.6035C107.719 69.3648 107.487 69.0383 107.361 68.6238C106.909 68.9001 106.451 69.1262 105.986 69.302C105.534 69.4779 105.138 69.5658 104.799 69.5658C104.284 69.5658 103.863 69.3837 103.537 69.0194C103.21 68.6552 103.047 68.1904 103.047 67.6252C103.047 67.374 103.072 67.1039 103.122 66.815C103.185 66.5135 103.26 66.2749 103.348 66.099L107.343 65.4584L107.38 64.912C107.405 64.3468 107.286 63.9072 107.022 63.5931C106.759 63.2666 106.332 63.1033 105.741 63.1033C105.477 63.1033 105.201 63.1347 104.912 63.1975C104.623 63.2477 104.378 63.3168 104.177 63.4047L103.876 64.0453L103.367 63.8569L104.234 61.1438C105.201 60.7293 106.118 60.522 106.985 60.522C107.876 60.522 108.605 60.7607 109.17 61.238C109.735 61.7027 110.018 62.4375 110.018 63.4424L109.999 63.8192L109.811 66.3628L109.773 67.0411C109.773 67.2672 109.792 67.4493 109.83 67.5875C109.867 67.7131 109.93 67.845 110.018 67.9832L110.602 67.7571L110.828 68.3035ZM106.551 68.2093C106.752 68.2093 106.985 68.1339 107.248 67.9832L107.23 67.5875L107.248 67.173L107.305 66.099L105.854 66.4382C105.804 66.6015 105.779 66.8213 105.779 67.0976C105.779 67.4744 105.854 67.7571 106.005 67.9455C106.156 68.1213 106.338 68.2093 106.551 68.2093ZM114.634 63.3859L114.558 68.6803L116.235 68.7368V69.2832H111.205V68.7368L111.902 68.6803L111.845 61.9351L111.129 62.1047L110.941 61.5394L113.918 60.6162L114.558 62.6322C114.973 61.7907 115.425 61.1375 115.915 60.6727C116.191 60.5723 116.524 60.522 116.913 60.522C117.441 60.522 117.937 60.6162 118.402 60.8046L117.799 63.254C117.435 63.1786 116.97 63.1095 116.405 63.0467C115.839 62.9839 115.375 62.94 115.01 62.9149L114.634 63.3859Z" fill="black"/>
<path d="M68.9824 71.1673H81.4365V72.1094H68.9824V71.1673Z" fill="black"/>
<path d="M81.439 71.1673H118.025V72.1094H81.439V71.1673Z" fill="black"/>
</g>
<defs>
<filter id="filter0_d_148_1442" x="6.51123" y="26.3423" width="67.6354" height="72.8825" filterUnits="userSpaceOnUse" color-interpolation-filters="sRGB">
<feFlood flood-opacity="0" result="BackgroundImageFix"/>
<feColorMatrix in="SourceAlpha" type="matrix" values="0 0 0 0 0 0 0 0 0 0 0 0 0 0 0 0 0 0 127 0" result="hardAlpha"/>
<feOffset dx="10.9686" dy="10.9686"/>
<feGaussianBlur stdDeviation="3.42767"/>
<feComposite in2="hardAlpha" operator="out"/>
<feColorMatrix type="matrix" values="0 0 0 0 0 0 0 0 0 0 0 0 0 0 0 0 0 0 0.85 0"/>
<feBlend mode="normal" in2="BackgroundImageFix" result="effect1_dropShadow_148_1442"/>
<feBlend mode="normal" in="SourceGraphic" in2="effect1_dropShadow_148_1442" result="shape"/>
</filter>
<filter id="filter1_d_148_1442" x="55.5376" y="19.2778" width="38.0507" height="28.3831" filterUnits="userSpaceOnUse" color-interpolation-filters="sRGB">
<feFlood flood-opacity="0" result="BackgroundImageFix"/>
<feColorMatrix in="SourceAlpha" type="matrix" values="0 0 0 0 0 0 0 0 0 0 0 0 0 0 0 0 0 0 127 0" result="hardAlpha"/>
<feOffset dx="6.72902" dy="5.38322"/>
<feGaussianBlur stdDeviation="2.69161"/>
<feComposite in2="hardAlpha" operator="out"/>
<feColorMatrix type="matrix" values="0 0 0 0 0.233333 0 0 0 0 0.233333 0 0 0 0 0.233333 0 0 0 0.35 0"/>
<feBlend mode="normal" in2="BackgroundImageFix" result="effect1_dropShadow_148_1442"/>
<feBlend mode="normal" in="SourceGraphic" in2="effect1_dropShadow_148_1442" result="shape"/>
</filter>
<filter id="filter2_d_148_1442" x="64.2676" y="37.5918" width="46.561" height="24.0496" filterUnits="userSpaceOnUse" color-interpolation-filters="sRGB">
<feFlood flood-opacity="0" result="BackgroundImageFix"/>
<feColorMatrix in="SourceAlpha" type="matrix" values="0 0 0 0 0 0 0 0 0 0 0 0 0 0 0 0 0 0 127 0" result="hardAlpha"/>
<feOffset dx="6.72902" dy="5.38322"/>
<feGaussianBlur stdDeviation="2.69161"/>
<feComposite in2="hardAlpha" operator="out"/>
<feColorMatrix type="matrix" values="0 0 0 0 0.233333 0 0 0 0 0.233333 0 0 0 0 0.233333 0 0 0 0.35 0"/>
<feBlend mode="normal" in2="BackgroundImageFix" result="effect1_dropShadow_148_1442"/>
<feBlend mode="normal" in="SourceGraphic" in2="effect1_dropShadow_148_1442" result="shape"/>
</filter>
<filter id="filter3_d_148_1442" x="69.4346" y="56.2827" width="61.0795" height="24.0872" filterUnits="userSpaceOnUse" color-interpolation-filters="sRGB">
<feFlood flood-opacity="0" result="BackgroundImageFix"/>
<feColorMatrix in="SourceAlpha" type="matrix" values="0 0 0 0 0 0 0 0 0 0 0 0 0 0 0 0 0 0 127 0" result="hardAlpha"/>
<feOffset dx="6.72902" dy="5.38322"/>
<feGaussianBlur stdDeviation="2.69161"/>
<feComposite in2="hardAlpha" operator="out"/>
<feColorMatrix type="matrix" values="0 0 0 0 0.233333 0 0 0 0 0.233333 0 0 0 0 0.233333 0 0 0 0.35 0"/>
<feBlend mode="normal" in2="BackgroundImageFix" result="effect1_dropShadow_148_1442"/>
<feBlend mode="normal" in="SourceGraphic" in2="effect1_dropShadow_148_1442" result="shape"/>
</filter>
<radialGradient id="paint0_radial_148_1442" cx="0" cy="0" r="1" gradientUnits="userSpaceOnUse" gradientTransform="translate(33.6959 50.9171) rotate(115.719) scale(23.8167 20.6981)">
<stop offset="0.447917" stop-color="#B56820"/>
<stop offset="0.848958" stop-color="#692415"/>
</radialGradient>
<linearGradient id="paint1_linear_148_1442" x1="34.5523" y1="53.3757" x2="48.0274" y2="50.1087" gradientUnits="userSpaceOnUse">
<stop offset="0.375" stop-color="#141313"/>
<stop offset="0.885417" stop-color="#4E4747"/>
</linearGradient>
<linearGradient id="paint2_linear_148_1442" x1="57.5695" y1="1.41548" x2="53.9613" y2="9.05692" gradientUnits="userSpaceOnUse">
<stop offset="0.244792" stop-color="#5E5E5E"/>
<stop offset="0.619792"/>
</linearGradient>
<radialGradient id="paint3_radial_148_1442" cx="0" cy="0" r="1" gradientUnits="userSpaceOnUse" gradientTransform="translate(29.7082 58.8221) rotate(115.719) scale(1.60886 9.22862)">
<stop offset="0.015625" stop-color="#3C1A0C" stop-opacity="0.57"/>
<stop offset="1" stop-color="#3C1A0C"/>
</radialGradient>
<linearGradient id="paint4_linear_148_1442" x1="0.323347" y1="0" x2="0.323347" y2="1.28665" gradientUnits="userSpaceOnUse">
<stop stop-color="#D9D9D9"/>
<stop offset="0.463542" stop-color="#605E5E"/>
</linearGradient>
<linearGradient id="paint5_linear_148_1442" x1="0.323347" y1="0" x2="0.323347" y2="1.28665" gradientUnits="userSpaceOnUse">
<stop stop-color="#D9D9D9"/>
<stop offset="0.463542" stop-color="#605E5E"/>
</linearGradient>
<linearGradient id="paint6_linear_148_1442" x1="0.323347" y1="0" x2="0.323347" y2="1.28665" gradientUnits="userSpaceOnUse">
<stop stop-color="#D9D9D9"/>
<stop offset="0.463542" stop-color="#605E5E"/>
</linearGradient>
<linearGradient id="paint7_linear_148_1442" x1="0.323347" y1="0" x2="0.323347" y2="1.28665" gradientUnits="userSpaceOnUse">
<stop stop-color="#D9D9D9"/>
<stop offset="0.463542" stop-color="#605E5E"/>
</linearGradient>
<linearGradient id="paint8_linear_148_1442" x1="0.323347" y1="0" x2="0.323347" y2="1.28665" gradientUnits="userSpaceOnUse">
<stop stop-color="#D9D9D9"/>
<stop offset="0.463542" stop-color="#605E5E"/>
</linearGradient>
<linearGradient id="paint9_linear_148_1442" x1="0.323347" y1="0" x2="0.323347" y2="1.28665" gradientUnits="userSpaceOnUse">
<stop stop-color="#D9D9D9"/>
<stop offset="0.463542" stop-color="#605E5E"/>
</linearGradient>
</defs>
</svg>
