<svg width="167" height="128" viewBox="0 0 167 128" fill="none" xmlns="http://www.w3.org/2000/svg">
<g filter="url(#filter0_d_148_15)">
<path fill-rule="evenodd" clip-rule="evenodd" d="M65.7479 74.9973C65.5374 69.2241 65.3132 63.0705 68.0171 60.3424C77.375 50.9007 69.7195 47.0461 60.5555 42.6751C59.4115 42.1294 58.4052 41.6374 57.5172 41.2032C56.0038 40.4631 54.834 39.8911 53.9116 39.5081C53.304 39.2152 52.6345 38.8971 51.8994 38.5479C51.4582 38.3382 50.9932 38.1173 50.5038 37.8838C41.3308 33.5085 33.7097 29.8735 32.2653 43.0895C31.8479 46.9082 26.922 50.6052 22.3005 54.0737C20.696 55.2779 19.1282 56.4546 17.7985 57.5993C15.2053 59.7679 13.0258 62.5156 11.4753 65.7662C5.88729 77.4818 10.5178 91.4354 21.7988 97.5512C22.284 97.9213 23.3696 98.525 24.4987 99.1528C25.1819 99.5327 25.881 99.9215 26.4727 100.273C27.1256 100.52 27.8329 100.805 28.5153 101.08C29.6772 101.548 30.7671 101.987 31.3941 102.161C43.437 107.717 57.744 102.572 63.4706 90.566C64.6071 88.1831 65.321 85.7078 65.6421 83.2246C65.965 80.9541 65.8583 78.0281 65.7479 74.9973Z" fill="url(#paint0_radial_148_15)"/>
<rect opacity="0.67" x="43.2909" y="54.4994" width="10.287" height="5.34921" rx="1.7421" transform="rotate(25.5 43.2909 54.4994)" fill="#D9D9D9"/>
<path d="M43.931 59.6587C44.0233 59.7027 44.1214 59.7263 44.2253 59.7296C44.3293 59.7328 44.4349 59.7163 44.5423 59.68L44.5806 59.8102C44.1667 60.0143 43.7931 60.0368 43.4598 59.8778C43.269 59.7868 43.1228 59.6643 43.0212 59.5104C42.9218 59.3574 42.8708 59.1838 42.8682 58.9896C42.8656 58.7954 42.9148 58.5924 43.0158 58.3806C43.1028 58.1982 43.2214 58.0386 43.3716 57.9018C43.5249 57.7639 43.6805 57.6695 43.8385 57.6188C43.9785 57.6006 44.1177 57.6027 44.2563 57.6251C44.398 57.6463 44.5286 57.6855 44.6481 57.7425C44.8075 57.8185 44.9367 57.9226 45.0358 58.0547C45.1379 58.1858 45.1988 58.3307 45.2184 58.4893L44.6771 58.6287C44.66 58.3838 44.6285 58.1127 44.5825 57.8154C44.4722 57.8091 44.3574 57.8341 44.2379 57.8904C44.1184 57.9466 44.0062 58.0282 43.9011 58.1351C43.7982 58.2429 43.7137 58.3661 43.6477 58.5044C43.5217 58.7686 43.4829 59.001 43.5313 59.2017C43.5819 59.4033 43.7151 59.5557 43.931 59.6587ZM45.8696 59.1743C46.0793 59.2743 46.2185 59.4167 46.2874 59.6014C46.3563 59.7861 46.3363 59.9927 46.2273 60.2212C46.1803 60.3197 46.1139 60.4129 46.0283 60.5008C45.9448 60.5896 45.8504 60.6578 45.7454 60.7055C45.6473 60.7385 45.5436 60.7534 45.4345 60.7502C45.3284 60.746 45.2261 60.7203 45.1276 60.6733C44.918 60.5733 44.7787 60.431 44.7098 60.2463C44.6409 60.0616 44.661 59.855 44.77 59.6265C44.816 59.53 44.8818 59.4379 44.9674 59.3501C45.0531 59.2623 45.1484 59.1945 45.2535 59.1468C45.3516 59.1138 45.4542 59.0984 45.5612 59.1006C45.6704 59.1038 45.7732 59.1283 45.8696 59.1743ZM45.2948 59.6915C45.1998 59.8907 45.1676 60.0581 45.1982 60.1936C45.2308 60.3301 45.3192 60.4443 45.4632 60.5362C45.5079 60.4803 45.5529 60.4156 45.5983 60.342C45.6437 60.2684 45.6784 60.2065 45.7024 60.1562C45.7984 59.9549 45.8296 59.787 45.7959 59.6526C45.7653 59.5171 45.6791 59.4039 45.5371 59.313C45.4914 59.371 45.4449 59.4363 45.3974 59.5088C45.352 59.5824 45.3178 59.6433 45.2948 59.6915ZM47.0146 60.3072L46.5805 61.1849L46.8559 61.3278L46.8124 61.419L45.9727 61.0185L46.0162 60.9273L46.1371 60.9734L46.6647 59.8431L46.5317 59.8144L46.5452 59.705L47.1156 59.7879L47.062 60.1754C47.1982 60.068 47.3257 59.9949 47.4444 59.9564C47.4986 59.9616 47.5581 59.9797 47.6231 60.0107C47.7112 60.0527 47.7865 60.1079 47.849 60.1764L47.5534 60.5372C47.4986 60.4956 47.4265 60.4471 47.3372 60.3916C47.2479 60.3361 47.1738 60.2918 47.115 60.2586L47.0146 60.3072ZM48.2913 61.8195L47.7757 61.9132C47.6205 61.8392 47.5253 61.7475 47.49 61.638C47.4579 61.5275 47.4823 61.3873 47.5633 61.2175L47.9623 60.3809L47.7516 60.2804L47.7996 60.1798C47.9106 60.1736 48.0385 60.1509 48.1832 60.1119C48.3311 60.0717 48.4714 60.0229 48.6044 59.9654L48.6932 60.0463L48.4705 60.4728L48.8384 60.6483L48.7754 60.7804L48.4042 60.5956L48.0592 61.3189C48.0112 61.4195 47.995 61.5019 48.0108 61.566C48.0286 61.6311 48.07 61.6792 48.135 61.7102L48.2829 61.6997L48.2913 61.8195Z" fill="black"/>
<path fill-rule="evenodd" clip-rule="evenodd" d="M56.2364 55.1842C56.5293 55.8077 56.7636 56.4703 56.9307 57.1665C58.257 62.6908 54.8538 68.2443 49.3294 69.5706C48.0228 69.8843 46.7146 69.9334 45.461 69.7525C44.8244 75.737 50.1352 77.7325 55.3525 76.4799C60.8768 75.1536 62.579 67.7227 61.2527 62.1983C60.4348 58.7917 58.7236 56.2904 56.2364 55.1842Z" fill="url(#paint1_linear_148_15)"/>
</g>
<circle cx="46.5076" cy="59.2253" r="8.64104" transform="rotate(25.5 46.5076 59.2253)" fill="black" fill-opacity="0.5"/>
<path fill-rule="evenodd" clip-rule="evenodd" d="M41.5392 69.1641C47.1799 71.8546 53.8939 69.5461 56.5355 64.008C59.177 58.4699 56.7458 51.7993 51.1051 49.1088C45.4644 46.4184 38.7504 48.7268 36.1088 54.2649C33.4673 59.8031 35.8985 66.4736 41.5392 69.1641ZM41.7191 68.7856C47.1469 71.3745 53.6076 69.1532 56.1494 63.8241C58.6913 58.4949 56.3518 52.0761 50.924 49.4871C45.4962 46.8982 39.0355 49.1196 36.4936 54.4487C33.9517 59.7778 36.2913 66.1967 41.7191 68.7856Z" fill="#723F29"/>
<path fill-rule="evenodd" clip-rule="evenodd" d="M42.4331 67.7671C47.1508 70.0173 52.7993 68.0171 55.0495 63.2994C57.2997 58.5818 55.2995 52.9332 50.5818 50.683C45.8642 48.4328 40.2156 50.4331 37.9654 55.1507C35.7152 59.8684 37.7155 65.5169 42.4331 67.7671ZM42.5866 67.4447C47.1262 69.61 52.5616 67.6852 54.7269 63.1456C56.8922 58.606 54.9674 53.1705 50.4278 51.0052C45.8882 48.84 40.4528 50.7647 38.2875 55.3044C36.1222 59.844 38.047 65.2794 42.5866 67.4447Z" fill="#723F29"/>
<path fill-rule="evenodd" clip-rule="evenodd" d="M42.079 68.5096C47.2068 70.9555 53.3466 68.7813 55.7925 63.6534C58.2383 58.5256 56.0641 52.3858 50.9362 49.9399C45.8084 47.4941 39.6686 49.6683 37.2228 54.7961C34.7769 59.924 36.9511 66.0638 42.079 68.5096ZM42.2459 68.1587C47.1803 70.5123 53.0884 68.4202 55.4419 63.4858C57.7955 58.5514 55.7034 52.6434 50.769 50.2898C45.8346 47.9362 39.9266 50.0284 37.573 54.9627C35.2194 59.8971 37.3115 65.8052 42.2459 68.1587Z" fill="#723F29"/>
<rect x="66.5826" y="10.4456" width="5.76069" height="44.8511" transform="rotate(25.5 66.5826 10.4456)" fill="#723F29"/>
<path d="M71.7819 12.9261L66.5824 10.4461C66.5824 10.4461 67.2024 9.14622 66.5724 8.55558C65.9423 7.96494 70.6054 -0.855787 70.4454 0.435549C70.2854 1.72689 76.042 4.47261 77.1305 3.62417C78.219 2.77574 74.113 11.8621 73.2575 11.7442C72.402 11.6262 71.7819 12.9261 71.7819 12.9261Z" fill="url(#paint2_linear_148_15)"/>
<path d="M71.7819 12.9261L66.5824 10.4461C66.5824 10.4461 67.2024 9.14622 66.5724 8.55558C65.9423 7.96494 70.6054 -0.855787 70.4454 0.435549C70.2854 1.72689 76.042 4.47261 77.1305 3.62417C78.219 2.77574 74.113 11.8621 73.2575 11.7442C72.402 11.6262 71.7819 12.9261 71.7819 12.9261Z" stroke="#A8A7A7"/>
<path d="M28.8288 68.5721L49.9982 78.6695L48.5639 80.7207L43.6102 78.6618L40.8837 78.4468L39.6043 78.0536L37.8127 77.4162L36.1899 76.425L34.9085 75.5967L33.623 73.8982L28.1373 70.9777L28.8288 68.5721Z" fill="url(#paint3_radial_148_15)"/>
<path d="M28.8288 68.5721L49.9982 78.6695L48.5639 80.7207L43.6102 78.6618L40.8837 78.4468L39.6043 78.0536L37.8127 77.4162L36.1899 76.425L34.9085 75.5967L33.623 73.8982L28.1373 70.9777L28.8288 68.5721Z" stroke="black"/>
<rect x="36.079" y="72.4867" width="7.4066" height="0.411478" transform="rotate(25.5 36.079 72.4867)" fill="#D9D9D9"/>
<rect x="66.7599" y="10.075" width="5.76069" height="0.411478" transform="rotate(25.5 66.7599 10.075)" fill="#D9D9D9"/>
<circle cx="64.3996" cy="21.7139" r="0.411478" transform="rotate(25.5 64.3996 21.7139)" fill="#D9D9D9"/>
<circle cx="62.2738" cy="26.1707" r="0.411478" transform="rotate(25.5 62.2738 26.1707)" fill="#D9D9D9"/>
<circle cx="60.1483" cy="30.6275" r="0.411478" transform="rotate(25.5 60.1483 30.6275)" fill="#D9D9D9"/>
<circle cx="58.0735" cy="37.8442" r="0.411478" transform="rotate(25.5 58.0735 37.8442)" fill="#D9D9D9"/>
<circle cx="54.302" cy="42.8833" r="0.411478" transform="rotate(25.5 54.302 42.8833)" fill="#D9D9D9"/>
<circle cx="52.8849" cy="45.8552" r="0.411478" transform="rotate(25.5 52.8849 45.8552)" fill="#D9D9D9"/>
<circle cx="55.8451" cy="36.781" r="0.411478" transform="rotate(25.5 55.8451 36.781)" fill="#D9D9D9"/>
<path d="M72.3709 5.00112L72.0282 6.54726L71.3849 6.24044L72.3709 5.00112Z" fill="#D9D9D9"/>
<path d="M70.7765 8.34341L71.7624 7.10409L71.1191 6.79727L70.7765 8.34341Z" fill="#D9D9D9"/>
<path d="M71.2023 6.49543L71.5576 6.46747L71.4042 6.78911L71.2023 6.49543Z" fill="#D9D9D9"/>
<path d="M71.945 6.84988L71.5897 6.87784L71.7431 6.5562L71.945 6.84988Z" fill="#D9D9D9"/>
<path d="M71.6059 4.30544C71.652 4.32744 71.7011 4.33926 71.753 4.34089C71.805 4.34252 71.8579 4.33426 71.9115 4.31612L71.9307 4.38122C71.7237 4.48325 71.5369 4.49452 71.3703 4.41502C71.2749 4.36952 71.2018 4.30828 71.151 4.2313C71.1013 4.15482 71.0758 4.06802 71.0745 3.9709C71.0732 3.87378 71.0978 3.77228 71.1483 3.66641C71.1918 3.57521 71.2511 3.49541 71.3262 3.427C71.4028 3.35804 71.4806 3.31088 71.5597 3.28551C71.6296 3.27642 71.6992 3.27746 71.7685 3.28864C71.8394 3.29927 71.9047 3.31884 71.9644 3.34734C72.0441 3.38534 72.1087 3.43738 72.1583 3.50348C72.2093 3.56902 72.2398 3.64144 72.2496 3.72074L71.9789 3.79045C71.9704 3.66801 71.9546 3.53246 71.9316 3.38379C71.8765 3.38066 71.8191 3.39316 71.7593 3.42128C71.6996 3.44941 71.6435 3.49019 71.5909 3.54363C71.5395 3.59758 71.4972 3.65914 71.4643 3.72833C71.4013 3.86041 71.3819 3.97662 71.4061 4.07695C71.4313 4.17778 71.4979 4.25394 71.6059 4.30544ZM72.5752 4.06328C72.68 4.11328 72.7497 4.18445 72.7841 4.2768C72.8185 4.36914 72.8085 4.47245 72.754 4.58671C72.7305 4.63598 72.6974 4.68257 72.6545 4.72648C72.6128 4.77089 72.5656 4.80502 72.5131 4.82885C72.464 4.84535 72.4122 4.85281 72.3576 4.85122C72.3046 4.84909 72.2535 4.83628 72.2042 4.81278C72.0994 4.76278 72.0297 4.6916 71.9953 4.59926C71.9608 4.50691 71.9709 4.4036 72.0254 4.28934C72.0484 4.24112 72.0813 4.19506 72.1241 4.15114C72.1669 4.10723 72.2146 4.07336 72.2671 4.04952C72.3162 4.03303 72.3675 4.02532 72.421 4.0264C72.4756 4.02799 72.527 4.04028 72.5752 4.06328ZM72.2878 4.32187C72.2403 4.42145 72.2242 4.50513 72.2395 4.5729C72.2558 4.64117 72.3 4.69827 72.372 4.7442C72.3943 4.71625 72.4169 4.68389 72.4395 4.6471C72.4622 4.61032 72.4796 4.57934 72.4916 4.55419C72.5396 4.45355 72.5552 4.36963 72.5383 4.30241C72.523 4.23464 72.4799 4.17804 72.4089 4.1326C72.3861 4.1616 72.3628 4.19424 72.3391 4.23052C72.3164 4.26731 72.2993 4.29776 72.2878 4.32187ZM73.1477 4.62972L72.9306 5.06856L73.0683 5.14003L73.0466 5.18563L72.6268 4.98538L72.6485 4.93978L72.7089 4.96281L72.9727 4.39764L72.9062 4.3833L72.913 4.32862L73.1982 4.37008L73.1714 4.56382C73.2395 4.51009 73.3032 4.47358 73.3626 4.45429C73.3897 4.45691 73.4194 4.46596 73.4519 4.48146C73.496 4.50246 73.5336 4.53007 73.5649 4.5643L73.4171 4.74471C73.3897 4.72392 73.3537 4.69966 73.309 4.67191C73.2643 4.64417 73.2273 4.622 73.1979 4.60541L73.1477 4.62972ZM73.7861 5.38586L73.5282 5.43273C73.4506 5.39573 73.403 5.34986 73.3854 5.29512C73.3693 5.23984 73.3815 5.16974 73.422 5.08483L73.6215 4.66657L73.5162 4.61632L73.5402 4.56601C73.5957 4.5629 73.6596 4.55158 73.732 4.53205C73.8059 4.51197 73.8761 4.48755 73.9426 4.45878L73.987 4.49926L73.8756 4.7125L74.0596 4.80025L74.0281 4.86629L73.8425 4.77389L73.67 5.13555C73.646 5.18586 73.6379 5.22705 73.6458 5.25911C73.6547 5.29167 73.6754 5.31571 73.7079 5.33121L73.7818 5.32593L73.7861 5.38586Z" fill="white"/>
<rect x="68.251" y="1.21277" width="0.822956" height="1.64591" rx="0.411478" transform="rotate(25.5 68.251 1.21277)" fill="url(#paint4_linear_148_15)"/>
<rect x="67.3654" y="3.07019" width="0.822956" height="1.64591" rx="0.411478" transform="rotate(25.5 67.3654 3.07019)" fill="url(#paint5_linear_148_15)"/>
<rect x="66.4797" y="4.92664" width="0.822956" height="1.64591" rx="0.411478" transform="rotate(25.5 66.4797 4.92664)" fill="url(#paint6_linear_148_15)"/>
<rect x="77.1649" y="5.46472" width="0.822956" height="1.64591" rx="0.411478" transform="rotate(25.5 77.1649 5.46472)" fill="url(#paint7_linear_148_15)"/>
<rect x="76.2787" y="7.32117" width="0.822956" height="1.64591" rx="0.411478" transform="rotate(25.5 76.2787 7.32117)" fill="url(#paint8_linear_148_15)"/>
<rect x="75.3929" y="9.17859" width="0.822956" height="1.64591" rx="0.411478" transform="rotate(25.5 75.3929 9.17859)" fill="url(#paint9_linear_148_15)"/>
<path d="M76.4389 6.03003L77.1817 6.38432" stroke="black" stroke-width="0.34842"/>
<path d="M75.5535 7.88745L76.2963 8.24174" stroke="black" stroke-width="0.34842"/>
<path d="M74.6672 9.7439L75.41 10.0982" stroke="black" stroke-width="0.34842"/>
<path d="M68.2682 2.13245L69.011 2.48674" stroke="black" stroke-width="0.34842"/>
<path d="M67.3825 3.98987L68.1252 4.34416" stroke="black" stroke-width="0.34842"/>
<path d="M66.4967 5.84631L67.2395 6.20061" stroke="black" stroke-width="0.34842"/>
<circle cx="70.1251" cy="3.01839" r="0.411478" transform="rotate(25.5 70.1251 3.01839)" fill="#D9D9D9"/>
<circle cx="75.3246" cy="5.49825" r="0.411478" transform="rotate(25.5 75.3246 5.49825)" fill="#D9D9D9"/>
<circle cx="74.4388" cy="7.35567" r="0.411478" transform="rotate(25.5 74.4388 7.35567)" fill="#D9D9D9"/>
<path d="M73.9245 9.38926C73.8267 9.59438 73.5811 9.68134 73.376 9.58351C73.1709 9.48567 73.0839 9.24008 73.1817 9.03497C73.2796 8.82985 73.5252 8.74289 73.7303 8.84072C73.9354 8.93856 74.0223 9.18414 73.9245 9.38926Z" fill="#D9D9D9"/>
<circle cx="69.2394" cy="4.87581" r="0.411478" transform="rotate(25.5 69.2394 4.87581)" fill="#D9D9D9"/>
<circle cx="68.3537" cy="6.73213" r="0.411478" transform="rotate(25.5 68.3537 6.73213)" fill="#D9D9D9"/>
<path d="M65.5197 12.6744C69.5494 14.5965 70.6651 15.1286 70.7193 15.1545" stroke="#C9C9C9" stroke-width="0.34842"/>
<path d="M64.4567 14.9032C68.4864 16.8252 69.6021 17.3574 69.6563 17.3832" stroke="#C9C9C9" stroke-width="0.34842"/>
<path d="M63.394 17.1311C67.4236 19.0531 68.5393 19.5853 68.5935 19.6111" stroke="#C9C9C9" stroke-width="0.34842"/>
<path d="M62.3309 19.359C66.3606 21.281 67.4763 21.8132 67.5305 21.8391" stroke="#C9C9C9" stroke-width="0.34842"/>
<path d="M61.2684 21.5879C65.2981 23.5099 66.4138 24.0421 66.4679 24.0679" stroke="#C9C9C9" stroke-width="0.34842"/>
<path d="M60.2054 23.8158C64.8107 26.0124 65.343 26.2663 65.4049 26.2958" stroke="#C9C9C9" stroke-width="0.34842"/>
<path d="M59.1426 26.0447C63.1723 27.9667 64.288 28.4989 64.3422 28.5247" stroke="#C9C9C9" stroke-width="0.34842"/>
<path d="M58.0796 28.2726C62.1092 30.1946 63.225 30.7268 63.2791 30.7526" stroke="#C9C9C9" stroke-width="0.34842"/>
<path d="M57.0168 30.5015C61.0465 32.4235 62.1622 32.9557 62.2163 32.9815" stroke="#C9C9C9" stroke-width="0.34842"/>
<path d="M55.9538 32.7292C59.9834 34.6513 61.0992 35.1835 61.1533 35.2093" stroke="#C9C9C9" stroke-width="0.34842"/>
<path d="M54.891 34.9581C58.9207 36.8802 60.0364 37.4123 60.0906 37.4382" stroke="#C9C9C9" stroke-width="0.34842"/>
<path d="M53.828 37.186C57.8576 39.1081 58.9734 39.6402 59.0275 39.6661" stroke="#C9C9C9" stroke-width="0.34842"/>
<path d="M52.942 39.0435C56.9716 40.9655 58.0874 41.4977 58.1415 41.5235" stroke="#C9C9C9" stroke-width="0.34842"/>
<path d="M52.0565 40.8999C56.0862 42.8219 57.2019 43.3541 57.2561 43.3799" stroke="#C9C9C9" stroke-width="0.34842"/>
<path d="M51.3479 42.3857C55.3775 44.3078 56.4932 44.84 56.5474 44.8658" stroke="#C9C9C9" stroke-width="0.34842"/>
<path d="M50.6397 43.8717C54.6693 45.7937 55.785 46.3259 55.8392 46.3517" stroke="#C9C9C9" stroke-width="0.34842"/>
<path d="M49.931 45.3577C53.9606 47.2797 55.0764 47.8119 55.1305 47.8377" stroke="#C9C9C9" stroke-width="0.34842"/>
<path d="M49.3994 46.4711C53.429 48.3931 54.5447 48.9253 54.5989 48.9511" stroke="#C9C9C9" stroke-width="0.34842"/>
<path d="M48.868 47.5855C52.8976 49.5075 54.0133 50.0397 54.0675 50.0656" stroke="#C9C9C9" stroke-width="0.34842"/>
<path d="M48.1593 49.0715C52.1889 50.9935 53.3046 51.5257 53.3588 51.5515" stroke="#C9C9C9" stroke-width="0.34842"/>
<path d="M68.3477 6.74569C68.6257 6.80016 69.0541 7.17635 68.5442 8.24539C68.0343 9.31443 47.2667 52.8545 36.8561 74.6808" stroke="#BA5900" stroke-width="0.34842"/>
<path d="M73.5531 9.21257C73.3055 9.09447 72.7395 9.00683 72.4561 9.60106C72.1726 10.1953 50.8443 54.9111 40.5698 76.452" stroke="#8D8D8D" stroke-width="0.34842"/>
<path d="M74.4392 7.35604C73.944 7.11985 72.8828 6.79602 72.5993 7.39025C70.6862 11.4013 49.9542 54.8668 39.8274 76.0981" stroke="#656464" stroke-width="0.34842"/>
<path d="M69.2398 4.87603C69.794 4.98843 70.7962 5.43606 70.3711 6.32741C69.9459 7.21875 48.3459 52.5041 37.5991 75.0353" stroke="#BA5900" stroke-width="0.34842"/>
<path d="M70.1257 3.01916C70.8656 3.22013 72.2038 3.91918 71.6369 5.10764C71.07 6.29611 49.2041 52.4575 38.3421 75.3897" stroke="#BA5900" stroke-width="0.34842"/>
<path d="M75.3251 5.49908C74.7299 4.8353 73.3802 3.84198 72.7425 5.179C72.1047 6.51601 50.0383 52.7793 39.0847 75.7439" stroke="#BA5900" stroke-width="0.34842"/>
<circle cx="36.8559" cy="74.6799" r="0.411478" transform="rotate(25.5 36.8559 74.6799)" fill="black"/>
<circle cx="40.57" cy="76.451" r="0.411478" transform="rotate(25.5 40.57 76.451)" fill="black"/>
<circle cx="39.8273" cy="76.0975" r="0.411478" transform="rotate(25.5 39.8273 76.0975)" fill="black"/>
<circle cx="37.5992" cy="75.0343" r="0.411478" transform="rotate(25.5 37.5992 75.0343)" fill="black"/>
<circle cx="38.3419" cy="75.3887" r="0.411478" transform="rotate(25.5 38.3419 75.3887)" fill="black"/>
<circle cx="39.0846" cy="75.7431" r="0.411478" transform="rotate(25.5 39.0846 75.7431)" fill="black"/>
<circle cx="36.8512" cy="74.5038" r="0.205739" fill="#D9D9D9"/>
<circle cx="37.6743" cy="74.9154" r="0.205739" fill="#D9D9D9"/>
<circle cx="38.1773" cy="75.307" r="0.205739" fill="#D9D9D9"/>
<circle cx="39.0002" cy="75.7186" r="0.205739" fill="#D9D9D9"/>
<circle cx="39.7316" cy="76.1503" r="0.205739" fill="#D9D9D9"/>
<circle cx="40.5544" cy="76.561" r="0.205739" fill="#D9D9D9"/>
<g filter="url(#filter1_d_148_15)">
<path d="M92.4748 39.5423V40.3802H85.8434V39.5423L87.1362 39.5184L86.011 27.2372L81.3906 37.699H80.6484L75.6929 27.1654L75.238 39.5184L76.5308 39.5423V40.3802H71.2879V39.5423L72.2216 39.5184L74.5198 25.2023L73.2031 25.1783V24.3404H78.7093L82.5636 32.1688L85.8913 24.3404H90.8469V25.1783L89.5781 25.2023L91.5411 39.5184L92.4748 39.5423ZM104.245 29.6072V30.3733L103.551 30.3973L100.511 37.4596C99.6809 39.4226 98.819 41.2181 97.9253 42.8461C97.0475 44.474 96.2495 45.7667 95.5313 46.7244L92.7063 44.0431C94.6854 42.9099 96.4569 41.665 98.021 40.3084L96.7043 40.3802L93.0176 30.3973L92.3233 30.3733V29.6072H97.9971V30.3733L96.9916 30.3973L99.1701 37.7229L101.133 30.3973L100.128 30.3733V29.6072H104.245Z" fill="white"/>
<path d="M71.24 42.7743H103.886V43.9712H71.24V42.7743Z" fill="white"/>
</g>
<g filter="url(#filter2_d_148_15)">
<path d="M94.0204 48.281V53.0451L93.0867 53.0211L93.0389 51.8241C91.1396 50.6271 89.3122 49.6695 87.5566 48.9513V56.1812H92.0334V57.067H87.5566V63.459L90.1182 63.4829V64.3208H82.3616V63.4829L83.5347 63.459V49.1428L82.3616 49.1189V48.281H94.0204ZM94.8228 48.4965L97.8871 47.8022V50.5314L94.8228 50.9862V48.4965ZM98.1265 63.5547L99.0123 63.6265V64.3208H93.8652V63.6265L94.7509 63.5547L94.6791 55.0321L93.7694 55.2236L93.53 54.5293L97.8631 53.1887L98.1983 53.7633L98.1265 63.5547ZM104.53 56.8276L104.434 63.5547L106.565 63.6265V64.3208H100.173V63.6265L101.059 63.5547L100.987 54.9842L100.077 55.1997L99.8378 54.4815L103.62 53.3084L104.434 55.87C104.961 54.8007 105.536 53.9707 106.158 53.3802C106.509 53.2525 106.932 53.1887 107.427 53.1887C108.097 53.1887 108.728 53.3084 109.318 53.5478L108.552 56.66C108.089 56.5642 107.499 56.4765 106.78 56.3967C106.062 56.3169 105.472 56.261 105.009 56.2291L104.53 56.8276ZM112.9 55.3433C112.9 55.7742 113.067 56.1652 113.402 56.5164C113.753 56.8675 114.28 57.2824 114.982 57.7612C115.844 58.3518 116.498 58.8864 116.945 59.3652C117.392 59.844 117.616 60.4345 117.616 61.1368C117.616 61.7592 117.432 62.3418 117.065 62.8844C116.698 63.427 116.179 63.8659 115.509 64.2011C114.839 64.5203 114.073 64.6799 113.211 64.6799C112.381 64.6799 111.591 64.4804 110.841 64.0814C110.107 63.6824 109.564 63.1717 109.213 62.5492L111.272 60.8974C111.91 62.0944 112.564 63.0759 113.235 63.842C113.506 63.6345 113.729 63.3951 113.905 63.1238C114.097 62.8365 114.192 62.5572 114.192 62.2859C114.192 61.839 114.025 61.456 113.69 61.1368C113.37 60.8016 112.868 60.4026 112.181 59.9398C111.623 59.5727 111.176 59.2535 110.841 58.9822C110.506 58.7109 110.218 58.3837 109.979 58.0006C109.755 57.6176 109.644 57.1867 109.644 56.7079C109.644 56.1174 109.835 55.5508 110.218 55.0081C110.617 54.4655 111.168 54.0266 111.87 53.6914C112.572 53.3563 113.37 53.1887 114.264 53.1887C114.95 53.1887 115.597 53.3403 116.203 53.6436C116.826 53.9308 117.328 54.2979 117.711 54.7448L115.844 56.5882C115.078 55.6146 114.232 54.7448 113.306 53.9787C113.035 54.3298 112.9 54.7847 112.9 55.3433ZM112.109 64.3208H112.133H112.109ZM126.133 62.4295L123.212 64.5363C122.031 64.5363 121.169 64.249 120.627 63.6744C120.1 63.0839 119.837 62.1423 119.837 60.8495V54.4815H118.233V53.7154C118.903 53.3483 119.629 52.8296 120.411 52.1593C121.209 51.473 121.935 50.7548 122.59 50.0047L123.38 50.2441L123.26 53.5478H126.061V54.5533L123.212 54.5054V60.0116C123.212 60.7777 123.356 61.3363 123.643 61.6874C123.946 62.0385 124.345 62.2141 124.84 62.2141L125.726 61.7113L126.133 62.4295Z" fill="white"/>
<path d="M81.4998 66.7148H126.133V67.9118H81.4998V66.7148Z" fill="white"/>
</g>
<g filter="url(#filter3_d_148_15)">
<path d="M103.829 79.9531V80.791L102.752 80.815V88.2603H101.986L100.238 87.0633C99.6158 87.5581 98.9375 87.9411 98.2033 88.2124C97.4851 88.4838 96.7509 88.6194 96.0008 88.6194C94.5963 88.6194 93.3594 88.3002 92.2901 87.6618C91.2208 87.0075 90.3909 86.0977 89.8004 84.9327C89.2098 83.7516 88.9146 82.387 88.9146 80.8389C88.9146 79.3706 89.1779 77.9821 89.7046 76.6734C90.2472 75.3646 90.9335 74.3193 91.7634 73.5372C92.5774 73.0105 93.4472 72.6115 94.3729 72.3402C95.3145 72.0529 96.2402 71.9093 97.1499 71.9093C98.3629 71.9093 99.4721 72.1726 100.478 72.6993C101.499 73.21 102.305 73.9282 102.896 74.8539L99.9509 77.3197C99.0731 75.8355 98.0756 74.2554 96.9584 72.5796C95.8572 73.0584 94.9554 73.9442 94.2532 75.237C93.551 76.5297 93.1998 77.998 93.1998 79.6419C93.1998 81.6688 93.6547 83.2648 94.5644 84.4299C95.4901 85.579 96.7509 86.1536 98.3469 86.1536C98.6023 86.1536 98.7938 86.1456 98.9215 86.1297V80.815L97.7484 80.791V79.9531H103.829ZM116.808 86.6563L113.48 88.5476C112.969 88.2763 112.594 87.9092 112.355 87.4464C112.116 86.9676 111.996 86.3611 111.996 85.6269L109.937 88.6194C108.437 88.6194 107.328 88.2603 106.609 87.5421C105.891 86.808 105.532 85.6828 105.532 84.1666V78.2534L104.646 78.1816V77.4873H108.908V83.209C108.908 83.9272 109.091 84.4858 109.458 84.8848C109.841 85.2678 110.344 85.4673 110.966 85.4833L111.996 84.5257V78.2534L111.134 78.1816V77.4873H115.371V84.2384C115.371 84.8289 115.403 85.2678 115.467 85.5551C115.547 85.8424 115.667 86.0898 115.826 86.2972L116.545 85.9381L116.808 86.6563ZM118.543 72.436L121.607 71.7417V74.4709L118.543 74.9257V72.436ZM121.846 87.4942L122.732 87.5661V88.2603H117.585V87.5661L118.471 87.4942L118.399 78.9716L117.489 79.1631L117.25 78.4689L121.583 77.1282L121.918 77.7028L121.846 87.4942ZM131.266 86.3691L128.346 88.4758C127.165 88.4758 126.303 88.1885 125.76 87.6139C125.233 87.0234 124.97 86.0818 124.97 84.789V78.421H123.366V77.6549C124.036 77.2878 124.763 76.7691 125.545 76.0988C126.343 75.4125 127.069 74.6943 127.723 73.9442L128.513 74.1836L128.394 77.4873H131.194V78.4928L128.346 78.4449V83.9511C128.346 84.7172 128.489 85.2758 128.777 85.6269C129.08 85.978 129.479 86.1536 129.974 86.1536L130.859 85.6509L131.266 86.3691ZM141.51 87.0154L137.991 88.6673C137.56 88.3641 137.265 87.9491 137.105 87.4224C136.53 87.7735 135.948 88.0608 135.357 88.2843C134.783 88.5077 134.28 88.6194 133.849 88.6194C133.195 88.6194 132.66 88.388 132.245 87.9252C131.83 87.4623 131.623 86.8718 131.623 86.1536C131.623 85.8344 131.655 85.4913 131.719 85.1242C131.798 84.7411 131.894 84.4379 132.006 84.2145L137.081 83.4005L137.129 82.7062C137.161 81.988 137.009 81.4294 136.674 81.0304C136.339 80.6155 135.796 80.408 135.046 80.408C134.711 80.408 134.36 80.4479 133.993 80.5277C133.626 80.5915 133.315 80.6793 133.059 80.791L132.676 81.605L132.03 81.3656L133.131 77.9182C134.36 77.3916 135.525 77.1282 136.626 77.1282C137.759 77.1282 138.685 77.4315 139.403 78.0379C140.121 78.6285 140.481 79.5621 140.481 80.8389L140.457 81.3177L140.217 84.5496L140.169 85.4115C140.169 85.6987 140.193 85.9302 140.241 86.1057C140.289 86.2653 140.369 86.4329 140.481 86.6085L141.223 86.3212L141.51 87.0154ZM136.076 86.8957C136.331 86.8957 136.626 86.8 136.961 86.6085L136.937 86.1057L136.961 85.579L137.033 84.2145L135.19 84.6454C135.126 84.8529 135.094 85.1322 135.094 85.4833C135.094 85.9621 135.19 86.3212 135.381 86.5606C135.573 86.784 135.804 86.8957 136.076 86.8957ZM146.345 80.7671L146.249 87.4942L148.38 87.5661V88.2603H141.988V87.5661L142.874 87.4942L142.802 78.9237L141.892 79.1392L141.653 78.421L145.435 77.2479L146.249 79.8095C146.776 78.7402 147.351 77.9103 147.973 77.3197C148.324 77.1921 148.747 77.1282 149.242 77.1282C149.912 77.1282 150.543 77.2479 151.133 77.4873L150.367 80.5995C149.904 80.5038 149.314 80.416 148.596 80.3362C147.877 80.2564 147.287 80.2005 146.824 80.1686L146.345 80.7671Z" fill="white"/>
<path d="M88.34 90.6543H104.164V91.8513H88.34V90.6543Z" fill="white"/>
<path d="M104.168 90.6543H150.654V91.8513H104.168V90.6543Z" fill="white"/>
</g>
<defs>
<filter id="filter0_d_148_15" x="9.10474" y="33.8766" width="85.825" height="93.168" filterUnits="userSpaceOnUse" color-interpolation-filters="sRGB">
<feFlood flood-opacity="0" result="BackgroundImageFix"/>
<feColorMatrix in="SourceAlpha" type="matrix" values="0 0 0 0 0 0 0 0 0 0 0 0 0 0 0 0 0 0 127 0" result="hardAlpha"/>
<feOffset dx="13.9368" dy="13.9368"/>
<feGaussianBlur stdDeviation="4.35525"/>
<feComposite in2="hardAlpha" operator="out"/>
<feColorMatrix type="matrix" values="0 0 0 0 0 0 0 0 0 0 0 0 0 0 0 0 0 0 0.85 0"/>
<feBlend mode="normal" in2="BackgroundImageFix" result="effect1_dropShadow_148_15"/>
<feBlend mode="normal" in="SourceGraphic" in2="effect1_dropShadow_148_15" result="shape"/>
</filter>
<filter id="filter1_d_148_15" x="71.2879" y="24.3405" width="48.3475" height="36.0639" filterUnits="userSpaceOnUse" color-interpolation-filters="sRGB">
<feFlood flood-opacity="0" result="BackgroundImageFix"/>
<feColorMatrix in="SourceAlpha" type="matrix" values="0 0 0 0 0 0 0 0 0 0 0 0 0 0 0 0 0 0 127 0" result="hardAlpha"/>
<feOffset dx="8.55" dy="6.84"/>
<feGaussianBlur stdDeviation="3.42"/>
<feComposite in2="hardAlpha" operator="out"/>
<feColorMatrix type="matrix" values="0 0 0 0 0.233333 0 0 0 0 0.233333 0 0 0 0 0.233333 0 0 0 0.35 0"/>
<feBlend mode="normal" in2="BackgroundImageFix" result="effect1_dropShadow_148_15"/>
<feBlend mode="normal" in="SourceGraphic" in2="effect1_dropShadow_148_15" result="shape"/>
</filter>
<filter id="filter2_d_148_15" x="82.3616" y="47.8022" width="59.1611" height="30.5577" filterUnits="userSpaceOnUse" color-interpolation-filters="sRGB">
<feFlood flood-opacity="0" result="BackgroundImageFix"/>
<feColorMatrix in="SourceAlpha" type="matrix" values="0 0 0 0 0 0 0 0 0 0 0 0 0 0 0 0 0 0 127 0" result="hardAlpha"/>
<feOffset dx="8.55" dy="6.84"/>
<feGaussianBlur stdDeviation="3.42"/>
<feComposite in2="hardAlpha" operator="out"/>
<feColorMatrix type="matrix" values="0 0 0 0 0.233333 0 0 0 0 0.233333 0 0 0 0 0.233333 0 0 0 0.35 0"/>
<feBlend mode="normal" in2="BackgroundImageFix" result="effect1_dropShadow_148_15"/>
<feBlend mode="normal" in="SourceGraphic" in2="effect1_dropShadow_148_15" result="shape"/>
</filter>
<filter id="filter3_d_148_15" x="88.9146" y="71.7417" width="77.6086" height="30.6056" filterUnits="userSpaceOnUse" color-interpolation-filters="sRGB">
<feFlood flood-opacity="0" result="BackgroundImageFix"/>
<feColorMatrix in="SourceAlpha" type="matrix" values="0 0 0 0 0 0 0 0 0 0 0 0 0 0 0 0 0 0 127 0" result="hardAlpha"/>
<feOffset dx="8.55" dy="6.84"/>
<feGaussianBlur stdDeviation="3.42"/>
<feComposite in2="hardAlpha" operator="out"/>
<feColorMatrix type="matrix" values="0 0 0 0 0.233333 0 0 0 0 0.233333 0 0 0 0 0.233333 0 0 0 0.35 0"/>
<feBlend mode="normal" in2="BackgroundImageFix" result="effect1_dropShadow_148_15"/>
<feBlend mode="normal" in="SourceGraphic" in2="effect1_dropShadow_148_15" result="shape"/>
</filter>
<radialGradient id="paint0_radial_148_15" cx="0" cy="0" r="1" gradientUnits="userSpaceOnUse" gradientTransform="translate(43.5846 65.353) rotate(115.5) scale(30.4495 26.3004)">
<stop offset="0.447917" stop-color="#B56820"/>
<stop offset="0.848958" stop-color="#692415"/>
</radialGradient>
<linearGradient id="paint1_linear_148_15" x1="44.6705" y1="68.5026" x2="61.78" y2="64.395" gradientUnits="userSpaceOnUse">
<stop offset="0.375" stop-color="#141313"/>
<stop offset="0.885417" stop-color="#4E4747"/>
</linearGradient>
<linearGradient id="paint2_linear_148_15" x1="73.864" y1="1.94892" x2="69.2127" y2="11.7007" gradientUnits="userSpaceOnUse">
<stop offset="0.244792" stop-color="#5E5E5E"/>
<stop offset="0.619792"/>
</linearGradient>
<radialGradient id="paint3_radial_148_15" cx="0" cy="0" r="1" gradientUnits="userSpaceOnUse" gradientTransform="translate(38.5277 75.4778) rotate(115.5) scale(2.05739 11.7271)">
<stop offset="0.015625" stop-color="#3C1A0C" stop-opacity="0.57"/>
<stop offset="1" stop-color="#3C1A0C"/>
</radialGradient>
<linearGradient id="paint4_linear_148_15" x1="68.6624" y1="1.21277" x2="68.6624" y2="2.85868" gradientUnits="userSpaceOnUse">
<stop stop-color="#D9D9D9"/>
<stop offset="0.463542" stop-color="#605E5E"/>
</linearGradient>
<linearGradient id="paint5_linear_148_15" x1="67.7769" y1="3.07019" x2="67.7769" y2="4.7161" gradientUnits="userSpaceOnUse">
<stop stop-color="#D9D9D9"/>
<stop offset="0.463542" stop-color="#605E5E"/>
</linearGradient>
<linearGradient id="paint6_linear_148_15" x1="66.8912" y1="4.92664" x2="66.8912" y2="6.57255" gradientUnits="userSpaceOnUse">
<stop stop-color="#D9D9D9"/>
<stop offset="0.463542" stop-color="#605E5E"/>
</linearGradient>
<linearGradient id="paint7_linear_148_15" x1="77.5764" y1="5.46472" x2="77.5764" y2="7.11063" gradientUnits="userSpaceOnUse">
<stop stop-color="#D9D9D9"/>
<stop offset="0.463542" stop-color="#605E5E"/>
</linearGradient>
<linearGradient id="paint8_linear_148_15" x1="76.6901" y1="7.32117" x2="76.6901" y2="8.96708" gradientUnits="userSpaceOnUse">
<stop stop-color="#D9D9D9"/>
<stop offset="0.463542" stop-color="#605E5E"/>
</linearGradient>
<linearGradient id="paint9_linear_148_15" x1="75.8044" y1="9.17859" x2="75.8044" y2="10.8245" gradientUnits="userSpaceOnUse">
<stop stop-color="#D9D9D9"/>
<stop offset="0.463542" stop-color="#605E5E"/>
</linearGradient>
</defs>
</svg>
