<svg width="979" height="1469" viewBox="0 0 979 1469" fill="none" xmlns="http://www.w3.org/2000/svg">
<path d="M842.607 209.736C843.507 208.174 842.969 206.178 841.406 205.279C839.843 204.38 837.848 204.918 836.949 206.48L842.607 209.736ZM706.141 444.74L706.226 448.003L706.141 444.74ZM224.571 344.399L227.537 345.763L227.609 345.606L227.665 345.442L224.571 344.399ZM189.989 414.064C190.615 415.755 192.492 416.619 194.183 415.993L221.738 405.8C223.429 405.174 224.293 403.297 223.668 401.606C223.042 399.915 221.164 399.051 219.473 399.677L194.98 408.737L185.919 384.244C185.294 382.553 183.416 381.689 181.725 382.315C180.034 382.94 179.17 384.818 179.796 386.509L189.989 414.064ZM836.949 206.48C827.177 223.463 820.615 246.776 814.599 271.813C808.54 297.033 803.021 324.071 795.362 349.223C787.706 374.363 778.039 397.148 763.943 413.786C749.958 430.292 731.569 440.813 706.056 441.477L706.226 448.003C733.761 447.287 753.847 435.801 768.924 418.007C783.888 400.344 793.869 376.536 801.608 351.124C809.342 325.725 814.962 298.253 820.948 273.339C826.977 248.243 833.365 225.799 842.607 209.736L836.949 206.48ZM706.056 441.477C673.666 442.319 630.355 428.509 582.435 408.947C534.483 389.371 483.002 364.525 433.587 343.401C384.478 322.408 337.678 305.217 300.24 301.67C281.492 299.893 264.762 301.501 251.179 308.043C237.472 314.645 227.292 326.117 221.478 343.356L227.665 345.442C232.971 329.707 242.035 319.694 254.012 313.925C266.111 308.098 281.501 306.452 299.624 308.17C335.929 311.61 381.875 328.395 431.021 349.404C479.861 370.283 532.143 395.468 579.968 414.991C627.826 434.528 672.305 448.885 706.226 448.003L706.056 441.477ZM221.605 343.035L190.085 411.568L196.017 414.296L227.537 345.763L221.605 343.035Z" fill="#D0A642"/>
<path d="M842.607 999.732C843.507 998.169 842.969 996.174 841.406 995.274C839.843 994.375 837.848 994.913 836.949 996.476L842.607 999.732ZM706.141 1234.74L706.226 1238L706.141 1234.74ZM224.571 1134.39L227.537 1135.76L227.609 1135.6L227.665 1135.44L224.571 1134.39ZM189.989 1204.06C190.615 1205.75 192.492 1206.61 194.183 1205.99L221.738 1195.8C223.429 1195.17 224.293 1193.29 223.668 1191.6C223.042 1189.91 221.164 1189.05 219.473 1189.67L194.98 1198.73L185.919 1174.24C185.294 1172.55 183.416 1171.68 181.725 1172.31C180.034 1172.94 179.17 1174.81 179.796 1176.5L189.989 1204.06ZM836.949 996.476C827.177 1013.46 820.615 1036.77 814.599 1061.81C808.54 1087.03 803.021 1114.07 795.362 1139.22C787.706 1164.36 778.039 1187.14 763.943 1203.78C749.958 1220.29 731.569 1230.81 706.056 1231.47L706.226 1238C733.761 1237.28 753.847 1225.8 768.924 1208C783.888 1190.34 793.869 1166.53 801.608 1141.12C809.342 1115.72 814.962 1088.25 820.948 1063.33C826.977 1038.24 833.365 1015.79 842.607 999.732L836.949 996.476ZM706.056 1231.47C673.666 1232.31 630.355 1218.5 582.435 1198.94C534.483 1179.37 483.002 1154.52 433.587 1133.4C384.478 1112.4 337.678 1095.21 300.24 1091.67C281.492 1089.89 264.762 1091.5 251.179 1098.04C237.472 1104.64 227.292 1116.11 221.478 1133.35L227.665 1135.44C232.971 1119.7 242.035 1109.69 254.012 1103.92C266.111 1098.09 281.501 1096.45 299.624 1098.17C335.929 1101.61 381.875 1118.39 431.021 1139.4C479.861 1160.28 532.143 1185.46 579.968 1204.99C627.826 1224.52 672.305 1238.88 706.226 1238L706.056 1231.47ZM221.605 1133.03L190.085 1201.56L196.017 1204.29L227.537 1135.76L221.605 1133.03Z" fill="#D0A642"/>
<path d="M80.8621 568.83C80.8621 567.027 79.4006 565.565 77.5977 565.565C75.7948 565.565 74.3333 567.027 74.3333 568.83H80.8621ZM162.473 763.473L162.685 760.216L162.473 763.473ZM712.532 655.339L714.615 652.825L714.486 652.718L714.347 652.625L712.532 655.339ZM833.81 766.737C835.612 766.689 837.035 765.19 836.988 763.388L836.22 734.018C836.173 732.216 834.674 730.793 832.871 730.84C831.069 730.887 829.646 732.386 829.693 734.189L830.376 760.295L804.269 760.978C802.467 761.025 801.044 762.524 801.091 764.326C801.138 766.129 802.638 767.552 804.44 767.504L833.81 766.737ZM769.66 702.673L771.907 700.305L771.827 700.229L771.743 700.159L769.66 702.673ZM74.3333 568.83C74.3333 590.516 69.0574 638.216 77.1124 680.849C81.158 702.261 88.6153 722.828 102.052 738.526C115.576 754.327 134.954 764.951 162.261 766.731L162.685 760.216C137.039 758.545 119.331 748.673 107.012 734.281C94.6049 719.786 87.4626 700.463 83.5278 679.637C75.6219 637.793 80.8621 591.621 80.8621 568.83H74.3333ZM162.261 766.731C307.206 776.175 413.046 727.169 498.419 686.958C541.207 666.804 578.535 649.023 613.213 641.571C647.668 634.165 679.264 637.017 710.717 658.052L714.347 652.625C681.123 630.406 647.634 627.495 611.841 635.187C576.269 642.833 538.183 661.012 495.637 681.051C410.34 721.227 305.828 769.542 162.685 760.216L162.261 766.731ZM710.449 657.852L767.577 705.187L771.743 700.159L714.615 652.825L710.449 657.852ZM767.413 705.041L831.477 765.841L835.972 761.105L771.907 700.305L767.413 705.041Z" fill="#D0A642"/>
<g filter="url(#filter0_d_327_6)">
<path d="M138.4 1187.7C142.864 1180.46 153.384 1180.46 157.848 1187.7L177.327 1219.27C180.106 1223.77 185.614 1225.78 190.639 1224.12L225.794 1212.49C233.856 1209.82 241.906 1216.57 240.69 1224.97L235.36 1261.81C234.604 1267.03 237.524 1272.09 242.425 1274.05L276.894 1287.84C284.766 1290.98 286.588 1301.31 280.27 1306.96L252.556 1331.76C248.627 1335.27 247.614 1341.02 250.105 1345.67L267.691 1378.48C271.698 1385.96 266.448 1395.04 257.969 1395.3L220.926 1396.43C215.643 1396.59 211.16 1400.35 210.087 1405.53L202.542 1441.92C200.817 1450.24 190.935 1453.83 184.268 1448.56L155.211 1425.59C151.057 1422.3 145.191 1422.3 141.038 1425.59L111.98 1448.56C105.314 1453.83 95.431 1450.24 93.7059 1441.92L86.1616 1405.53C85.0886 1400.35 80.6056 1396.59 75.3224 1396.43L38.2793 1395.3C29.8003 1395.04 24.5502 1385.96 28.5576 1378.48L46.1435 1345.67C48.6346 1341.02 47.6216 1335.27 43.692 1331.76L15.9779 1306.96C9.66025 1301.31 11.4826 1290.98 19.354 1287.84L53.8233 1274.05C58.724 1272.09 61.6444 1267.03 60.8885 1261.81L55.5582 1224.97C54.342 1216.57 62.3926 1209.82 70.4542 1212.49L105.609 1224.12C110.634 1225.78 116.143 1223.77 118.921 1219.27L138.4 1187.7Z" fill="#643B6A"/>
<path d="M155.417 1189.2L174.896 1220.77C178.369 1226.4 185.255 1228.91 191.536 1226.83L226.691 1215.2C232.737 1213.2 238.775 1218.26 237.863 1224.56L232.533 1261.4C231.588 1267.93 235.239 1274.25 241.364 1276.7L275.834 1290.49C281.737 1292.85 283.104 1300.59 278.366 1304.83L250.652 1329.63C245.74 1334.02 244.473 1341.21 247.587 1347.02L265.173 1379.83C268.179 1385.44 264.241 1392.25 257.882 1392.44L220.839 1393.57C214.235 1393.77 208.631 1398.48 207.29 1404.95L199.745 1441.34C198.452 1447.58 191.04 1450.28 186.04 1446.32L156.982 1423.35C151.79 1419.24 144.458 1419.24 139.266 1423.35L110.209 1446.32C105.209 1450.28 97.7967 1447.58 96.5028 1441.34L88.9585 1404.95C87.6173 1398.48 82.0136 1393.77 75.4095 1393.57L38.3665 1392.44C32.0072 1392.25 28.0696 1385.44 31.0752 1379.83L48.6611 1347.02C51.7749 1341.21 50.5087 1334.02 45.5967 1329.63L17.8826 1304.83C13.1443 1300.59 14.5111 1292.85 20.4147 1290.49L54.884 1276.7C61.0098 1274.25 64.6603 1267.93 63.7154 1261.4L58.3851 1224.56C57.473 1218.26 63.5109 1213.2 69.5571 1215.2L104.712 1226.83C110.993 1228.91 117.879 1226.4 121.352 1220.77L140.831 1189.2C144.179 1183.77 152.069 1183.77 155.417 1189.2Z" stroke="#D0A642" stroke-width="5.71278"/>
</g>
<path d="M150.328 1363.47C148.451 1363.56 146.655 1363.56 144.941 1363.47C143.228 1363.39 141.555 1363.27 139.922 1363.11C137.637 1362.78 136.127 1362.33 135.393 1361.76C134.658 1361.19 134.046 1359.88 133.557 1357.84C132.659 1354.01 131.802 1350.17 130.986 1346.34C130.17 1342.5 129.435 1338.66 128.782 1334.83C128.456 1332.62 127.844 1330.54 126.946 1328.58C126.13 1326.54 125.028 1324.63 123.641 1322.83C122.335 1320.95 121.437 1319.08 120.948 1317.2C120.54 1315.24 120.907 1313.16 122.05 1310.96C123.927 1307.2 125.64 1303.41 127.191 1299.57C128.823 1295.74 130.578 1291.94 132.455 1288.19C133.353 1286.47 134.373 1284.8 135.515 1283.17C136.658 1281.54 137.841 1279.94 139.065 1278.39C139.718 1277.58 140.534 1277.09 141.514 1276.92C142.493 1276.68 143.472 1276.48 144.452 1276.31C146.002 1275.99 147.512 1275.74 148.981 1275.58C150.532 1275.42 152.082 1275.17 153.633 1274.84C154.939 1274.6 155.796 1274.72 156.204 1275.21C156.693 1275.7 156.979 1276.39 157.061 1277.29C157.387 1279.58 157.673 1281.9 157.918 1284.27C158.244 1286.56 158.57 1288.88 158.897 1291.25C159.55 1296.14 159.999 1301.04 160.244 1305.94C160.488 1310.83 160.692 1315.69 160.856 1320.51C160.937 1322.22 161.1 1323.93 161.345 1325.65C161.59 1327.36 161.957 1329.03 162.447 1330.67C162.61 1331.4 162.814 1331.85 163.059 1332.01C163.386 1332.09 163.916 1331.97 164.651 1331.65C166.609 1330.75 168.772 1329.89 171.139 1329.07C172.852 1328.5 173.505 1328.99 173.097 1330.54C172.852 1331.36 172.852 1332.13 173.097 1332.87C173.342 1333.6 173.505 1334.34 173.587 1335.07C173.75 1337.85 173.913 1340.58 174.077 1343.27C174.321 1345.97 174.525 1348.7 174.689 1351.48C174.689 1352.95 175.464 1353.56 177.015 1353.31C178.81 1352.99 180.075 1353.15 180.81 1353.8C181.626 1354.46 182.156 1355.6 182.401 1357.23C182.809 1360.25 183.339 1363.27 183.992 1366.29C184.727 1369.23 185.584 1372.12 186.563 1374.98C186.808 1375.63 186.767 1376.16 186.441 1376.57C186.196 1377.06 185.869 1377.51 185.461 1377.92C184.237 1378.9 182.931 1379.8 181.544 1380.61C180.157 1381.43 178.932 1382.45 177.872 1383.67C177.545 1384 177.055 1384.2 176.403 1384.28C175.831 1384.37 175.219 1384.45 174.566 1384.53C172.118 1384.77 169.67 1384.77 167.221 1384.53C164.773 1384.37 162.325 1384.37 159.876 1384.53C159.305 1384.61 158.897 1384.45 158.652 1384.04C158.489 1383.71 158.407 1383.35 158.407 1382.94C158.489 1380.82 158.448 1378.69 158.285 1376.57C158.203 1374.45 158.407 1372.37 158.897 1370.33C159.142 1369.35 159.142 1368.41 158.897 1367.51C158.652 1366.53 158.489 1365.55 158.407 1364.58C158.407 1363.92 158.162 1363.6 157.673 1363.6C157.265 1363.51 156.857 1363.47 156.449 1363.47H150.328ZM160.121 1326.01C160.284 1325.12 160.244 1324.3 159.999 1323.57C159.754 1322.83 159.631 1322.1 159.631 1321.36C159.55 1315.89 159.346 1310.43 159.019 1304.96C158.775 1299.49 158.162 1294.06 157.183 1288.68C156.857 1286.8 156.612 1284.88 156.449 1282.92C156.367 1280.96 156.041 1279.05 155.469 1277.17C155.388 1276.76 155.265 1276.44 155.102 1276.19C154.939 1275.86 154.572 1275.74 154 1275.82C153.592 1275.82 153.103 1275.82 152.531 1275.82C152.042 1275.74 151.715 1276.03 151.552 1276.68C150.817 1278.48 150.083 1280.31 149.348 1282.19C148.614 1284.07 148.165 1286.02 148.002 1288.06C147.839 1292.64 147.92 1297.21 148.247 1301.78C148.655 1306.35 148.981 1310.92 149.226 1315.49C149.389 1318.26 149.512 1321.04 149.593 1323.81C149.675 1326.59 149.757 1329.36 149.838 1332.13C149.838 1334.01 150.654 1334.42 152.286 1333.36C153.266 1332.79 154.204 1332.22 155.102 1331.65C156 1330.99 156.938 1330.38 157.918 1329.81C158.734 1329.32 159.387 1328.79 159.876 1328.22C160.448 1327.65 160.529 1326.91 160.121 1326.01ZM149.838 1277.29C150.001 1276.8 149.879 1276.52 149.471 1276.44C149.144 1276.35 148.777 1276.35 148.369 1276.44C147.553 1276.52 146.737 1276.68 145.921 1276.92C145.105 1277.09 144.248 1277.25 143.35 1277.41C142.126 1277.58 141.187 1278.03 140.534 1278.76C139.882 1279.5 139.269 1280.31 138.698 1281.21C138.372 1281.54 138.249 1281.86 138.331 1282.19C138.413 1282.52 138.698 1282.72 139.188 1282.8C141.799 1283.05 144.248 1283.45 146.533 1284.03C146.941 1284.11 147.308 1283.86 147.635 1283.29C148.043 1282.31 148.41 1281.33 148.736 1280.35C149.144 1279.37 149.512 1278.35 149.838 1277.29ZM149.838 1362.62C151.144 1362.62 152.368 1362.62 153.511 1362.62C154.653 1362.62 155.755 1362.58 156.816 1362.49C158.122 1362.41 158.979 1362.62 159.387 1363.11C159.876 1363.51 160.121 1364.29 160.121 1365.43C160.203 1367.96 160.08 1370.49 159.754 1373.02C159.427 1375.47 159.305 1377.96 159.387 1380.49C159.468 1381.39 159.631 1382.04 159.876 1382.45C160.203 1382.94 160.978 1383.22 162.202 1383.31C163.753 1383.39 165.303 1383.47 166.854 1383.55C168.405 1383.71 169.955 1383.75 171.506 1383.67C173.465 1383.67 174.648 1383.47 175.056 1383.06C175.546 1382.73 175.831 1381.67 175.913 1379.88C176.076 1377.51 176.198 1375.18 176.28 1372.9C176.362 1370.53 176.443 1368.21 176.525 1365.92C176.607 1363.88 176.525 1362.41 176.28 1361.51C176.117 1360.62 175.586 1359.92 174.689 1359.43C173.873 1358.94 172.404 1358.29 170.282 1357.48C169.547 1357.15 168.772 1356.82 167.956 1356.5C167.14 1356.17 166.609 1355.6 166.364 1354.78C165.793 1352.9 165.263 1350.99 164.773 1349.03C164.365 1347.07 163.998 1345.15 163.671 1343.27C163.345 1341.32 162.937 1339.4 162.447 1337.52C161.957 1335.56 161.468 1333.6 160.978 1331.65C160.733 1330.75 160.407 1330.3 159.999 1330.3C159.672 1330.3 159.142 1330.5 158.407 1330.91C157.346 1331.56 156.326 1332.26 155.347 1332.99C154.449 1333.73 153.429 1334.3 152.286 1334.71C150.981 1335.2 150.042 1335.32 149.471 1335.07C148.981 1334.83 148.736 1334.09 148.736 1332.87C148.9 1328.05 148.818 1323.24 148.492 1318.42C148.165 1313.53 147.798 1308.67 147.39 1303.86C147.145 1301 146.982 1298.14 146.9 1295.29C146.9 1292.43 146.9 1289.62 146.9 1286.84C146.9 1286.51 146.9 1286.19 146.9 1285.86C146.9 1285.53 146.696 1285.29 146.288 1285.13C144.982 1284.47 143.554 1284.11 142.003 1284.03C140.534 1283.86 139.106 1283.78 137.719 1283.78C136.903 1283.78 136.291 1284.23 135.883 1285.13C135.475 1285.94 135.067 1286.72 134.658 1287.45C132.618 1290.96 130.823 1294.63 129.272 1298.47C127.803 1302.22 126.048 1305.9 124.008 1309.49C121.152 1314.3 121.56 1318.87 125.232 1323.2C126.865 1325.24 128.048 1327.4 128.782 1329.69C129.517 1331.89 130.047 1334.18 130.374 1336.54C131.027 1340.38 131.761 1344.21 132.577 1348.05C133.393 1351.8 134.291 1355.56 135.271 1359.31C135.434 1360.21 135.801 1360.86 136.372 1361.27C137.025 1361.68 137.841 1361.96 138.821 1362.13C140.698 1362.37 142.575 1362.58 144.452 1362.74C146.329 1362.82 148.124 1362.78 149.838 1362.62ZM132.7 1324.91C130.904 1324.99 129.884 1324.91 129.639 1324.67C129.476 1324.42 129.762 1323.57 130.496 1322.1C132.618 1317.93 134.25 1313.69 135.393 1309.37C136.617 1304.96 137.637 1300.55 138.453 1296.14C138.617 1295.57 138.657 1294.92 138.576 1294.19C138.576 1293.37 139.065 1292.92 140.045 1292.84C141.024 1292.84 141.514 1293.25 141.514 1294.06C141.514 1294.8 141.555 1295.41 141.636 1295.9C142.126 1300.06 142.82 1304.18 143.717 1308.26C144.615 1312.26 145.227 1316.34 145.554 1320.51C145.798 1322.79 144.656 1323.89 142.126 1323.81C140.575 1323.73 139.025 1323.93 137.474 1324.42C135.923 1324.83 134.332 1324.99 132.7 1324.91ZM140.534 1297.49C139.963 1298.23 139.637 1298.96 139.555 1299.69C139.555 1300.43 139.555 1301.16 139.555 1301.9C139.555 1302.22 139.555 1302.55 139.555 1302.88C139.637 1303.12 139.963 1303.2 140.534 1303.12C141.024 1303.04 141.31 1302.88 141.391 1302.63C141.473 1302.31 141.473 1301.98 141.391 1301.65C141.31 1301 141.187 1300.35 141.024 1299.69C140.861 1298.96 140.698 1298.23 140.534 1297.49ZM139.555 1310.47C139.718 1310.63 139.678 1310.96 139.433 1311.45C139.269 1311.85 139.596 1312.02 140.412 1311.94C141.065 1311.85 141.595 1311.69 142.003 1311.45C142.493 1311.2 142.738 1310.71 142.738 1309.98C142.738 1309.65 142.656 1309 142.493 1308.02C142.33 1307.04 142.085 1306.14 141.759 1305.33C141.432 1304.43 141.024 1304.02 140.534 1304.1C140.045 1304.1 139.718 1304.55 139.555 1305.45C139.392 1306.35 139.31 1307.33 139.31 1308.39C139.392 1309.37 139.474 1310.06 139.555 1310.47ZM137.596 1306.43C136.862 1308.88 136.005 1311.32 135.026 1313.77C134.128 1316.22 133.108 1318.75 131.965 1321.36C134.332 1320.22 135.923 1319.04 136.74 1317.81C137.637 1316.59 138.086 1315.08 138.086 1313.28C138.168 1311.49 138.005 1309.2 137.596 1306.43ZM143.228 1313.77C143.228 1313.04 142.738 1312.75 141.759 1312.92C141.269 1313 140.738 1313.12 140.167 1313.28C139.678 1313.36 139.433 1313.77 139.433 1314.51C139.433 1314.83 139.555 1315.36 139.8 1316.1C140.045 1316.83 140.453 1317.24 141.024 1317.32C141.922 1317.4 142.493 1317.04 142.738 1316.22C142.983 1315.4 143.146 1314.59 143.228 1313.77ZM132.7 1323.57C134.332 1323.89 135.883 1323.93 137.352 1323.69C138.821 1323.36 140.29 1323.12 141.759 1322.95C142.82 1322.79 143.432 1322.55 143.595 1322.22C143.758 1321.81 143.881 1321.24 143.962 1320.51C143.962 1319.61 143.717 1319.04 143.228 1318.79C142.82 1318.55 142.167 1318.38 141.269 1318.3C139.8 1318.22 138.617 1318.51 137.719 1319.16C136.821 1319.81 136.005 1320.59 135.271 1321.48C134.536 1322.3 133.679 1322.99 132.7 1323.57ZM172.485 1337.89C172.404 1337.32 172.322 1336.79 172.24 1336.3C172.24 1335.81 172.159 1335.4 171.996 1335.07C171.669 1334.34 171.628 1333.48 171.873 1332.5C172.118 1331.52 171.832 1330.91 171.016 1330.67C170.363 1330.5 169.547 1330.71 168.568 1331.28C167.67 1331.77 166.772 1332.18 165.875 1332.5C163.916 1333.16 163.263 1334.42 163.916 1336.3C164.079 1336.62 164.161 1337.03 164.161 1337.52C164.242 1337.93 164.324 1338.34 164.406 1338.75C164.732 1340.21 165.099 1341.07 165.507 1341.32C165.997 1341.48 166.976 1341.28 168.445 1340.7C169.262 1340.3 170.118 1340.01 171.016 1339.85C171.914 1339.6 172.404 1338.95 172.485 1337.89ZM174.321 1357.48C173.832 1356.58 173.587 1355.72 173.587 1354.9C173.669 1354.01 173.669 1353.15 173.587 1352.33C173.505 1350.78 173.383 1349.27 173.22 1347.8C173.138 1346.25 173.016 1344.7 172.852 1343.15C172.771 1342.25 172.567 1341.6 172.24 1341.19C171.914 1340.79 171.098 1340.87 169.792 1341.44C168.241 1342.01 167.14 1342.5 166.487 1342.91C165.916 1343.23 165.63 1343.76 165.63 1344.5C165.63 1345.15 165.834 1346.29 166.242 1347.93C166.405 1348.5 166.609 1349.11 166.854 1349.76C167.099 1350.33 167.221 1350.95 167.221 1351.6C167.303 1353.56 167.997 1354.95 169.302 1355.76C170.608 1356.5 172.281 1357.07 174.321 1357.48ZM178.239 1361.27C178.647 1360.78 179.055 1360.33 179.463 1359.92C179.871 1359.52 180.197 1359.11 180.442 1358.7C180.85 1358.05 181.054 1357.35 181.054 1356.62C181.136 1355.8 180.85 1355.19 180.197 1354.78C179.545 1354.29 178.728 1354.05 177.749 1354.05C176.77 1354.05 175.994 1354.29 175.423 1354.78C175.097 1355.11 174.974 1355.68 175.056 1356.5C175.219 1357.23 175.668 1357.84 176.403 1358.33C176.811 1358.66 177.137 1359.07 177.382 1359.56C177.627 1359.96 177.912 1360.54 178.239 1361.27ZM177.994 1365.43C178.647 1364.94 179.259 1364.53 179.83 1364.21C180.483 1363.8 181.095 1363.43 181.666 1363.11C182.319 1362.62 182.319 1361.88 181.666 1360.9C181.585 1360.74 181.462 1360.62 181.299 1360.54C181.136 1360.37 180.973 1360.37 180.81 1360.54C180.157 1361.19 179.381 1361.84 178.484 1362.49C177.667 1363.07 177.504 1364.04 177.994 1365.43ZM182.401 1363.96C181.666 1364.53 180.85 1365.06 179.953 1365.55C179.137 1365.96 178.484 1366.53 177.994 1367.27C177.586 1367.92 177.586 1368.98 177.994 1370.45C178.484 1369.64 179.137 1369.02 179.953 1368.62C180.769 1368.13 181.462 1367.55 182.034 1366.9C182.605 1366.25 182.727 1365.27 182.401 1363.96ZM177.137 1373.88C177.137 1373.96 177.137 1374.16 177.137 1374.49C177.137 1374.82 177.259 1375.06 177.504 1375.23C177.912 1375.55 178.32 1375.55 178.728 1375.23C179.137 1374.98 179.504 1374.74 179.83 1374.49C180.483 1374.08 181.095 1373.67 181.666 1373.27C182.319 1372.78 182.972 1372.33 183.625 1371.92C184.278 1371.51 184.441 1371.06 184.115 1370.57C183.788 1370 183.666 1369.47 183.748 1368.98C183.748 1368.49 183.421 1368.25 182.768 1368.25C182.279 1368.25 181.585 1368.62 180.687 1369.35C179.789 1370 178.973 1370.78 178.239 1371.68C177.586 1372.49 177.219 1373.23 177.137 1373.88ZM177.259 1381.71C178.402 1381.06 179.381 1380.45 180.197 1379.88C181.095 1379.39 181.952 1378.86 182.768 1378.29C183.176 1378.04 183.544 1377.76 183.87 1377.43C184.278 1377.1 184.645 1376.78 184.972 1376.45C185.461 1376.04 185.625 1375.63 185.461 1375.23C185.38 1374.82 185.257 1374.41 185.094 1374C185.013 1373.76 184.849 1373.55 184.604 1373.39C184.441 1373.23 184.196 1373.23 183.87 1373.39C182.809 1373.88 181.748 1374.41 180.687 1374.98C179.626 1375.55 178.647 1376.2 177.749 1376.94C177.096 1377.51 176.811 1378.2 176.892 1379.02C177.055 1379.84 177.178 1380.73 177.259 1381.71Z" fill="#D0A642"/>
<g filter="url(#filter1_d_327_6)">
<path d="M818.221 780.457C822.684 773.222 833.205 773.222 837.668 780.457L857.147 812.03C859.926 816.534 865.435 818.54 870.459 816.878L905.614 805.249C913.676 802.582 921.727 809.329 920.51 817.733L915.18 854.566C914.424 859.789 917.345 864.851 922.245 866.811L956.715 880.596C964.586 883.744 966.408 894.066 960.091 899.719L932.377 924.517C928.447 928.033 927.434 933.782 929.925 938.429L947.511 971.239C951.518 978.716 946.268 987.798 937.789 988.057L900.746 989.187C895.463 989.349 890.98 993.113 889.907 998.288L882.363 1034.68C880.638 1043 870.755 1046.6 864.088 1041.32L835.031 1018.35C830.877 1015.06 825.012 1015.06 820.858 1018.35L791.8 1041.32C785.134 1046.6 775.251 1043 773.526 1034.68L765.982 998.288C764.909 993.113 760.426 989.349 755.143 989.187L718.1 988.057C709.621 987.798 704.37 978.716 708.378 971.239L725.964 938.429C728.455 933.782 727.442 928.033 723.512 924.517L695.798 899.719C689.481 894.066 691.303 883.744 699.174 880.596L733.644 866.811C738.544 864.851 741.465 859.789 740.709 854.566L735.378 817.733C734.162 809.329 742.213 802.582 750.274 805.249L785.43 816.878C790.454 818.54 795.963 816.534 798.742 812.03L818.221 780.457Z" fill="#643B6A"/>
<path d="M835.237 781.957L854.716 813.529C858.19 819.16 865.075 821.667 871.356 819.59L906.512 807.961C912.558 805.961 918.596 811.021 917.684 817.324L912.353 854.157C911.408 860.686 915.059 867.013 921.185 869.463L955.654 883.248C961.558 885.609 962.924 893.351 958.186 897.59L930.472 922.388C925.56 926.784 924.294 933.969 927.408 939.779L944.993 972.589C947.999 978.196 944.061 985.008 937.702 985.202L900.659 986.332C894.055 986.534 888.451 991.239 887.11 997.709L879.566 1034.1C878.272 1040.34 870.86 1043.04 865.86 1039.08L836.803 1016.11C831.611 1012 824.278 1012 819.086 1016.11L790.029 1039.08C785.029 1043.04 777.617 1040.34 776.323 1034.1L768.779 997.709C767.438 991.239 761.834 986.534 755.23 986.332L718.187 985.202C711.828 985.008 707.89 978.196 710.895 972.589L728.481 939.779C731.595 933.969 730.329 926.784 725.417 922.388L697.703 897.59C692.965 893.351 694.331 885.609 700.235 883.248L734.704 869.463C740.83 867.013 744.481 860.686 743.536 854.157L738.205 817.324C737.293 811.021 743.331 805.961 749.377 807.961L784.533 819.59C790.814 821.667 797.699 819.16 801.173 813.529L820.652 781.957C823.999 776.53 831.89 776.53 835.237 781.957Z" stroke="#D0A642" stroke-width="5.71278"/>
</g>
<path d="M849.041 882.947C849.368 885.967 849.164 889.027 848.429 892.128C847.776 895.148 846.919 898.209 845.858 901.31C845.777 901.718 845.695 902.126 845.614 902.534C845.614 902.86 845.736 903.228 845.981 903.636C847.205 905.676 848.47 907.757 849.776 909.879C851.082 911.919 852.142 914 852.959 916.122C854.509 919.958 856.06 923.794 857.61 927.629C859.161 931.383 860.181 935.301 860.671 939.381C860.916 941.258 861.283 943.135 861.773 945.013C862.344 946.89 862.548 948.767 862.385 950.644C862.058 954.398 860.344 957.907 857.243 961.172C854.142 964.436 850.021 966.599 844.879 967.66C843.165 967.986 841.492 968.394 839.86 968.884C838.228 969.373 836.677 970.067 835.208 970.965C833.413 972.107 831.291 972.76 828.843 972.924C826.394 973.168 824.027 972.883 821.742 972.067C819.457 971.332 817.58 970.026 816.111 968.149C814.561 966.027 812.928 963.905 811.215 961.784C809.582 959.662 807.705 957.662 805.583 955.785C805.094 955.377 804.767 954.928 804.604 954.439C804.522 953.867 804.482 953.296 804.482 952.725C804.89 949.379 805.583 946.073 806.563 942.809C807.624 939.545 808.889 936.321 810.358 933.138C810.929 931.914 812.031 931.057 813.663 930.567C816.111 929.996 818.682 929.833 821.375 930.078C823.089 930.159 824.354 930.812 825.17 932.036C826.802 934.403 827.945 936.851 828.598 939.381C829.251 941.911 829.699 944.482 829.944 947.094C830.107 948.644 830.107 950.236 829.944 951.868C829.863 953.5 829.985 955.091 830.312 956.642C830.393 956.969 830.434 957.295 830.434 957.621C830.516 957.866 830.801 958.029 831.291 958.111C831.699 958.111 832.025 958.029 832.27 957.866C832.597 957.621 832.882 957.377 833.127 957.132C833.943 956.071 834.514 955.01 834.841 953.949C836.392 949.787 836.759 945.706 835.943 941.707C835.127 937.708 834.147 933.709 833.005 929.71C831.944 926.364 830.352 923.222 828.23 920.284C826.109 917.346 823.579 914.572 820.641 911.96C818.845 910.328 817.254 909.43 815.866 909.267C814.479 909.104 812.479 909.43 809.868 910.246C807.828 910.899 806.685 911.144 806.44 910.981C806.195 910.736 805.91 909.838 805.583 908.287C805.094 906.247 805.42 904.778 806.563 903.881C807.787 902.983 809.419 902.207 811.459 901.555C817.58 899.759 822.926 896.984 827.496 893.23C829.863 891.19 831.291 889.068 831.781 886.865C832.27 884.579 832.107 882.213 831.291 879.764C830.801 878.459 830.026 877.724 828.965 877.561C827.904 877.398 826.761 877.847 825.537 878.907C824.966 879.397 824.436 879.968 823.946 880.621C823.456 881.193 823.007 881.805 822.599 882.458C821.946 883.437 821.375 883.967 820.885 884.049C820.396 884.049 819.62 883.641 818.56 882.825C817.417 881.927 816.315 881.07 815.254 880.254C814.193 879.356 813.132 878.459 812.071 877.561C811.5 877.071 810.929 876.582 810.358 876.092C809.868 875.602 809.215 875.194 808.399 874.868C806.685 874.133 806.644 873.276 808.277 872.297C809.909 871.399 811.5 870.461 813.051 869.481C814.683 868.502 816.397 867.686 818.192 867.033C820.069 866.299 822.028 865.809 824.068 865.564C826.109 865.238 828.149 865.278 830.189 865.687C831.087 865.768 831.903 865.768 832.637 865.687C833.372 865.605 834.025 865.278 834.596 864.707C834.759 864.544 834.963 864.422 835.208 864.34C835.453 864.177 835.698 864.054 835.943 863.973C841.411 861.279 844.92 862.3 846.471 867.033C847.368 869.563 848.103 872.134 848.674 874.745C849.245 877.357 849.368 880.091 849.041 882.947ZM847.45 882.702C847.858 880.091 847.654 877.479 846.838 874.868C846.103 872.256 845.287 869.645 844.389 867.033C843.818 865.156 842.798 864.095 841.329 863.85C839.942 863.605 838.309 864.054 836.432 865.197C835.698 865.686 835.29 866.135 835.208 866.543C835.127 866.951 835.494 867.441 836.31 868.012C838.84 869.563 840.227 871.481 840.472 873.766C840.88 877.357 840.921 880.948 840.595 884.539C840.268 888.048 839.248 891.516 837.534 894.944C836.718 896.74 835.616 898.413 834.229 899.963C832.923 901.432 831.495 902.901 829.944 904.37C829.781 904.533 829.577 904.778 829.332 905.105C829.169 905.349 829.21 905.554 829.455 905.717C829.618 905.962 829.863 906.084 830.189 906.084C830.597 906.002 830.964 905.921 831.291 905.839C833.168 905.676 834.923 905.309 836.555 904.737C838.187 904.085 839.819 903.472 841.451 902.901C843.084 902.248 844.063 901.351 844.389 900.208C845.287 897.352 846.062 894.495 846.715 891.639C847.45 888.782 847.695 885.804 847.45 882.702ZM838.024 946.237V949.542C837.697 953.133 836.636 955.867 834.841 957.744C833.127 959.539 830.271 960.763 826.272 961.416C825.7 961.498 825.129 961.58 824.558 961.661C824.068 961.661 823.579 961.702 823.089 961.784C821.13 961.947 819.376 961.58 817.825 960.682C816.274 959.703 815.377 958.519 815.132 957.132C814.805 955.744 814.724 954.398 814.887 953.092C815.05 951.786 815.295 950.48 815.622 949.175C815.948 947.787 815.254 947.134 813.54 947.216C812.888 947.298 812.194 947.338 811.459 947.338C810.806 947.257 810.154 947.216 809.501 947.216C809.174 947.216 808.807 947.257 808.399 947.338C807.991 947.338 807.746 947.461 807.664 947.706C807.338 948.848 806.93 950.072 806.44 951.378C805.951 952.684 806.155 953.827 807.052 954.806C809.093 957.009 811.01 959.254 812.806 961.539C814.601 963.742 816.397 965.987 818.192 968.272C819.58 969.822 821.538 970.802 824.068 971.21C826.598 971.699 828.72 971.659 830.434 971.087C833.045 970.19 835.331 969.006 837.289 967.537C839.33 966.15 841.084 964.558 842.553 962.763C844.185 960.804 845.41 958.764 846.226 956.642C847.042 954.439 847.735 952.276 848.307 950.154C849.776 945.339 850.347 940.565 850.021 935.831C849.776 931.098 848.103 926.528 845.002 922.121C843.043 919.264 840.472 916.775 837.289 914.653C834.106 912.45 830.801 910.409 827.374 908.532C826.557 908.124 826.068 907.716 825.905 907.308C825.741 906.9 825.864 906.37 826.272 905.717C826.925 904.819 827.659 903.962 828.475 903.146C829.373 902.248 830.23 901.391 831.046 900.575C834.882 896.658 837.208 892.455 838.024 887.966C838.84 883.478 839.044 878.948 838.636 874.378C838.391 871.767 836.759 869.685 833.739 868.135C830.801 866.503 827.374 866.013 823.456 866.666C820.763 867.237 818.437 868.135 816.478 869.359C814.52 870.583 812.439 871.685 810.235 872.664C809.582 872.991 809.582 873.44 810.235 874.011C811.623 875.153 812.969 876.337 814.275 877.561C815.662 878.785 817.009 879.968 818.315 881.111C819.702 882.172 820.804 882.009 821.62 880.621C822.028 879.968 822.518 879.438 823.089 879.03C823.66 878.54 824.272 878.091 824.925 877.683C826.639 876.541 828.312 876.174 829.944 876.582C831.658 876.908 832.801 877.887 833.372 879.52C835.331 886.048 833.005 891.516 826.394 895.923C824.027 897.556 821.498 898.943 818.804 900.086C816.111 901.228 813.336 902.33 810.48 903.391C808.277 904.207 807.216 905.472 807.297 907.186C807.379 908.002 807.542 908.614 807.787 909.022C808.032 909.348 808.889 909.308 810.358 908.9C813.051 908.083 815.336 907.879 817.213 908.287C819.09 908.696 820.967 909.797 822.844 911.593C824.395 912.98 825.823 914.49 827.129 916.122C828.434 917.673 829.577 919.305 830.556 921.019C833.005 925.018 834.759 929.139 835.82 933.383C836.963 937.627 837.697 941.911 838.024 946.237ZM829.087 907.675C831.944 909.389 834.474 911.144 836.677 912.939C838.881 914.653 841.084 916.367 843.288 918.081C846.552 920.611 848.674 923.59 849.653 927.017C851.204 931.751 851.938 936.484 851.857 941.218C851.775 945.869 850.714 950.562 848.674 955.296C847.858 957.173 846.96 959.05 845.981 960.927C845.083 962.804 843.818 964.599 842.186 966.313C842.594 966.313 842.92 966.313 843.165 966.313C843.41 966.395 843.614 966.395 843.777 966.313C848.837 965.415 852.877 963.416 855.897 960.315C858.916 957.213 860.426 953.745 860.426 949.909C860.426 945.829 859.936 941.87 858.957 938.035C858.059 934.117 856.876 930.241 855.407 926.405C854.101 922.814 852.469 919.305 850.51 915.877C848.633 912.368 846.756 908.9 844.879 905.472C844.634 904.982 844.308 904.533 843.9 904.125C843.573 903.717 842.961 903.717 842.064 904.125C838.391 905.921 834.066 907.104 829.087 907.675ZM811.459 946.114C812.275 945.706 813.296 945.625 814.52 945.869C815.744 946.033 816.723 945.584 817.458 944.523C818.764 942.646 819.784 940.728 820.518 938.769C821.253 936.811 821.824 934.811 822.232 932.771C822.395 932.036 822.15 931.547 821.498 931.302C820.763 930.975 819.702 930.935 818.315 931.179C816.927 931.424 815.622 931.792 814.397 932.281C813.173 932.771 812.439 933.301 812.194 933.873C811.459 935.423 810.766 936.974 810.113 938.524C809.46 940.075 808.807 941.666 808.154 943.299C807.746 944.36 807.746 945.094 808.154 945.502C808.644 945.91 809.746 946.114 811.459 946.114ZM824.191 934.362C823.538 936.321 822.844 938.239 822.11 940.116C821.457 941.993 820.559 943.788 819.416 945.502C818.274 947.379 817.58 949.297 817.335 951.256C817.172 953.133 817.131 955.051 817.213 957.009C817.213 957.907 817.662 958.642 818.56 959.213C819.212 959.621 820.11 959.907 821.253 960.07C822.477 960.233 823.701 960.274 824.925 960.192C826.149 960.029 827.047 959.743 827.618 959.335C828.026 959.09 828.271 958.846 828.353 958.601C828.434 958.274 828.434 957.948 828.353 957.621C828.026 955.5 827.904 953.378 827.986 951.256C828.067 949.052 827.986 946.89 827.741 944.768C827.578 942.972 827.251 941.218 826.761 939.504C826.272 937.708 825.415 935.994 824.191 934.362Z" fill="#D0A642"/>
<g filter="url(#filter2_d_327_6)">
<path d="M138.4 390.356C142.864 383.121 153.384 383.121 157.848 390.356L177.327 421.928C180.106 426.433 185.614 428.439 190.639 426.777L225.794 415.148C233.856 412.481 241.906 419.228 240.69 427.632L235.36 464.465C234.604 469.688 237.524 474.75 242.425 476.71L276.894 490.495C284.766 493.643 286.588 503.965 280.27 509.618L252.556 534.416C248.627 537.932 247.614 543.681 250.105 548.328L267.691 581.138C271.698 588.615 266.448 597.697 257.969 597.956L220.926 599.086C215.643 599.248 211.16 603.012 210.087 608.187L202.542 644.58C200.817 652.901 190.935 656.494 184.268 651.223L155.211 628.247C151.057 624.963 145.191 624.963 141.038 628.247L111.98 651.223C105.314 656.494 95.431 652.901 93.7059 644.58L86.1616 608.187C85.0886 603.012 80.6056 599.248 75.3224 599.086L38.2793 597.956C29.8003 597.697 24.5502 588.615 28.5576 581.138L46.1435 548.328C48.6346 543.681 47.6216 537.932 43.692 534.416L15.9779 509.618C9.66025 503.965 11.4826 493.643 19.354 490.495L53.8233 476.71C58.724 474.75 61.6444 469.688 60.8885 464.465L55.5582 427.632C54.342 419.228 62.3926 412.481 70.4542 415.148L105.609 426.777C110.634 428.439 116.143 426.433 118.921 421.928L138.4 390.356Z" fill="#643B6A"/>
<path d="M155.417 391.856L174.896 423.428C178.369 429.059 185.255 431.566 191.536 429.489L226.691 417.86C232.737 415.86 238.775 420.92 237.863 427.223L232.533 464.056C231.588 470.585 235.239 476.912 241.364 479.362L275.834 493.147C281.737 495.508 283.104 503.25 278.366 507.489L250.652 532.287C245.74 536.682 244.473 543.868 247.587 549.678L265.173 582.487C268.179 588.095 264.241 594.907 257.882 595.101L220.839 596.231C214.235 596.433 208.631 601.138 207.29 607.608L199.745 644C198.452 650.241 191.04 652.936 186.04 648.982L156.982 626.007C151.79 621.901 144.458 621.901 139.266 626.007L110.209 648.982C105.209 652.936 97.7967 650.241 96.5028 644L88.9585 607.608C87.6173 601.138 82.0136 596.433 75.4095 596.231L38.3665 595.101C32.0072 594.907 28.0696 588.095 31.0752 582.487L48.6611 549.678C51.7749 543.868 50.5087 536.682 45.5967 532.287L17.8826 507.489C13.1443 503.25 14.5111 495.508 20.4147 493.147L54.884 479.362C61.0098 476.912 64.6603 470.585 63.7154 464.056L58.3851 427.223C57.473 420.92 63.5109 415.86 69.5571 417.86L104.712 429.489C110.993 431.566 117.879 429.059 121.352 423.428L140.831 391.856C144.179 386.429 152.069 386.429 155.417 391.856Z" stroke="#D0A642" stroke-width="5.71278"/>
</g>
<path d="M124.947 491.459C124.865 489.663 124.906 487.95 125.069 486.317C125.314 484.685 125.6 483.053 125.926 481.421C126.824 477.095 129.354 474.198 133.516 472.729C135.393 472.076 137.229 471.587 139.025 471.26C140.902 470.852 142.86 470.811 144.901 471.138C146.206 471.301 147.512 471.219 148.818 470.893C150.205 470.566 151.552 470.322 152.858 470.158C154.898 469.914 156.897 469.873 158.856 470.036C160.815 470.199 162.692 470.73 164.487 471.627C167.67 473.178 170.078 475.708 171.71 479.217C173.342 482.726 173.954 486.277 173.546 489.867C173.056 493.703 172.077 497.376 170.608 500.885C169.221 504.313 167.629 507.699 165.834 511.046C163.549 515.371 161.1 519.615 158.489 523.777C155.959 527.857 153.143 531.816 150.042 535.651C148.9 537.12 147.716 538.589 146.492 540.058C145.349 541.446 144.084 542.711 142.697 543.853C141.636 544.588 141.759 545.159 143.064 545.567C144.207 545.893 145.349 546.179 146.492 546.424C147.635 546.587 148.736 546.832 149.797 547.158C151.674 547.73 153.511 548.423 155.306 549.24C157.101 550.056 158.734 550.994 160.203 552.055C161.753 553.116 163.304 553.728 164.855 553.891C166.487 553.973 168.078 554.177 169.629 554.503C171.343 554.83 172.363 555.197 172.689 555.605C173.016 556.013 173.056 557.074 172.812 558.788C172.567 560.094 172.281 561.4 171.955 562.705C171.71 564.011 171.465 565.358 171.22 566.745C170.894 568.132 169.996 568.785 168.527 568.704C167.711 568.541 166.854 568.418 165.956 568.337C165.14 568.255 164.324 568.051 163.508 567.724C162.039 567.072 161.182 567.48 160.937 568.949C160.856 569.275 160.774 569.561 160.692 569.806C160.611 570.05 160.529 570.336 160.448 570.662C160.121 572.866 159.264 574.417 157.877 575.314C156.489 576.212 154.857 576.824 152.98 577.151C149.226 577.64 145.472 578.048 141.718 578.375C138.045 578.783 134.291 578.905 130.455 578.742C127.925 578.579 125.396 578.375 122.866 578.13C120.417 577.967 117.928 578.007 115.398 578.252C114.582 578.334 113.807 578.456 113.072 578.62C112.419 578.783 111.685 578.824 110.869 578.742C109.563 578.579 108.706 578.211 108.298 577.64C107.89 577.151 107.849 576.253 108.176 574.947C108.747 572.825 109.4 570.785 110.134 568.826C110.869 566.786 111.644 564.746 112.46 562.705C115.561 555.442 118.867 548.26 122.376 541.16C125.967 534.06 129.394 526.919 132.659 519.737C133.801 517.289 134.985 514.881 136.209 512.515C137.433 510.066 138.821 507.699 140.371 505.414C141.514 503.619 142.534 501.783 143.432 499.906C144.411 498.029 145.064 496.07 145.39 494.03C145.553 493.458 145.635 492.887 145.635 492.316C145.635 491.744 145.553 491.173 145.39 490.602C145.227 490.031 145.064 489.459 144.901 488.888C144.737 488.235 144.329 487.868 143.676 487.786C143.024 487.623 142.411 487.705 141.84 488.031C141.269 488.358 140.738 488.725 140.249 489.133C139.514 489.867 139.025 490.724 138.78 491.704C138.535 492.601 138.249 493.54 137.923 494.519C137.841 494.846 137.76 495.172 137.678 495.499C137.678 495.825 137.637 496.192 137.556 496.6C137.148 498.233 136.739 499.212 136.331 499.538C136.005 499.865 134.985 499.987 133.271 499.906C132.373 499.824 131.435 499.824 130.455 499.906C129.558 499.906 128.66 500.11 127.762 500.518C126.865 500.844 126.252 500.844 125.926 500.518C125.681 500.11 125.559 499.579 125.559 498.926C125.477 497.62 125.314 496.356 125.069 495.131C124.906 493.826 124.865 492.601 124.947 491.459ZM148.451 471.872C148.777 472.117 149.022 472.321 149.185 472.484C149.348 472.566 149.512 472.647 149.675 472.729C149.838 472.729 150.001 472.729 150.165 472.729C152.776 473.3 154.694 474.443 155.918 476.157C157.142 477.789 157.918 479.87 158.244 482.4C158.57 484.44 158.57 486.44 158.244 488.398C157.918 490.357 157.55 492.316 157.142 494.274C156.489 497.131 155.714 499.987 154.816 502.844C154 505.7 152.694 508.352 150.899 510.801C149.185 513.167 147.594 515.657 146.125 518.268C144.737 520.798 143.35 523.369 141.963 525.98C139.596 530.224 137.311 534.59 135.107 539.079C132.985 543.486 130.619 547.73 128.007 551.81C127.599 552.463 127.477 552.953 127.64 553.279C127.803 553.524 128.293 553.687 129.109 553.769C131.394 553.932 133.679 553.973 135.964 553.891C138.249 553.81 140.534 554.463 142.82 555.85C144.37 556.748 146.084 557.401 147.961 557.809C149.92 558.135 151.797 558.543 153.592 559.033C154 559.114 154.327 559.196 154.572 559.278C154.898 559.278 155.224 559.114 155.551 558.788C156.204 557.972 156.816 557.197 157.387 556.462C157.958 555.728 158.53 554.952 159.101 554.136C159.672 553.402 159.591 552.912 158.856 552.667C156.571 551.851 154.367 550.831 152.246 549.607C150.205 548.301 147.92 547.526 145.39 547.281C144.574 547.199 143.758 547.036 142.942 546.791C142.207 546.465 141.473 546.179 140.738 545.934C139.514 545.526 139.433 544.833 140.494 543.853C140.983 543.445 141.473 543.037 141.963 542.629C142.452 542.139 142.942 541.65 143.432 541.16C147.675 536.427 151.593 531.489 155.184 526.348C158.856 521.206 162.121 515.779 164.977 510.066C166.691 506.72 168.241 503.333 169.629 499.906C171.016 496.478 171.914 492.846 172.322 489.011C172.73 485.42 171.955 481.992 169.996 478.727C168.119 475.463 165.507 473.219 162.161 471.995C159.958 471.178 157.714 470.893 155.428 471.138C153.225 471.383 150.899 471.627 148.451 471.872ZM133.026 577.518C136.372 577.518 139.392 577.355 142.085 577.028C144.86 576.783 147.512 576.498 150.042 576.171C152.327 575.845 154 575.518 155.061 575.192C156.204 574.865 157.061 574.213 157.632 573.233C158.203 572.254 158.815 570.703 159.468 568.581C160.203 566.215 159.346 565.113 156.897 565.276C155.102 565.439 153.307 565.603 151.511 565.766C149.716 565.929 147.961 566.215 146.247 566.623C142.003 567.684 137.719 568.092 133.393 567.847C129.15 567.602 124.906 567.194 120.662 566.623C119.03 566.378 118.54 565.603 119.193 564.297C120.091 562.42 120.989 560.624 121.886 558.91C122.784 557.115 123.804 555.401 124.947 553.769C127.15 550.749 129.068 547.607 130.7 544.343C132.414 540.997 134.169 537.692 135.964 534.427C137.841 530.918 139.637 527.409 141.351 523.899C143.064 520.308 145.064 516.881 147.349 513.616C149.471 510.76 151.185 507.781 152.49 504.68C153.878 501.497 154.939 498.151 155.673 494.642C156.081 492.765 156.408 490.847 156.653 488.888C156.979 486.848 157.061 484.848 156.897 482.89C156.734 481.094 156.285 479.421 155.551 477.871C154.898 476.32 153.715 475.218 152.001 474.565C149.144 473.423 146.247 472.607 143.309 472.117C140.371 471.627 137.352 472.076 134.25 473.464C132.537 474.198 131.068 475.137 129.843 476.279C128.701 477.34 127.925 478.809 127.517 480.686C126.865 483.379 126.416 486.073 126.171 488.766C126.008 491.459 126.171 494.193 126.661 496.968C126.905 498.437 127.803 499.171 129.354 499.171C131.312 499.089 132.7 498.967 133.516 498.804C134.332 498.559 134.944 498.069 135.352 497.335C135.76 496.519 136.209 495.172 136.699 493.295C137.107 491.908 137.637 490.684 138.29 489.623C139.025 488.48 140.126 487.623 141.595 487.052C144.533 485.991 146.288 486.97 146.859 489.99C147.186 491.704 147.104 493.377 146.614 495.009C146.206 496.56 145.635 498.11 144.901 499.661C143.024 503.578 140.942 507.373 138.657 511.046C136.454 514.718 134.495 518.595 132.781 522.675C130.659 527.653 128.293 532.591 125.681 537.488C123.07 542.303 120.703 547.24 118.581 552.3C117.03 555.972 115.398 559.604 113.684 563.195C111.971 566.704 110.665 570.377 109.767 574.213C109.441 575.6 109.481 576.538 109.889 577.028C110.297 577.518 111.236 577.64 112.705 577.395C113.848 577.232 114.949 577.028 116.01 576.783C117.071 576.62 118.132 576.579 119.193 576.661C121.805 576.742 124.294 576.865 126.661 577.028C129.109 577.191 131.231 577.355 133.026 577.518ZM160.08 556.095C159.264 556.666 158.611 557.237 158.122 557.809C157.714 558.38 157.305 558.992 156.897 559.645C156.571 559.971 156.245 560.257 155.918 560.502C155.592 560.747 155.102 560.787 154.449 560.624C152.898 560.216 151.348 559.767 149.797 559.278C148.247 558.788 146.655 558.38 145.023 558.054C143.717 557.809 142.493 557.319 141.351 556.585C140.29 555.85 139.106 555.442 137.8 555.36C136.087 555.197 134.332 555.156 132.537 555.238C130.823 555.32 129.068 555.36 127.273 555.36C126.946 555.36 126.579 555.401 126.171 555.483C125.844 555.564 125.518 555.809 125.192 556.217C123.641 558.502 122.294 561.032 121.152 563.807C120.907 564.786 121.152 565.317 121.886 565.399C124.498 565.643 127.069 566.011 129.599 566.5C132.21 566.99 134.781 567.031 137.311 566.623C140.086 566.215 142.82 565.847 145.513 565.521C148.206 565.113 150.94 564.623 153.715 564.052C154.612 563.889 155.592 563.93 156.653 564.174C157.714 564.419 158.57 564.093 159.223 563.195C159.795 562.297 159.999 561.359 159.835 560.379C159.754 559.318 159.835 558.339 160.08 557.441C160.162 557.278 160.162 557.115 160.08 556.952C160.08 556.707 160.08 556.421 160.08 556.095ZM163.875 555.483C163.059 555.238 162.447 555.36 162.039 555.85C161.712 556.258 161.508 556.789 161.427 557.441C161.345 558.094 161.304 558.788 161.304 559.523C161.386 560.175 161.345 560.828 161.182 561.481C161.1 562.216 161.019 562.95 160.937 563.685C160.937 564.419 161.345 565.031 162.161 565.521C163.141 566.092 164.202 566.541 165.344 566.868C166.487 567.194 167.629 567.316 168.772 567.235C169.18 567.153 169.425 566.99 169.506 566.745C169.67 566.419 169.792 566.092 169.874 565.766C170.526 563.317 171.016 560.869 171.343 558.421C171.669 556.87 170.975 556.013 169.262 555.85C168.364 555.768 167.466 555.728 166.568 555.728C165.671 555.646 164.773 555.564 163.875 555.483Z" fill="#D0A642"/>
<g filter="url(#filter3_d_327_6)">
<path d="M808.407 14.6434C812.554 7.9213 822.328 7.9213 826.476 14.6434L844.573 43.9772C847.155 48.162 852.273 50.0259 856.941 48.4817L889.604 37.6773C897.094 35.1996 904.573 41.4681 903.443 49.2759L898.491 83.4972C897.789 88.3504 900.502 93.053 905.055 94.8739L937.08 107.681C944.394 110.606 946.087 120.197 940.217 125.449L914.468 148.488C910.817 151.755 909.876 157.096 912.19 161.414L928.529 191.897C932.253 198.844 927.375 207.282 919.497 207.523L885.081 208.573C880.172 208.723 876.007 212.22 875.01 217.029L868.001 250.841C866.398 258.572 857.216 261.91 851.022 257.013L824.025 235.666C820.166 232.615 814.716 232.615 810.857 235.666L783.86 257.013C777.666 261.91 768.484 258.572 766.882 250.841L759.872 217.029C758.875 212.22 754.71 208.723 749.802 208.573L715.385 207.523C707.508 207.282 702.63 198.844 706.353 191.897L722.692 161.414C725.006 157.096 724.065 151.755 720.414 148.488L694.665 125.449C688.796 120.197 690.489 110.606 697.802 107.681L729.827 94.8739C734.38 93.053 737.094 88.3504 736.391 83.4972L731.439 49.2759C730.309 41.4682 737.789 35.1996 745.279 37.6773L777.941 48.4817C782.609 50.0259 787.727 48.162 790.309 43.9772L808.407 14.6434Z" fill="#643B6A"/>
<path d="M824.217 16.0369L842.315 45.3706C845.542 50.6016 851.939 52.9316 857.775 51.0013L890.437 40.1968C896.055 38.3386 901.664 43.04 900.817 48.8958L895.865 83.1171C894.987 89.1836 898.378 95.0619 904.07 97.338L936.095 110.146C941.58 112.339 942.85 119.532 938.447 123.471L912.699 146.511C908.135 150.594 906.958 157.27 909.851 162.668L926.19 193.151C928.983 198.361 925.324 204.69 919.416 204.87L885 205.92C878.864 206.108 873.658 210.479 872.411 216.49L865.402 250.302C864.2 256.1 857.313 258.604 852.668 254.931L825.671 233.584C820.847 229.77 814.035 229.77 809.211 233.584L782.214 254.931C777.569 258.604 770.682 256.1 769.48 250.302L762.471 216.49C761.225 210.479 756.018 206.108 749.883 205.92L715.466 204.87C709.558 204.69 705.9 198.361 708.692 193.151L725.031 162.668C727.924 157.27 726.747 150.594 722.184 146.511L696.435 123.471C692.033 119.532 693.302 112.339 698.787 110.146L730.813 97.338C736.504 95.0619 739.896 89.1836 739.018 83.1171L734.065 48.8958C733.218 43.04 738.828 38.3386 744.445 40.1968L777.108 51.0013C782.943 52.9316 789.341 50.6017 792.568 45.3706L810.665 16.0369C813.776 10.9953 821.106 10.9953 824.217 16.0369Z" stroke="#D0A642" stroke-width="5.30769"/>
</g>
<path d="M805.916 104.438C803.717 106.106 801.708 107.774 799.888 109.442C798.068 111.035 796.324 112.703 794.656 114.447C791.396 118.086 788.249 121.688 785.216 125.252C784.913 125.555 784.609 125.858 784.306 126.161C784.003 126.465 783.624 126.579 783.169 126.503C782.638 126.351 782.335 126.086 782.259 125.707C782.259 125.252 782.259 124.835 782.259 124.455C781.956 122.029 781.766 119.603 781.69 117.176C781.69 114.674 781.463 112.248 781.008 109.897C780.856 109.063 781.008 108.532 781.463 108.305C781.918 108.077 782.411 107.926 782.941 107.85C785.292 107.547 787.453 106.902 789.424 105.916C791.396 104.931 793.329 103.755 795.225 102.391C795.983 101.784 796.703 101.215 797.386 100.685C798.144 100.154 798.902 99.623 799.661 99.0923C804.589 95.2252 808.001 90.2208 809.897 84.0791C810.2 83.1692 810.579 82.4489 811.034 81.9181C811.565 81.3873 812.323 81.1978 813.309 81.3494C814.522 81.501 815.659 81.3873 816.721 81.0082C817.783 80.6291 818.882 80.3258 820.019 80.0983C821.688 79.7192 822.825 80.4395 823.431 82.2593C825.1 87.8703 826.54 93.5571 827.753 99.3197C828.967 105.007 829.952 110.769 830.711 116.608C831.545 122.825 832.189 129.081 832.644 135.374C833.175 141.592 833.44 147.847 833.44 154.141C833.44 156.794 833.516 159.486 833.668 162.216C833.819 164.87 834.085 167.524 834.464 170.177C834.691 171.239 834.653 172.111 834.35 172.793C834.047 173.476 833.251 173.893 831.962 174.044C831.203 174.196 830.445 174.386 829.687 174.613C829.005 174.841 828.284 175.068 827.526 175.296C826.616 175.599 825.706 175.902 824.796 176.205C823.962 176.509 823.394 177.267 823.09 178.48C823.014 179.011 822.711 179.314 822.18 179.39C821.725 179.542 821.27 179.655 820.816 179.731C817.1 180.49 813.309 181.096 809.442 181.551C805.651 182.082 801.859 182.537 798.068 182.916C797.007 182.992 796.362 182.84 796.135 182.461C795.907 182.082 795.869 181.437 796.021 180.527C797.462 172.642 798.94 164.756 800.457 156.87C802.049 148.909 803.149 140.909 803.755 132.872C804.134 128.247 804.475 123.621 804.779 118.996C805.158 114.295 805.537 109.442 805.916 104.438ZM819.792 81.8043C819.034 81.6527 818.313 81.7664 817.631 82.1456C817.024 82.5247 816.418 82.6763 815.811 82.6005C814.295 82.373 813.195 82.6005 812.513 83.2829C811.906 83.9653 811.603 84.989 811.603 86.3538C811.527 86.7329 811.375 87.15 811.148 87.6049C810.996 87.984 811.186 88.3252 811.717 88.6285C812.627 89.1593 813.499 89.1593 814.333 88.6285C815.773 87.8703 816.911 86.9225 817.745 85.7851C818.579 84.6478 819.261 83.3208 819.792 81.8043ZM821.725 83.8516C820.209 85.0648 819.564 86.5434 819.792 88.2873C820.171 90.8653 820.55 93.4813 820.929 96.1351C821.308 98.7131 821.65 101.329 821.953 103.983C822.256 106.637 822.484 109.329 822.635 112.058C822.863 114.712 823.014 117.366 823.09 120.02C823.318 123.735 823.431 127.488 823.431 131.28C823.431 135.071 823.545 138.862 823.773 142.653C824 146.899 824.114 151.183 824.114 155.505C824.114 159.827 824.038 164.111 823.886 168.358C823.811 170.253 823.811 171.618 823.886 172.452C823.962 173.21 824.379 173.59 825.138 173.59C825.896 173.59 827.185 173.438 829.005 173.135C830.749 172.755 831.81 172.263 832.189 171.656C832.644 170.974 832.796 169.722 832.644 167.903C832.568 166.235 832.455 164.604 832.303 163.012C832.227 161.344 832.113 159.676 831.962 158.008C831.658 154.899 831.583 151.79 831.734 148.681C831.962 145.572 831.886 142.502 831.507 139.469C831.203 136.436 830.9 133.441 830.597 130.483C830.369 127.526 830.066 124.531 829.687 121.498C829.156 116.721 828.512 111.982 827.753 107.281C826.995 102.504 826.009 97.8032 824.796 93.178C824.417 91.6615 823.924 90.145 823.318 88.6285C822.787 87.112 822.256 85.5197 821.725 83.8516ZM783.624 124.114C784.003 123.659 784.268 123.318 784.42 123.091C784.647 122.863 784.875 122.636 785.102 122.408C788.211 118.996 791.32 115.622 794.429 112.286C797.538 108.874 800.95 105.765 804.665 102.959C805.044 102.732 805.423 102.466 805.802 102.163C806.257 101.86 806.712 101.86 807.167 102.163C807.698 102.391 807.925 102.77 807.85 103.301C807.85 103.755 807.888 104.21 807.963 104.665C807.963 105.12 807.925 105.575 807.85 106.03C807.774 106.485 807.698 106.94 807.622 107.395C807.319 110.352 806.978 113.347 806.599 116.38C806.295 119.337 806.068 122.294 805.916 125.252C805.613 130.787 805.158 136.322 804.551 141.857C804.02 147.392 803.224 152.852 802.163 158.235C801.556 161.647 800.912 165.021 800.229 168.358C799.547 171.618 798.864 174.916 798.182 178.253C798.03 179.011 798.068 179.618 798.296 180.072C798.523 180.527 799.13 180.679 800.116 180.527C803.376 180.148 806.636 179.769 809.897 179.39C813.157 179.087 816.38 178.632 819.564 178.025C820.171 177.874 820.626 177.684 820.929 177.457C821.233 177.305 821.422 176.85 821.498 176.092C821.877 172.149 822.142 168.206 822.294 164.263C822.446 160.244 822.446 156.226 822.294 152.207C821.991 143.26 821.763 134.237 821.612 125.138C821.536 119.299 821.233 113.499 820.702 107.736C820.171 101.974 819.375 96.2109 818.313 90.4483C818.162 89.5384 817.896 89.0456 817.517 88.9697C817.214 88.8181 816.721 89.0076 816.039 89.5384C815.432 89.9175 814.788 90.2587 814.105 90.562C813.423 90.7895 812.664 90.7895 811.83 90.562C810.92 90.2587 810.162 90.2967 809.556 90.6758C808.949 91.0549 808.418 91.6236 807.963 92.3818C807.357 93.3675 806.788 94.4291 806.257 95.5664C805.727 96.628 804.93 97.5379 803.869 98.2961C800.836 100.571 797.803 102.846 794.77 105.12C791.813 107.319 788.363 108.722 784.42 109.329C783.889 109.404 783.434 109.556 783.055 109.783C782.752 110.011 782.638 110.428 782.714 111.035C783.093 113.082 783.245 115.167 783.169 117.29C783.169 119.413 783.32 121.688 783.624 124.114Z" fill="#D0A642"/>
<defs>
<filter id="filter0_d_327_6" x="7.16797" y="1177.27" width="291.912" height="288.766" filterUnits="userSpaceOnUse" color-interpolation-filters="sRGB">
<feFlood flood-opacity="0" result="BackgroundImageFix"/>
<feColorMatrix in="SourceAlpha" type="matrix" values="0 0 0 0 0 0 0 0 0 0 0 0 0 0 0 0 0 0 127 0" result="hardAlpha"/>
<feOffset dx="5" dy="5"/>
<feGaussianBlur stdDeviation="5"/>
<feComposite in2="hardAlpha" operator="out"/>
<feColorMatrix type="matrix" values="0 0 0 0 0.584314 0 0 0 0 0.160784 0 0 0 0 0.494118 0 0 0 1 0"/>
<feBlend mode="normal" in2="BackgroundImageFix" result="effect1_dropShadow_327_6"/>
<feBlend mode="normal" in="SourceGraphic" in2="effect1_dropShadow_327_6" result="shape"/>
</filter>
<filter id="filter1_d_327_6" x="686.988" y="770.031" width="291.912" height="288.766" filterUnits="userSpaceOnUse" color-interpolation-filters="sRGB">
<feFlood flood-opacity="0" result="BackgroundImageFix"/>
<feColorMatrix in="SourceAlpha" type="matrix" values="0 0 0 0 0 0 0 0 0 0 0 0 0 0 0 0 0 0 127 0" result="hardAlpha"/>
<feOffset dx="5" dy="5"/>
<feGaussianBlur stdDeviation="5"/>
<feComposite in2="hardAlpha" operator="out"/>
<feColorMatrix type="matrix" values="0 0 0 0 0.584314 0 0 0 0 0.160784 0 0 0 0 0.494118 0 0 0 1 0"/>
<feBlend mode="normal" in2="BackgroundImageFix" result="effect1_dropShadow_327_6"/>
<feBlend mode="normal" in="SourceGraphic" in2="effect1_dropShadow_327_6" result="shape"/>
</filter>
<filter id="filter2_d_327_6" x="7.16797" y="379.93" width="291.912" height="288.766" filterUnits="userSpaceOnUse" color-interpolation-filters="sRGB">
<feFlood flood-opacity="0" result="BackgroundImageFix"/>
<feColorMatrix in="SourceAlpha" type="matrix" values="0 0 0 0 0 0 0 0 0 0 0 0 0 0 0 0 0 0 127 0" result="hardAlpha"/>
<feOffset dx="5" dy="5"/>
<feGaussianBlur stdDeviation="5"/>
<feComposite in2="hardAlpha" operator="out"/>
<feColorMatrix type="matrix" values="0 0 0 0 0.584314 0 0 0 0 0.160784 0 0 0 0 0.494118 0 0 0 1 0"/>
<feBlend mode="normal" in2="BackgroundImageFix" result="effect1_dropShadow_327_6"/>
<feBlend mode="normal" in="SourceGraphic" in2="effect1_dropShadow_327_6" result="shape"/>
</filter>
<filter id="filter3_d_327_6" x="686.48" y="4.95635" width="271.213" height="268.29" filterUnits="userSpaceOnUse" color-interpolation-filters="sRGB">
<feFlood flood-opacity="0" result="BackgroundImageFix"/>
<feColorMatrix in="SourceAlpha" type="matrix" values="0 0 0 0 0 0 0 0 0 0 0 0 0 0 0 0 0 0 127 0" result="hardAlpha"/>
<feOffset dx="4.64546" dy="4.64546"/>
<feGaussianBlur stdDeviation="4.64546"/>
<feComposite in2="hardAlpha" operator="out"/>
<feColorMatrix type="matrix" values="0 0 0 0 0.584314 0 0 0 0 0.160784 0 0 0 0 0.494118 0 0 0 1 0"/>
<feBlend mode="normal" in2="BackgroundImageFix" result="effect1_dropShadow_327_6"/>
<feBlend mode="normal" in="SourceGraphic" in2="effect1_dropShadow_327_6" result="shape"/>
</filter>
</defs>
</svg>
