<svg width="300" height="298" viewBox="0 0 300 298" fill="none" xmlns="http://www.w3.org/2000/svg">
<g filter="url(#filter0_d_326_4)">
<path d="M139.221 16.4571C143.684 9.22189 154.205 9.2219 158.668 16.4571L178.147 48.0296C180.926 52.5338 186.435 54.54 191.459 52.8779L226.614 41.2488C234.676 38.5821 242.727 45.3291 241.51 53.7327L236.18 90.5658C235.424 95.7894 238.345 100.851 243.245 102.811L277.715 116.596C285.586 119.744 287.408 130.066 281.091 135.719L253.377 160.517C249.447 164.033 248.434 169.782 250.925 174.429L268.511 207.239C272.518 214.716 267.268 223.798 258.789 224.057L221.746 225.187C216.463 225.349 211.98 229.113 210.907 234.288L203.363 270.681C201.638 279.002 191.755 282.595 185.088 277.324L156.031 254.348C151.877 251.064 146.012 251.064 141.858 254.348L112.8 277.324C106.134 282.595 96.2513 279.002 94.5262 270.681L86.9819 234.288C85.9089 229.113 81.426 225.349 76.1427 225.187L39.0996 224.057C30.6207 223.798 25.3705 214.716 29.3779 207.239L46.9639 174.429C49.4549 169.782 48.4419 164.033 44.5123 160.517L16.7982 135.719C10.4806 130.066 12.3029 119.744 20.1743 116.596L54.6436 102.811C59.5443 100.851 62.4647 95.7894 61.7088 90.5658L56.3785 53.7327C55.1623 45.3291 63.2129 38.5821 71.2745 41.2488L106.43 52.8779C111.454 54.54 116.963 52.5338 119.742 48.0296L139.221 16.4571Z" fill="#643B6A"/>
<path d="M141.652 17.9569C144.999 12.5305 152.89 12.5305 156.237 17.9569L175.716 49.5294C179.19 55.1596 186.075 57.6674 192.356 55.5897L227.512 43.9607C233.558 41.9607 239.596 47.0209 238.684 53.3236L233.353 90.1566C232.408 96.6861 236.059 103.013 242.185 105.463L276.654 119.248C282.558 121.609 283.924 129.351 279.186 133.59L251.472 158.388C246.56 162.784 245.294 169.969 248.408 175.779L265.993 208.589C268.999 214.196 265.061 221.008 258.702 221.202L221.659 222.332C215.055 222.534 209.451 227.239 208.11 233.709L200.566 270.101C199.272 276.342 191.86 279.037 186.86 275.083L157.803 252.108C152.611 248.002 145.278 248.002 140.086 252.108L111.029 275.083C106.029 279.037 98.617 276.342 97.3232 270.101L89.7788 233.709C88.4376 227.239 82.8339 222.534 76.2298 222.332L39.1868 221.202C32.8275 221.008 28.8899 214.196 31.8955 208.589L49.4814 175.779C52.5952 169.969 51.329 162.784 46.417 158.388L18.7029 133.59C13.9647 129.351 15.3314 121.609 21.235 119.248L55.7043 105.463C61.8301 103.013 65.4806 96.6861 64.5357 90.1566L59.2054 53.3236C58.2933 47.0209 64.3312 41.9607 70.3774 43.9607L105.533 55.5897C111.814 57.6674 118.699 55.1596 122.173 49.5294L141.652 17.9569Z" stroke="#D0A642" stroke-width="5.71278"/>
</g>
<path d="M170.041 118.947C170.368 121.967 170.164 125.027 169.429 128.128C168.776 131.148 167.919 134.209 166.858 137.31C166.777 137.718 166.695 138.126 166.614 138.534C166.614 138.86 166.736 139.228 166.981 139.636C168.205 141.676 169.47 143.757 170.776 145.879C172.082 147.919 173.142 150 173.959 152.122C175.509 155.958 177.06 159.794 178.61 163.629C180.161 167.383 181.181 171.301 181.671 175.381C181.916 177.258 182.283 179.135 182.773 181.013C183.344 182.89 183.548 184.767 183.385 186.644C183.058 190.398 181.344 193.907 178.243 197.172C175.142 200.436 171.021 202.599 165.879 203.66C164.165 203.986 162.492 204.394 160.86 204.884C159.228 205.373 157.677 206.067 156.208 206.965C154.413 208.107 152.291 208.76 149.843 208.924C147.394 209.168 145.027 208.883 142.742 208.067C140.457 207.332 138.58 206.026 137.111 204.149C135.561 202.027 133.928 199.905 132.215 197.784C130.582 195.662 128.705 193.662 126.583 191.785C126.094 191.377 125.767 190.928 125.604 190.439C125.522 189.867 125.482 189.296 125.482 188.725C125.89 185.379 126.583 182.073 127.563 178.809C128.624 175.545 129.889 172.321 131.358 169.138C131.929 167.914 133.031 167.057 134.663 166.567C137.111 165.996 139.682 165.833 142.375 166.078C144.089 166.159 145.354 166.812 146.17 168.036C147.802 170.403 148.945 172.851 149.598 175.381C150.251 177.911 150.699 180.482 150.944 183.094C151.107 184.644 151.107 186.236 150.944 187.868C150.863 189.5 150.985 191.091 151.312 192.642C151.393 192.969 151.434 193.295 151.434 193.621C151.516 193.866 151.801 194.029 152.291 194.111C152.699 194.111 153.025 194.029 153.27 193.866C153.597 193.621 153.882 193.377 154.127 193.132C154.943 192.071 155.514 191.01 155.841 189.949C157.392 185.787 157.759 181.706 156.943 177.707C156.127 173.708 155.147 169.709 154.005 165.71C152.944 162.364 151.352 159.222 149.23 156.284C147.109 153.346 144.579 150.572 141.641 147.96C139.845 146.328 138.254 145.43 136.866 145.267C135.479 145.104 133.479 145.43 130.868 146.246C128.828 146.899 127.685 147.144 127.44 146.981C127.195 146.736 126.91 145.838 126.583 144.287C126.094 142.247 126.42 140.778 127.563 139.881C128.787 138.983 130.419 138.207 132.459 137.555C138.58 135.759 143.926 132.984 148.496 129.23C150.863 127.19 152.291 125.068 152.781 122.865C153.27 120.579 153.107 118.213 152.291 115.764C151.801 114.459 151.026 113.724 149.965 113.561C148.904 113.398 147.761 113.847 146.537 114.907C145.966 115.397 145.436 115.968 144.946 116.621C144.456 117.193 144.007 117.805 143.599 118.458C142.946 119.437 142.375 119.967 141.885 120.049C141.396 120.049 140.62 119.641 139.56 118.825C138.417 117.927 137.315 117.07 136.254 116.254C135.193 115.356 134.132 114.459 133.071 113.561C132.5 113.071 131.929 112.582 131.358 112.092C130.868 111.602 130.215 111.194 129.399 110.868C127.685 110.133 127.644 109.276 129.277 108.297C130.909 107.399 132.5 106.461 134.051 105.481C135.683 104.502 137.397 103.686 139.192 103.033C141.069 102.299 143.028 101.809 145.068 101.564C147.109 101.238 149.149 101.278 151.189 101.687C152.087 101.768 152.903 101.768 153.637 101.687C154.372 101.605 155.025 101.278 155.596 100.707C155.759 100.544 155.963 100.422 156.208 100.34C156.453 100.177 156.698 100.054 156.943 99.9727C162.411 97.2795 165.92 98.2996 167.471 103.033C168.368 105.563 169.103 108.134 169.674 110.745C170.245 113.357 170.368 116.091 170.041 118.947ZM168.45 118.702C168.858 116.091 168.654 113.479 167.838 110.868C167.103 108.256 166.287 105.645 165.389 103.033C164.818 101.156 163.798 100.095 162.329 99.8502C160.942 99.6054 159.309 100.054 157.432 101.197C156.698 101.686 156.29 102.135 156.208 102.543C156.127 102.951 156.494 103.441 157.31 104.012C159.84 105.563 161.227 107.481 161.472 109.766C161.88 113.357 161.921 116.948 161.595 120.539C161.268 124.048 160.248 127.516 158.534 130.944C157.718 132.74 156.616 134.413 155.229 135.963C153.923 137.432 152.495 138.901 150.944 140.37C150.781 140.533 150.577 140.778 150.332 141.105C150.169 141.349 150.21 141.554 150.455 141.717C150.618 141.962 150.863 142.084 151.189 142.084C151.597 142.002 151.964 141.921 152.291 141.839C154.168 141.676 155.923 141.309 157.555 140.737C159.187 140.085 160.819 139.472 162.451 138.901C164.084 138.248 165.063 137.351 165.389 136.208C166.287 133.352 167.062 130.495 167.715 127.639C168.45 124.782 168.695 121.804 168.45 118.702ZM159.024 182.237V185.542C158.697 189.133 157.636 191.867 155.841 193.744C154.127 195.539 151.271 196.763 147.272 197.416C146.7 197.498 146.129 197.58 145.558 197.661C145.068 197.661 144.579 197.702 144.089 197.784C142.13 197.947 140.376 197.58 138.825 196.682C137.274 195.703 136.377 194.519 136.132 193.132C135.805 191.744 135.724 190.398 135.887 189.092C136.05 187.786 136.295 186.48 136.622 185.175C136.948 183.787 136.254 183.134 134.54 183.216C133.888 183.298 133.194 183.338 132.459 183.338C131.806 183.257 131.154 183.216 130.501 183.216C130.174 183.216 129.807 183.257 129.399 183.338C128.991 183.338 128.746 183.461 128.664 183.706C128.338 184.848 127.93 186.072 127.44 187.378C126.951 188.684 127.155 189.827 128.052 190.806C130.093 193.009 132.01 195.254 133.806 197.539C135.601 199.742 137.397 201.987 139.192 204.272C140.58 205.822 142.538 206.802 145.068 207.21C147.598 207.699 149.72 207.659 151.434 207.087C154.045 206.19 156.331 205.006 158.289 203.537C160.33 202.15 162.084 200.558 163.553 198.763C165.185 196.804 166.41 194.764 167.226 192.642C168.042 190.439 168.735 188.276 169.307 186.154C170.776 181.339 171.347 176.565 171.021 171.831C170.776 167.098 169.103 162.528 166.002 158.121C164.043 155.264 161.472 152.775 158.289 150.653C155.106 148.45 151.801 146.409 148.374 144.532C147.557 144.124 147.068 143.716 146.905 143.308C146.741 142.9 146.864 142.37 147.272 141.717C147.925 140.819 148.659 139.962 149.475 139.146C150.373 138.248 151.23 137.391 152.046 136.575C155.882 132.658 158.208 128.455 159.024 123.966C159.84 119.478 160.044 114.948 159.636 110.378C159.391 107.767 157.759 105.685 154.739 104.135C151.801 102.503 148.374 102.013 144.456 102.666C141.763 103.237 139.437 104.135 137.478 105.359C135.52 106.583 133.439 107.685 131.235 108.664C130.582 108.991 130.582 109.44 131.235 110.011C132.623 111.153 133.969 112.337 135.275 113.561C136.662 114.785 138.009 115.968 139.315 117.111C140.702 118.172 141.804 118.009 142.62 116.621C143.028 115.968 143.518 115.438 144.089 115.03C144.66 114.54 145.272 114.091 145.925 113.683C147.639 112.541 149.312 112.174 150.944 112.582C152.658 112.908 153.801 113.887 154.372 115.52C156.331 122.048 154.005 127.516 147.394 131.923C145.027 133.556 142.498 134.943 139.804 136.086C137.111 137.228 134.336 138.33 131.48 139.391C129.277 140.207 128.216 141.472 128.297 143.186C128.379 144.002 128.542 144.614 128.787 145.022C129.032 145.348 129.889 145.308 131.358 144.9C134.051 144.083 136.336 143.879 138.213 144.287C140.09 144.696 141.967 145.797 143.844 147.593C145.395 148.98 146.823 150.49 148.129 152.122C149.434 153.673 150.577 155.305 151.556 157.019C154.005 161.018 155.759 165.139 156.82 169.383C157.963 173.627 158.697 177.911 159.024 182.237ZM150.087 143.675C152.944 145.389 155.474 147.144 157.677 148.939C159.881 150.653 162.084 152.367 164.288 154.081C167.552 156.611 169.674 159.59 170.653 163.017C172.204 167.751 172.938 172.484 172.857 177.218C172.775 181.869 171.714 186.562 169.674 191.296C168.858 193.173 167.96 195.05 166.981 196.927C166.083 198.804 164.818 200.599 163.186 202.313C163.594 202.313 163.92 202.313 164.165 202.313C164.41 202.395 164.614 202.395 164.777 202.313C169.837 201.415 173.877 199.416 176.897 196.315C179.916 193.213 181.426 189.745 181.426 185.909C181.426 181.829 180.936 177.87 179.957 174.035C179.059 170.117 177.876 166.241 176.407 162.405C175.101 158.814 173.469 155.305 171.51 151.877C169.633 148.368 167.756 144.9 165.879 141.472C165.634 140.982 165.308 140.533 164.9 140.125C164.573 139.717 163.961 139.717 163.064 140.125C159.391 141.921 155.066 143.104 150.087 143.675ZM132.459 182.114C133.275 181.706 134.296 181.625 135.52 181.869C136.744 182.033 137.723 181.584 138.458 180.523C139.764 178.646 140.784 176.728 141.518 174.769C142.253 172.811 142.824 170.811 143.232 168.771C143.395 168.036 143.15 167.547 142.498 167.302C141.763 166.975 140.702 166.935 139.315 167.179C137.927 167.424 136.622 167.792 135.397 168.281C134.173 168.771 133.439 169.301 133.194 169.873C132.459 171.423 131.766 172.974 131.113 174.524C130.46 176.075 129.807 177.666 129.154 179.299C128.746 180.36 128.746 181.094 129.154 181.502C129.644 181.91 130.746 182.114 132.459 182.114ZM145.191 170.362C144.538 172.321 143.844 174.239 143.11 176.116C142.457 177.993 141.559 179.788 140.416 181.502C139.274 183.379 138.58 185.297 138.335 187.256C138.172 189.133 138.131 191.051 138.213 193.009C138.213 193.907 138.662 194.642 139.56 195.213C140.212 195.621 141.11 195.907 142.253 196.07C143.477 196.233 144.701 196.274 145.925 196.192C147.149 196.029 148.047 195.743 148.618 195.335C149.026 195.09 149.271 194.846 149.353 194.601C149.434 194.274 149.434 193.948 149.353 193.621C149.026 191.5 148.904 189.378 148.986 187.256C149.067 185.052 148.986 182.89 148.741 180.768C148.578 178.972 148.251 177.218 147.761 175.504C147.272 173.708 146.415 171.994 145.191 170.362Z" fill="#D0A642"/>
<defs>
<filter id="filter0_d_326_4" x="7.98828" y="6.03064" width="291.912" height="288.766" filterUnits="userSpaceOnUse" color-interpolation-filters="sRGB">
<feFlood flood-opacity="0" result="BackgroundImageFix"/>
<feColorMatrix in="SourceAlpha" type="matrix" values="0 0 0 0 0 0 0 0 0 0 0 0 0 0 0 0 0 0 127 0" result="hardAlpha"/>
<feOffset dx="5" dy="5"/>
<feGaussianBlur stdDeviation="5"/>
<feComposite in2="hardAlpha" operator="out"/>
<feColorMatrix type="matrix" values="0 0 0 0 0.584314 0 0 0 0 0.160784 0 0 0 0 0.494118 0 0 0 1 0"/>
<feBlend mode="normal" in2="BackgroundImageFix" result="effect1_dropShadow_326_4"/>
<feBlend mode="normal" in="SourceGraphic" in2="effect1_dropShadow_326_4" result="shape"/>
</filter>
</defs>
</svg>
