<svg width="300" height="298" viewBox="0 0 300 298" fill="none" xmlns="http://www.w3.org/2000/svg">
<g filter="url(#filter0_d_325_2)">
<path d="M139.221 15.761C143.684 8.52584 154.205 8.52585 158.668 15.761L178.147 47.3335C180.926 51.8377 186.435 53.8439 191.459 52.1818L226.614 40.5528C234.676 37.8861 242.727 44.633 241.51 53.0367L236.18 89.8697C235.424 95.0933 238.345 100.155 243.245 102.115L277.715 115.9C285.586 119.048 287.408 129.37 281.091 135.023L253.377 159.821C249.447 163.337 248.434 169.086 250.925 173.733L268.511 206.543C272.518 214.02 267.268 223.102 258.789 223.361L221.746 224.491C216.463 224.653 211.98 228.417 210.907 233.592L203.363 269.985C201.638 278.306 191.755 281.899 185.088 276.628L156.031 253.652C151.877 250.368 146.012 250.368 141.858 253.652L112.8 276.628C106.134 281.899 96.2513 278.306 94.5262 269.985L86.9819 233.592C85.9089 228.417 81.426 224.653 76.1427 224.491L39.0996 223.361C30.6207 223.102 25.3705 214.02 29.3779 206.543L46.9639 173.733C49.4549 169.086 48.4419 163.337 44.5123 159.821L16.7982 135.023C10.4806 129.37 12.3029 119.048 20.1743 115.9L54.6436 102.115C59.5443 100.155 62.4647 95.0933 61.7088 89.8697L56.3785 53.0367C55.1623 44.633 63.2129 37.8861 71.2745 40.5528L106.43 52.1818C111.454 53.8439 116.963 51.8377 119.742 47.3335L139.221 15.761Z" fill="#643B6A"/>
<path d="M141.652 17.2608C144.999 11.8344 152.89 11.8344 156.237 17.2608L175.716 48.8333C179.19 54.4636 186.075 56.9713 192.356 54.8937L227.512 43.2647C233.558 41.2646 239.596 46.3248 238.684 52.6276L233.353 89.4606C232.408 95.9901 236.059 102.317 242.185 104.767L276.654 118.552C282.558 120.913 283.924 128.655 279.186 132.894L251.472 157.692C246.56 162.088 245.294 169.273 248.408 175.083L265.993 207.892C268.999 213.5 265.061 220.312 258.702 220.506L221.659 221.636C215.055 221.838 209.451 226.543 208.11 233.013L200.566 269.405C199.272 275.646 191.86 278.341 186.86 274.387L157.803 251.412C152.611 247.306 145.278 247.306 140.086 251.412L111.029 274.387C106.029 278.341 98.617 275.646 97.3232 269.405L89.7788 233.013C88.4376 226.543 82.8339 221.838 76.2298 221.636L39.1868 220.506C32.8275 220.312 28.8899 213.5 31.8955 207.892L49.4814 175.083C52.5952 169.273 51.329 162.088 46.417 157.692L18.7029 132.894C13.9647 128.655 15.3314 120.913 21.235 118.552L55.7043 104.767C61.8301 102.317 65.4806 95.9901 64.5357 89.4606L59.2054 52.6276C58.2933 46.3248 64.3312 41.2646 70.3774 43.2647L105.533 54.8937C111.814 56.9713 118.699 54.4636 122.173 48.8333L141.652 17.2608Z" stroke="#D0A642" stroke-width="5.71278"/>
</g>
<path d="M136.54 112.334C134.173 114.13 132.011 115.925 130.052 117.721C128.093 119.435 126.216 121.23 124.421 123.107C120.911 127.024 117.525 130.901 114.26 134.737C113.934 135.063 113.607 135.389 113.281 135.716C112.954 136.042 112.546 136.165 112.057 136.083C111.485 135.92 111.159 135.634 111.077 135.226C111.077 134.737 111.077 134.288 111.077 133.88C110.751 131.268 110.547 128.657 110.465 126.045C110.465 123.352 110.22 120.74 109.731 118.21C109.567 117.313 109.731 116.741 110.22 116.497C110.71 116.252 111.241 116.088 111.812 116.007C114.342 115.68 116.668 114.987 118.79 113.926C120.911 112.865 122.993 111.6 125.033 110.131C125.849 109.478 126.624 108.866 127.359 108.295C128.175 107.723 128.991 107.152 129.807 106.581C135.112 102.419 138.784 97.0323 140.825 90.4218C141.151 89.4424 141.559 88.6671 142.049 88.0959C142.62 87.5246 143.436 87.3206 144.497 87.4838C145.803 87.647 147.027 87.5246 148.17 87.1165C149.312 86.7085 150.495 86.382 151.72 86.1372C153.515 85.7291 154.739 86.5044 155.392 88.4631C157.188 94.5023 158.738 100.623 160.044 106.826C161.35 112.946 162.411 119.149 163.227 125.433C164.125 132.125 164.818 138.858 165.308 145.632C165.879 152.324 166.165 159.057 166.165 165.83C166.165 168.687 166.246 171.584 166.41 174.522C166.573 177.378 166.858 180.235 167.267 183.091C167.511 184.234 167.471 185.172 167.144 185.907C166.818 186.641 165.961 187.09 164.573 187.253C163.757 187.417 162.941 187.621 162.125 187.865C161.391 188.11 160.615 188.355 159.799 188.6C158.82 188.926 157.84 189.253 156.861 189.579C155.963 189.906 155.351 190.722 155.025 192.028C154.943 192.599 154.617 192.925 154.046 193.007C153.556 193.17 153.066 193.293 152.577 193.374C148.578 194.19 144.497 194.843 140.335 195.333C136.254 195.904 132.174 196.394 128.093 196.802C126.951 196.883 126.257 196.72 126.012 196.312C125.767 195.904 125.726 195.21 125.89 194.231C127.44 185.744 129.032 177.256 130.664 168.768C132.378 160.199 133.561 151.589 134.214 142.939C134.622 137.96 134.989 132.982 135.316 128.004C135.724 122.944 136.132 117.721 136.54 112.334ZM151.475 87.9734C150.659 87.8102 149.883 87.9326 149.149 88.3407C148.496 88.7487 147.843 88.912 147.19 88.8304C145.558 88.5855 144.375 88.8304 143.64 89.5649C142.987 90.2994 142.661 91.4011 142.661 92.8701C142.579 93.2782 142.416 93.727 142.171 94.2167C142.008 94.6247 142.212 94.992 142.783 95.3184C143.763 95.8897 144.701 95.8897 145.599 95.3184C147.149 94.5023 148.374 93.4822 149.271 92.258C150.169 91.0339 150.904 89.6057 151.475 87.9734ZM153.556 90.1769C151.924 91.4827 151.23 93.0741 151.475 94.9512C151.883 97.726 152.291 100.542 152.699 103.398C153.107 106.173 153.474 108.988 153.801 111.845C154.127 114.701 154.372 117.598 154.535 120.536C154.78 123.393 154.943 126.249 155.025 129.105C155.27 133.104 155.392 137.144 155.392 141.225C155.392 145.305 155.515 149.386 155.759 153.466C156.004 158.037 156.127 162.648 156.127 167.299C156.127 171.951 156.045 176.562 155.882 181.133C155.8 183.173 155.8 184.642 155.882 185.54C155.963 186.356 156.412 186.764 157.228 186.764C158.044 186.764 159.432 186.6 161.391 186.274C163.268 185.866 164.41 185.335 164.818 184.683C165.308 183.948 165.471 182.602 165.308 180.643C165.226 178.847 165.104 177.093 164.941 175.379C164.859 173.583 164.737 171.788 164.573 169.993C164.247 166.647 164.165 163.3 164.329 159.954C164.573 156.608 164.492 153.303 164.084 150.039C163.757 146.774 163.431 143.551 163.104 140.368C162.86 137.185 162.533 133.961 162.125 130.697C161.554 125.555 160.86 120.455 160.044 115.395C159.228 110.253 158.167 105.193 156.861 100.215C156.453 98.5829 155.923 96.9507 155.27 95.3184C154.698 93.6862 154.127 91.9724 153.556 90.1769ZM112.546 133.512C112.954 133.023 113.24 132.656 113.403 132.411C113.648 132.166 113.893 131.921 114.138 131.676C117.484 128.004 120.83 124.372 124.176 120.781C127.522 117.109 131.194 113.763 135.193 110.743C135.601 110.498 136.009 110.212 136.418 109.886C136.907 109.56 137.397 109.56 137.887 109.886C138.458 110.131 138.703 110.539 138.621 111.11C138.621 111.6 138.662 112.09 138.743 112.579C138.743 113.069 138.703 113.559 138.621 114.048C138.539 114.538 138.458 115.028 138.376 115.517C138.05 118.7 137.683 121.924 137.274 125.188C136.948 128.371 136.703 131.554 136.54 134.737C136.214 140.694 135.724 146.652 135.071 152.609C134.5 158.567 133.643 164.443 132.5 170.237C131.847 173.91 131.154 177.542 130.419 181.133C129.685 184.642 128.95 188.192 128.216 191.783C128.052 192.599 128.093 193.252 128.338 193.741C128.583 194.231 129.236 194.394 130.297 194.231C133.806 193.823 137.315 193.415 140.825 193.007C144.334 192.68 147.802 192.191 151.23 191.538C151.883 191.375 152.373 191.171 152.699 190.926C153.025 190.763 153.229 190.273 153.311 189.457C153.719 185.213 154.005 180.969 154.168 176.726C154.331 172.4 154.331 168.075 154.168 163.749C153.842 154.119 153.597 144.408 153.433 134.614C153.352 128.33 153.025 122.087 152.454 115.884C151.883 109.682 151.026 103.48 149.883 97.2771C149.72 96.2978 149.435 95.7673 149.026 95.6857C148.7 95.5225 148.17 95.7265 147.435 96.2978C146.782 96.7058 146.088 97.0731 145.354 97.3995C144.619 97.6444 143.803 97.6444 142.906 97.3995C141.926 97.0731 141.11 97.1139 140.457 97.5219C139.804 97.93 139.233 98.5421 138.743 99.3582C138.091 100.419 137.478 101.562 136.907 102.786C136.336 103.928 135.479 104.908 134.336 105.724C131.072 108.172 127.808 110.621 124.543 113.069C121.36 115.436 117.647 116.945 113.403 117.598C112.832 117.68 112.342 117.843 111.934 118.088C111.608 118.333 111.485 118.782 111.567 119.435C111.975 121.638 112.138 123.882 112.057 126.167C112.057 128.453 112.22 130.901 112.546 133.512Z" fill="#D0A642"/>
<defs>
<filter id="filter0_d_325_2" x="7.98828" y="5.33459" width="291.912" height="288.766" filterUnits="userSpaceOnUse" color-interpolation-filters="sRGB">
<feFlood flood-opacity="0" result="BackgroundImageFix"/>
<feColorMatrix in="SourceAlpha" type="matrix" values="0 0 0 0 0 0 0 0 0 0 0 0 0 0 0 0 0 0 127 0" result="hardAlpha"/>
<feOffset dx="5" dy="5"/>
<feGaussianBlur stdDeviation="5"/>
<feComposite in2="hardAlpha" operator="out"/>
<feColorMatrix type="matrix" values="0 0 0 0 0.584314 0 0 0 0 0.160784 0 0 0 0 0.494118 0 0 0 1 0"/>
<feBlend mode="normal" in2="BackgroundImageFix" result="effect1_dropShadow_325_2"/>
<feBlend mode="normal" in="SourceGraphic" in2="effect1_dropShadow_325_2" result="shape"/>
</filter>
</defs>
</svg>
