<svg width="300" height="298" viewBox="0 0 300 298" fill="none" xmlns="http://www.w3.org/2000/svg">
<g filter="url(#filter0_d_326_5)">
<path d="M138.4 16.6966C142.864 9.46139 153.384 9.4614 157.848 16.6966L177.327 48.2691C180.106 52.7733 185.614 54.7795 190.639 53.1174L225.794 41.4883C233.856 38.8216 241.906 45.5686 240.69 53.9722L235.36 90.8053C234.604 96.0289 237.524 101.09 242.425 103.05L276.894 116.835C284.766 119.983 286.588 130.306 280.27 135.959L252.556 160.757C248.627 164.273 247.614 170.021 250.105 174.669L267.691 207.479C271.698 214.955 266.448 224.038 257.969 224.296L220.926 225.427C215.643 225.588 211.16 229.352 210.087 234.528L202.542 270.92C200.817 279.242 190.935 282.835 184.268 277.563L155.211 254.588C151.057 251.303 145.191 251.303 141.038 254.588L111.98 277.563C105.314 282.835 95.431 279.242 93.7059 270.92L86.1616 234.528C85.0886 229.352 80.6056 225.588 75.3224 225.427L38.2793 224.296C29.8003 224.038 24.5502 214.955 28.5576 207.479L46.1435 174.669C48.6346 170.021 47.6216 164.273 43.692 160.757L15.9779 135.959C9.66025 130.306 11.4826 119.983 19.354 116.835L53.8233 103.05C58.724 101.09 61.6444 96.0289 60.8885 90.8053L55.5582 53.9722C54.342 45.5686 62.3926 38.8216 70.4542 41.4883L105.609 53.1174C110.634 54.7795 116.143 52.7733 118.921 48.2691L138.4 16.6966Z" fill="#643B6A"/>
<path d="M140.831 18.1964C144.179 12.77 152.069 12.77 155.417 18.1964L174.896 49.7689C178.369 55.3991 185.255 57.9069 191.536 55.8292L226.691 44.2002C232.737 42.2002 238.775 47.2604 237.863 53.5631L232.533 90.3961C231.588 96.9257 235.239 103.253 241.364 105.702L275.834 119.487C281.737 121.848 283.104 129.59 278.366 133.83L250.652 158.628C245.74 163.023 244.473 170.209 247.587 176.018L265.173 208.828C268.179 214.436 264.241 221.247 257.882 221.441L220.839 222.572C214.235 222.773 208.631 227.479 207.29 233.948L199.745 270.341C198.452 276.582 191.04 279.276 186.04 275.323L156.982 252.347C151.79 248.242 144.458 248.242 139.266 252.347L110.209 275.323C105.209 279.276 97.7967 276.582 96.5028 270.341L88.9585 233.948C87.6173 227.479 82.0136 222.773 75.4095 222.572L38.3665 221.441C32.0072 221.247 28.0696 214.436 31.0752 208.828L48.6611 176.018C51.7749 170.209 50.5087 163.023 45.5967 158.628L17.8826 133.83C13.1443 129.59 14.5111 121.848 20.4147 119.487L54.884 105.702C61.0098 103.253 64.6603 96.9257 63.7154 90.3961L58.3851 53.5631C57.473 47.2604 63.5109 42.2002 69.5571 44.2002L104.712 55.8292C110.993 57.9069 117.879 55.3991 121.352 49.7689L140.831 18.1964Z" stroke="#D0A642" stroke-width="5.71278"/>
</g>
<path d="M150.328 192.474C148.451 192.555 146.655 192.555 144.941 192.474C143.228 192.392 141.555 192.27 139.922 192.106C137.637 191.78 136.127 191.331 135.393 190.76C134.658 190.188 134.046 188.883 133.557 186.842C132.659 183.007 131.802 179.171 130.986 175.335C130.17 171.499 129.435 167.664 128.782 163.828C128.456 161.625 127.844 159.543 126.946 157.585C126.13 155.545 125.028 153.627 123.641 151.831C122.335 149.954 121.437 148.077 120.948 146.2C120.54 144.241 120.907 142.16 122.05 139.957C123.927 136.203 125.64 132.408 127.191 128.572C128.823 124.736 130.578 120.941 132.455 117.187C133.353 115.473 134.373 113.8 135.515 112.168C136.658 110.536 137.841 108.945 139.065 107.394C139.718 106.578 140.534 106.088 141.514 105.925C142.493 105.68 143.472 105.476 144.452 105.313C146.002 104.986 147.512 104.742 148.981 104.578C150.532 104.415 152.082 104.17 153.633 103.844C154.939 103.599 155.796 103.721 156.204 104.211C156.693 104.701 156.979 105.394 157.061 106.292C157.387 108.577 157.673 110.903 157.918 113.27C158.244 115.555 158.57 117.881 158.897 120.248C159.55 125.144 159.999 130.041 160.244 134.938C160.488 139.834 160.692 144.69 160.856 149.505C160.937 151.219 161.1 152.933 161.345 154.647C161.59 156.361 161.957 158.034 162.447 159.666C162.61 160.4 162.814 160.849 163.059 161.012C163.386 161.094 163.916 160.972 164.651 160.645C166.609 159.747 168.772 158.891 171.139 158.074C172.852 157.503 173.505 157.993 173.097 159.543C172.852 160.36 172.852 161.135 173.097 161.869C173.342 162.604 173.505 163.338 173.587 164.073C173.75 166.848 173.913 169.582 174.077 172.275C174.321 174.968 174.525 177.702 174.689 180.477C174.689 181.946 175.464 182.558 177.015 182.313C178.81 181.987 180.075 182.15 180.81 182.803C181.626 183.456 182.156 184.598 182.401 186.23C182.809 189.25 183.339 192.27 183.992 195.289C184.727 198.227 185.584 201.124 186.563 203.981C186.808 204.634 186.767 205.164 186.441 205.572C186.196 206.062 185.869 206.511 185.461 206.919C184.237 207.898 182.931 208.796 181.544 209.612C180.157 210.428 178.932 211.448 177.872 212.672C177.545 212.999 177.055 213.203 176.403 213.284C175.831 213.366 175.219 213.448 174.566 213.529C172.118 213.774 169.67 213.774 167.221 213.529C164.773 213.366 162.325 213.366 159.876 213.529C159.305 213.611 158.897 213.448 158.652 213.04C158.489 212.713 158.407 212.346 158.407 211.938C158.489 209.816 158.448 207.694 158.285 205.572C158.203 203.45 158.407 201.369 158.897 199.329C159.142 198.35 159.142 197.411 158.897 196.513C158.652 195.534 158.489 194.555 158.407 193.575C158.407 192.922 158.162 192.596 157.673 192.596C157.265 192.514 156.857 192.474 156.449 192.474H150.328ZM160.121 155.014C160.284 154.116 160.244 153.3 159.999 152.566C159.754 151.831 159.631 151.097 159.631 150.362C159.55 144.894 159.346 139.426 159.019 133.958C158.775 128.49 158.162 123.063 157.183 117.677C156.857 115.8 156.612 113.882 156.449 111.923C156.367 109.965 156.041 108.047 155.469 106.17C155.388 105.762 155.265 105.435 155.102 105.19C154.939 104.864 154.572 104.742 154 104.823C153.592 104.823 153.103 104.823 152.531 104.823C152.042 104.742 151.715 105.027 151.552 105.68C150.817 107.476 150.083 109.312 149.348 111.189C148.614 113.066 148.165 115.025 148.002 117.065C147.839 121.635 147.92 126.205 148.247 130.776C148.655 135.346 148.981 139.916 149.226 144.486C149.389 147.261 149.512 150.036 149.593 152.811C149.675 155.585 149.757 158.36 149.838 161.135C149.838 163.012 150.654 163.42 152.286 162.359C153.266 161.788 154.204 161.216 155.102 160.645C156 159.992 156.938 159.38 157.918 158.809C158.734 158.319 159.387 157.789 159.876 157.218C160.448 156.646 160.529 155.912 160.121 155.014ZM149.838 106.292C150.001 105.803 149.879 105.517 149.471 105.435C149.144 105.354 148.777 105.354 148.369 105.435C147.553 105.517 146.737 105.68 145.921 105.925C145.105 106.088 144.248 106.251 143.35 106.415C142.126 106.578 141.187 107.027 140.534 107.761C139.882 108.496 139.269 109.312 138.698 110.21C138.372 110.536 138.249 110.862 138.331 111.189C138.413 111.515 138.698 111.719 139.188 111.801C141.799 112.046 144.248 112.454 146.533 113.025C146.941 113.107 147.308 112.862 147.635 112.291C148.043 111.311 148.41 110.332 148.736 109.353C149.144 108.373 149.512 107.353 149.838 106.292ZM149.838 191.617C151.144 191.617 152.368 191.617 153.511 191.617C154.653 191.617 155.755 191.576 156.816 191.494C158.122 191.413 158.979 191.617 159.387 192.106C159.876 192.514 160.121 193.29 160.121 194.432C160.203 196.962 160.08 199.492 159.754 202.022C159.427 204.47 159.305 206.96 159.387 209.489C159.468 210.387 159.631 211.04 159.876 211.448C160.203 211.938 160.978 212.223 162.202 212.305C163.753 212.387 165.303 212.468 166.854 212.55C168.405 212.713 169.955 212.754 171.506 212.672C173.465 212.672 174.648 212.468 175.056 212.06C175.546 211.734 175.831 210.673 175.913 208.877C176.076 206.511 176.198 204.185 176.28 201.9C176.362 199.533 176.443 197.207 176.525 194.922C176.607 192.882 176.525 191.413 176.28 190.515C176.117 189.617 175.586 188.923 174.689 188.434C173.873 187.944 172.404 187.291 170.282 186.475C169.547 186.149 168.772 185.822 167.956 185.496C167.14 185.169 166.609 184.598 166.364 183.782C165.793 181.905 165.263 179.987 164.773 178.028C164.365 176.07 163.998 174.152 163.671 172.275C163.345 170.316 162.937 168.398 162.447 166.521C161.957 164.563 161.468 162.604 160.978 160.645C160.733 159.747 160.407 159.299 159.999 159.299C159.672 159.299 159.142 159.503 158.407 159.911C157.346 160.564 156.326 161.257 155.347 161.992C154.449 162.726 153.429 163.298 152.286 163.706C150.981 164.195 150.042 164.318 149.471 164.073C148.981 163.828 148.736 163.094 148.736 161.869C148.9 157.054 148.818 152.239 148.492 147.424C148.165 142.528 147.798 137.672 147.39 132.857C147.145 130 146.982 127.144 146.9 124.287C146.9 121.431 146.9 118.615 146.9 115.841C146.9 115.514 146.9 115.188 146.9 114.861C146.9 114.535 146.696 114.29 146.288 114.127C144.982 113.474 143.554 113.107 142.003 113.025C140.534 112.862 139.106 112.78 137.719 112.78C136.903 112.78 136.291 113.229 135.883 114.127C135.475 114.943 135.067 115.718 134.658 116.453C132.618 119.962 130.823 123.635 129.272 127.47C127.803 131.224 126.048 134.897 124.008 138.488C121.152 143.303 121.56 147.873 125.232 152.198C126.865 154.239 128.048 156.401 128.782 158.687C129.517 160.89 130.047 163.175 130.374 165.542C131.027 169.378 131.761 173.213 132.577 177.049C133.393 180.803 134.291 184.557 135.271 188.311C135.434 189.209 135.801 189.862 136.372 190.27C137.025 190.678 137.841 190.964 138.821 191.127C140.698 191.372 142.575 191.576 144.452 191.739C146.329 191.821 148.124 191.78 149.838 191.617ZM132.7 153.912C130.904 153.994 129.884 153.912 129.639 153.667C129.476 153.423 129.762 152.566 130.496 151.097C132.618 146.935 134.25 142.691 135.393 138.365C136.617 133.958 137.637 129.551 138.453 125.144C138.617 124.573 138.657 123.92 138.576 123.186C138.576 122.37 139.065 121.921 140.045 121.839C141.024 121.839 141.514 122.247 141.514 123.063C141.514 123.798 141.555 124.41 141.636 124.9C142.126 129.062 142.82 133.183 143.717 137.264C144.615 141.263 145.227 145.343 145.554 149.505C145.798 151.79 144.656 152.892 142.126 152.811C140.575 152.729 139.025 152.933 137.474 153.423C135.923 153.831 134.332 153.994 132.7 153.912ZM140.534 126.491C139.963 127.225 139.637 127.96 139.555 128.694C139.555 129.429 139.555 130.163 139.555 130.898C139.555 131.224 139.555 131.551 139.555 131.877C139.637 132.122 139.963 132.204 140.534 132.122C141.024 132.041 141.31 131.877 141.391 131.632C141.473 131.306 141.473 130.98 141.391 130.653C141.31 130 141.187 129.347 141.024 128.694C140.861 127.96 140.698 127.225 140.534 126.491ZM139.555 139.467C139.718 139.63 139.678 139.957 139.433 140.446C139.269 140.855 139.596 141.018 140.412 140.936C141.065 140.855 141.595 140.691 142.003 140.446C142.493 140.202 142.738 139.712 142.738 138.977C142.738 138.651 142.656 137.998 142.493 137.019C142.33 136.039 142.085 135.142 141.759 134.326C141.432 133.428 141.024 133.02 140.534 133.101C140.045 133.101 139.718 133.55 139.555 134.448C139.392 135.346 139.31 136.325 139.31 137.386C139.392 138.365 139.474 139.059 139.555 139.467ZM137.596 135.427C136.862 137.876 136.005 140.324 135.026 142.772C134.128 145.221 133.108 147.751 131.965 150.362C134.332 149.22 135.923 148.036 136.74 146.812C137.637 145.588 138.086 144.078 138.086 142.283C138.168 140.487 138.005 138.202 137.596 135.427ZM143.228 142.772C143.228 142.038 142.738 141.752 141.759 141.915C141.269 141.997 140.738 142.119 140.167 142.283C139.678 142.364 139.433 142.772 139.433 143.507C139.433 143.833 139.555 144.364 139.8 145.098C140.045 145.833 140.453 146.241 141.024 146.322C141.922 146.404 142.493 146.037 142.738 145.221C142.983 144.405 143.146 143.588 143.228 142.772ZM132.7 152.566C134.332 152.892 135.883 152.933 137.352 152.688C138.821 152.362 140.29 152.117 141.759 151.954C142.82 151.79 143.432 151.546 143.595 151.219C143.758 150.811 143.881 150.24 143.962 149.505C143.962 148.608 143.717 148.036 143.228 147.791C142.82 147.547 142.167 147.383 141.269 147.302C139.8 147.22 138.617 147.506 137.719 148.159C136.821 148.812 136.005 149.587 135.271 150.485C134.536 151.301 133.679 151.994 132.7 152.566ZM172.485 166.888C172.404 166.317 172.322 165.787 172.24 165.297C172.24 164.807 172.159 164.399 171.996 164.073C171.669 163.338 171.628 162.481 171.873 161.502C172.118 160.523 171.832 159.911 171.016 159.666C170.363 159.503 169.547 159.707 168.568 160.278C167.67 160.768 166.772 161.176 165.875 161.502C163.916 162.155 163.263 163.42 163.916 165.297C164.079 165.623 164.161 166.032 164.161 166.521C164.242 166.929 164.324 167.337 164.406 167.745C164.732 169.214 165.099 170.071 165.507 170.316C165.997 170.479 166.976 170.275 168.445 169.704C169.262 169.296 170.118 169.01 171.016 168.847C171.914 168.602 172.404 167.949 172.485 166.888ZM174.321 186.475C173.832 185.577 173.587 184.72 173.587 183.904C173.669 183.007 173.669 182.15 173.587 181.334C173.505 179.783 173.383 178.273 173.22 176.804C173.138 175.254 173.016 173.703 172.852 172.152C172.771 171.255 172.567 170.602 172.24 170.194C171.914 169.786 171.098 169.867 169.792 170.439C168.241 171.01 167.14 171.499 166.487 171.908C165.916 172.234 165.63 172.764 165.63 173.499C165.63 174.152 165.834 175.294 166.242 176.927C166.405 177.498 166.609 178.11 166.854 178.763C167.099 179.334 167.221 179.946 167.221 180.599C167.303 182.558 167.997 183.945 169.302 184.761C170.608 185.496 172.281 186.067 174.321 186.475ZM178.239 190.27C178.647 189.78 179.055 189.332 179.463 188.923C179.871 188.515 180.197 188.107 180.442 187.699C180.85 187.046 181.054 186.353 181.054 185.618C181.136 184.802 180.85 184.19 180.197 183.782C179.545 183.292 178.728 183.047 177.749 183.047C176.77 183.047 175.994 183.292 175.423 183.782C175.097 184.108 174.974 184.68 175.056 185.496C175.219 186.23 175.668 186.842 176.403 187.332C176.811 187.658 177.137 188.067 177.382 188.556C177.627 188.964 177.912 189.536 178.239 190.27ZM177.994 194.432C178.647 193.943 179.259 193.534 179.83 193.208C180.483 192.8 181.095 192.433 181.666 192.106C182.319 191.617 182.319 190.882 181.666 189.903C181.585 189.74 181.462 189.617 181.299 189.536C181.136 189.372 180.973 189.372 180.81 189.536C180.157 190.188 179.381 190.841 178.484 191.494C177.667 192.065 177.504 193.045 177.994 194.432ZM182.401 192.963C181.666 193.534 180.85 194.065 179.953 194.555C179.137 194.963 178.484 195.534 177.994 196.268C177.586 196.921 177.586 197.982 177.994 199.451C178.484 198.635 179.137 198.023 179.953 197.615C180.769 197.125 181.462 196.554 182.034 195.901C182.605 195.248 182.727 194.269 182.401 192.963ZM177.137 202.879C177.137 202.961 177.137 203.165 177.137 203.491C177.137 203.817 177.259 204.062 177.504 204.226C177.912 204.552 178.32 204.552 178.728 204.226C179.137 203.981 179.504 203.736 179.83 203.491C180.483 203.083 181.095 202.675 181.666 202.267C182.319 201.777 182.972 201.328 183.625 200.92C184.278 200.512 184.441 200.063 184.115 199.574C183.788 199.002 183.666 198.472 183.748 197.982C183.748 197.493 183.421 197.248 182.768 197.248C182.279 197.248 181.585 197.615 180.687 198.35C179.789 199.002 178.973 199.778 178.239 200.675C177.586 201.492 177.219 202.226 177.137 202.879ZM177.259 210.714C178.402 210.061 179.381 209.449 180.197 208.877C181.095 208.388 181.952 207.857 182.768 207.286C183.176 207.041 183.544 206.755 183.87 206.429C184.278 206.103 184.645 205.776 184.972 205.45C185.461 205.042 185.625 204.634 185.461 204.226C185.38 203.817 185.257 203.409 185.094 203.001C185.013 202.757 184.849 202.553 184.604 202.389C184.441 202.226 184.196 202.226 183.87 202.389C182.809 202.879 181.748 203.409 180.687 203.981C179.626 204.552 178.647 205.205 177.749 205.939C177.096 206.511 176.811 207.204 176.892 208.02C177.055 208.837 177.178 209.734 177.259 210.714Z" fill="#D0A642"/>
<defs>
<filter id="filter0_d_326_5" x="7.16797" y="6.2702" width="291.912" height="288.766" filterUnits="userSpaceOnUse" color-interpolation-filters="sRGB">
<feFlood flood-opacity="0" result="BackgroundImageFix"/>
<feColorMatrix in="SourceAlpha" type="matrix" values="0 0 0 0 0 0 0 0 0 0 0 0 0 0 0 0 0 0 127 0" result="hardAlpha"/>
<feOffset dx="5" dy="5"/>
<feGaussianBlur stdDeviation="5"/>
<feComposite in2="hardAlpha" operator="out"/>
<feColorMatrix type="matrix" values="0 0 0 0 0.584314 0 0 0 0 0.160784 0 0 0 0 0.494118 0 0 0 1 0"/>
<feBlend mode="normal" in2="BackgroundImageFix" result="effect1_dropShadow_326_5"/>
<feBlend mode="normal" in="SourceGraphic" in2="effect1_dropShadow_326_5" result="shape"/>
</filter>
</defs>
</svg>
