<svg width="300" height="298" viewBox="0 0 300 298" fill="none" xmlns="http://www.w3.org/2000/svg">
<g filter="url(#filter0_d_326_3)">
<path d="M138.4 16.356C142.864 9.12081 153.384 9.12082 157.848 16.356L177.327 47.9285C180.106 52.4327 185.614 54.4389 190.639 52.7768L225.794 41.1478C233.856 38.4811 241.906 45.228 240.69 53.6317L235.36 90.4647C234.604 95.6883 237.524 100.75 242.425 102.71L276.894 116.495C284.766 119.643 286.588 129.965 280.27 135.618L252.556 160.416C248.627 163.932 247.614 169.681 250.105 174.328L267.691 207.138C271.698 214.615 266.448 223.697 257.969 223.956L220.926 225.086C215.643 225.248 211.16 229.012 210.087 234.187L202.542 270.58C200.817 278.901 190.935 282.494 184.268 277.223L155.211 254.247C151.057 250.963 145.191 250.963 141.038 254.247L111.98 277.223C105.314 282.494 95.431 278.901 93.7059 270.58L86.1616 234.187C85.0886 229.012 80.6056 225.248 75.3224 225.086L38.2793 223.956C29.8003 223.697 24.5502 214.615 28.5576 207.138L46.1435 174.328C48.6346 169.681 47.6216 163.932 43.692 160.416L15.9779 135.618C9.66025 129.965 11.4826 119.643 19.354 116.495L53.8233 102.71C58.724 100.75 61.6444 95.6883 60.8885 90.4647L55.5582 53.6317C54.342 45.228 62.3926 38.4811 70.4542 41.1478L105.609 52.7768C110.634 54.4389 116.143 52.4327 118.921 47.9285L138.4 16.356Z" fill="#643B6A"/>
<path d="M140.831 17.8558C144.179 12.4294 152.069 12.4294 155.417 17.8558L174.896 49.4283C178.369 55.0586 185.255 57.5663 191.536 55.4887L226.691 43.8596C232.737 41.8596 238.775 46.9198 237.863 53.2225L232.533 90.0556C231.588 96.5851 235.239 102.912 241.364 105.362L275.834 119.147C281.737 121.508 283.104 129.25 278.366 133.489L250.652 158.287C245.74 162.682 244.473 169.868 247.587 175.678L265.173 208.487C268.179 214.095 264.241 220.907 257.882 221.101L220.839 222.231C214.235 222.433 208.631 227.138 207.29 233.608L199.745 270C198.452 276.241 191.04 278.936 186.04 274.982L156.982 252.007C151.79 247.901 144.458 247.901 139.266 252.007L110.209 274.982C105.209 278.936 97.7967 276.241 96.5028 270L88.9585 233.608C87.6173 227.138 82.0136 222.433 75.4095 222.231L38.3665 221.101C32.0072 220.907 28.0696 214.095 31.0752 208.487L48.6611 175.678C51.7749 169.868 50.5087 162.682 45.5967 158.287L17.8826 133.489C13.1443 129.25 14.5111 121.508 20.4147 119.147L54.884 105.362C61.0098 102.912 64.6603 96.5851 63.7154 90.0556L58.3851 53.2226C57.473 46.9198 63.5109 41.8596 69.5571 43.8596L104.712 55.4887C110.993 57.5663 117.879 55.0586 121.352 49.4283L140.831 17.8558Z" stroke="#D0A642" stroke-width="5.71278"/>
</g>
<path d="M124.947 117.459C124.865 115.663 124.906 113.95 125.069 112.317C125.314 110.685 125.6 109.053 125.926 107.421C126.824 103.095 129.354 100.198 133.516 98.7291C135.393 98.0762 137.229 97.5865 139.025 97.2601C140.902 96.852 142.86 96.8112 144.901 97.1377C146.206 97.3009 147.512 97.2193 148.818 96.8928C150.205 96.5664 151.552 96.3216 152.858 96.1583C154.898 95.9135 156.897 95.8727 158.856 96.0359C160.815 96.1991 162.692 96.7296 164.487 97.6273C167.67 99.1779 170.078 101.708 171.71 105.217C173.342 108.726 173.954 112.277 173.546 115.867C173.056 119.703 172.077 123.376 170.608 126.885C169.221 130.313 167.629 133.699 165.834 137.046C163.549 141.371 161.1 145.615 158.489 149.777C155.959 153.857 153.143 157.816 150.042 161.651C148.9 163.12 147.716 164.589 146.492 166.058C145.349 167.446 144.084 168.711 142.697 169.853C141.636 170.588 141.759 171.159 143.064 171.567C144.207 171.893 145.349 172.179 146.492 172.424C147.635 172.587 148.736 172.832 149.797 173.158C151.674 173.73 153.511 174.423 155.306 175.24C157.101 176.056 158.734 176.994 160.203 178.055C161.753 179.116 163.304 179.728 164.855 179.891C166.487 179.973 168.078 180.177 169.629 180.503C171.343 180.83 172.363 181.197 172.689 181.605C173.016 182.013 173.056 183.074 172.812 184.788C172.567 186.094 172.281 187.4 171.955 188.705C171.71 190.011 171.465 191.358 171.22 192.745C170.894 194.132 169.996 194.785 168.527 194.704C167.711 194.541 166.854 194.418 165.956 194.337C165.14 194.255 164.324 194.051 163.508 193.724C162.039 193.072 161.182 193.48 160.937 194.949C160.856 195.275 160.774 195.561 160.692 195.806C160.611 196.05 160.529 196.336 160.448 196.662C160.121 198.866 159.264 200.417 157.877 201.314C156.489 202.212 154.857 202.824 152.98 203.151C149.226 203.64 145.472 204.048 141.718 204.375C138.045 204.783 134.291 204.905 130.455 204.742C127.925 204.579 125.396 204.375 122.866 204.13C120.417 203.967 117.928 204.007 115.398 204.252C114.582 204.334 113.807 204.456 113.072 204.62C112.419 204.783 111.685 204.824 110.869 204.742C109.563 204.579 108.706 204.211 108.298 203.64C107.89 203.151 107.849 202.253 108.176 200.947C108.747 198.825 109.4 196.785 110.134 194.826C110.869 192.786 111.644 190.746 112.46 188.705C115.561 181.442 118.867 174.26 122.376 167.16C125.967 160.06 129.394 152.919 132.659 145.737C133.801 143.289 134.985 140.881 136.209 138.515C137.433 136.066 138.821 133.699 140.371 131.414C141.514 129.619 142.534 127.783 143.432 125.906C144.411 124.029 145.064 122.07 145.39 120.03C145.553 119.458 145.635 118.887 145.635 118.316C145.635 117.744 145.553 117.173 145.39 116.602C145.227 116.031 145.064 115.459 144.901 114.888C144.737 114.235 144.329 113.868 143.676 113.786C143.024 113.623 142.411 113.705 141.84 114.031C141.269 114.358 140.738 114.725 140.249 115.133C139.514 115.867 139.025 116.724 138.78 117.704C138.535 118.601 138.249 119.54 137.923 120.519C137.841 120.846 137.76 121.172 137.678 121.499C137.678 121.825 137.637 122.192 137.556 122.6C137.148 124.233 136.739 125.212 136.331 125.538C136.005 125.865 134.985 125.987 133.271 125.906C132.373 125.824 131.435 125.824 130.455 125.906C129.558 125.906 128.66 126.11 127.762 126.518C126.865 126.844 126.252 126.844 125.926 126.518C125.681 126.11 125.559 125.579 125.559 124.926C125.477 123.62 125.314 122.356 125.069 121.131C124.906 119.826 124.865 118.601 124.947 117.459ZM148.451 97.8722C148.777 98.117 149.022 98.321 149.185 98.4842C149.348 98.5659 149.512 98.6475 149.675 98.7291C149.838 98.7291 150.001 98.7291 150.165 98.7291C152.776 99.3004 154.694 100.443 155.918 102.157C157.142 103.789 157.918 105.87 158.244 108.4C158.57 110.44 158.57 112.44 158.244 114.398C157.918 116.357 157.55 118.316 157.142 120.274C156.489 123.131 155.714 125.987 154.816 128.844C154 131.7 152.694 134.352 150.899 136.801C149.185 139.167 147.594 141.657 146.125 144.268C144.737 146.798 143.35 149.369 141.963 151.98C139.596 156.224 137.311 160.59 135.107 165.079C132.985 169.486 130.619 173.73 128.007 177.81C127.599 178.463 127.477 178.953 127.64 179.279C127.803 179.524 128.293 179.687 129.109 179.769C131.394 179.932 133.679 179.973 135.964 179.891C138.249 179.81 140.534 180.463 142.82 181.85C144.37 182.748 146.084 183.401 147.961 183.809C149.92 184.135 151.797 184.543 153.592 185.033C154 185.114 154.327 185.196 154.572 185.278C154.898 185.278 155.224 185.114 155.551 184.788C156.204 183.972 156.816 183.197 157.387 182.462C157.958 181.728 158.53 180.952 159.101 180.136C159.672 179.402 159.591 178.912 158.856 178.667C156.571 177.851 154.367 176.831 152.246 175.607C150.205 174.301 147.92 173.526 145.39 173.281C144.574 173.199 143.758 173.036 142.942 172.791C142.207 172.465 141.473 172.179 140.738 171.934C139.514 171.526 139.433 170.833 140.494 169.853C140.983 169.445 141.473 169.037 141.963 168.629C142.452 168.139 142.942 167.65 143.432 167.16C147.675 162.427 151.593 157.489 155.184 152.348C158.856 147.206 162.121 141.779 164.977 136.066C166.691 132.72 168.241 129.333 169.629 125.906C171.016 122.478 171.914 118.846 172.322 115.011C172.73 111.42 171.955 107.992 169.996 104.727C168.119 101.463 165.507 99.2188 162.161 97.9946C159.958 97.1785 157.714 96.8928 155.428 97.1377C153.225 97.3825 150.899 97.6273 148.451 97.8722ZM133.026 203.518C136.372 203.518 139.392 203.355 142.085 203.028C144.86 202.783 147.512 202.498 150.042 202.171C152.327 201.845 154 201.518 155.061 201.192C156.204 200.865 157.061 200.213 157.632 199.233C158.203 198.254 158.815 196.703 159.468 194.581C160.203 192.215 159.346 191.113 156.897 191.276C155.102 191.439 153.307 191.603 151.511 191.766C149.716 191.929 147.961 192.215 146.247 192.623C142.003 193.684 137.719 194.092 133.393 193.847C129.15 193.602 124.906 193.194 120.662 192.623C119.03 192.378 118.54 191.603 119.193 190.297C120.091 188.42 120.989 186.624 121.886 184.91C122.784 183.115 123.804 181.401 124.947 179.769C127.15 176.749 129.068 173.607 130.7 170.343C132.414 166.997 134.169 163.692 135.964 160.427C137.841 156.918 139.637 153.409 141.351 149.899C143.064 146.308 145.064 142.881 147.349 139.616C149.471 136.76 151.185 133.781 152.49 130.68C153.878 127.497 154.939 124.151 155.673 120.642C156.081 118.765 156.408 116.847 156.653 114.888C156.979 112.848 157.061 110.848 156.897 108.89C156.734 107.094 156.285 105.421 155.551 103.871C154.898 102.32 153.715 101.218 152.001 100.565C149.144 99.4228 146.247 98.6067 143.309 98.117C140.371 97.6273 137.352 98.0762 134.25 99.4636C132.537 100.198 131.068 101.137 129.843 102.279C128.701 103.34 127.925 104.809 127.517 106.686C126.865 109.379 126.416 112.073 126.171 114.766C126.008 117.459 126.171 120.193 126.661 122.968C126.905 124.437 127.803 125.171 129.354 125.171C131.312 125.089 132.7 124.967 133.516 124.804C134.332 124.559 134.944 124.069 135.352 123.335C135.76 122.519 136.209 121.172 136.699 119.295C137.107 117.908 137.637 116.684 138.29 115.623C139.025 114.48 140.126 113.623 141.595 113.052C144.533 111.991 146.288 112.97 146.859 115.99C147.186 117.704 147.104 119.377 146.614 121.009C146.206 122.56 145.635 124.11 144.901 125.661C143.024 129.578 140.942 133.373 138.657 137.046C136.454 140.718 134.495 144.595 132.781 148.675C130.659 153.653 128.293 158.591 125.681 163.488C123.07 168.303 120.703 173.24 118.581 178.3C117.03 181.972 115.398 185.604 113.684 189.195C111.971 192.704 110.665 196.377 109.767 200.213C109.441 201.6 109.481 202.538 109.889 203.028C110.297 203.518 111.236 203.64 112.705 203.395C113.848 203.232 114.949 203.028 116.01 202.783C117.071 202.62 118.132 202.579 119.193 202.661C121.805 202.742 124.294 202.865 126.661 203.028C129.109 203.191 131.231 203.355 133.026 203.518ZM160.08 182.095C159.264 182.666 158.611 183.237 158.122 183.809C157.714 184.38 157.305 184.992 156.897 185.645C156.571 185.971 156.245 186.257 155.918 186.502C155.592 186.747 155.102 186.787 154.449 186.624C152.898 186.216 151.348 185.767 149.797 185.278C148.247 184.788 146.655 184.38 145.023 184.054C143.717 183.809 142.493 183.319 141.351 182.585C140.29 181.85 139.106 181.442 137.8 181.36C136.087 181.197 134.332 181.156 132.537 181.238C130.823 181.32 129.068 181.36 127.273 181.36C126.946 181.36 126.579 181.401 126.171 181.483C125.844 181.564 125.518 181.809 125.192 182.217C123.641 184.502 122.294 187.032 121.152 189.807C120.907 190.786 121.152 191.317 121.886 191.399C124.498 191.643 127.069 192.011 129.599 192.5C132.21 192.99 134.781 193.031 137.311 192.623C140.086 192.215 142.82 191.847 145.513 191.521C148.206 191.113 150.94 190.623 153.715 190.052C154.612 189.889 155.592 189.93 156.653 190.174C157.714 190.419 158.57 190.093 159.223 189.195C159.795 188.297 159.999 187.359 159.835 186.379C159.754 185.318 159.835 184.339 160.08 183.441C160.162 183.278 160.162 183.115 160.08 182.952C160.08 182.707 160.08 182.421 160.08 182.095ZM163.875 181.483C163.059 181.238 162.447 181.36 162.039 181.85C161.712 182.258 161.508 182.789 161.427 183.441C161.345 184.094 161.304 184.788 161.304 185.523C161.386 186.175 161.345 186.828 161.182 187.481C161.1 188.216 161.019 188.95 160.937 189.685C160.937 190.419 161.345 191.031 162.161 191.521C163.141 192.092 164.202 192.541 165.344 192.868C166.487 193.194 167.629 193.316 168.772 193.235C169.18 193.153 169.425 192.99 169.506 192.745C169.67 192.419 169.792 192.092 169.874 191.766C170.526 189.317 171.016 186.869 171.343 184.421C171.669 182.87 170.975 182.013 169.262 181.85C168.364 181.768 167.466 181.728 166.568 181.728C165.671 181.646 164.773 181.564 163.875 181.483Z" fill="#D0A642"/>
<defs>
<filter id="filter0_d_326_3" x="7.16797" y="5.92957" width="291.912" height="288.766" filterUnits="userSpaceOnUse" color-interpolation-filters="sRGB">
<feFlood flood-opacity="0" result="BackgroundImageFix"/>
<feColorMatrix in="SourceAlpha" type="matrix" values="0 0 0 0 0 0 0 0 0 0 0 0 0 0 0 0 0 0 127 0" result="hardAlpha"/>
<feOffset dx="5" dy="5"/>
<feGaussianBlur stdDeviation="5"/>
<feComposite in2="hardAlpha" operator="out"/>
<feColorMatrix type="matrix" values="0 0 0 0 0.584314 0 0 0 0 0.160784 0 0 0 0 0.494118 0 0 0 1 0"/>
<feBlend mode="normal" in2="BackgroundImageFix" result="effect1_dropShadow_326_3"/>
<feBlend mode="normal" in="SourceGraphic" in2="effect1_dropShadow_326_3" result="shape"/>
</filter>
</defs>
</svg>
